<svg width="22" height="22" viewBox="0 0 22 22" fill="none" xmlns="http://www.w3.org/2000/svg">
<path d="M8.24999 3.66675H4.58332C4.07706 3.66675 3.66666 4.07715 3.66666 4.58341V8.25008C3.66666 8.75634 4.07706 9.16675 4.58332 9.16675H8.24999C8.75625 9.16675 9.16666 8.75634 9.16666 8.25008V4.58341C9.16666 4.07715 8.75625 3.66675 8.24999 3.66675Z" fill="#4EC7E6"/>
<path d="M17.4167 3.66675H13.75C13.2437 3.66675 12.8333 4.07715 12.8333 4.58341V8.25008C12.8333 8.75634 13.2437 9.16675 13.75 9.16675H17.4167C17.9229 9.16675 18.3333 8.75634 18.3333 8.25008V4.58341C18.3333 4.07715 17.9229 3.66675 17.4167 3.66675Z" fill="#4EC7E6"/>
<path d="M8.24999 12.8334H4.58332C4.07706 12.8334 3.66666 13.2438 3.66666 13.7501V17.4167C3.66666 17.923 4.07706 18.3334 4.58332 18.3334H8.24999C8.75625 18.3334 9.16666 17.923 9.16666 17.4167V13.7501C9.16666 13.2438 8.75625 12.8334 8.24999 12.8334Z" fill="#4EC7E6"/>
<path d="M17.4167 12.8334H13.75C13.2437 12.8334 12.8333 13.2438 12.8333 13.7501V17.4167C12.8333 17.923 13.2437 18.3334 13.75 18.3334H17.4167C17.9229 18.3334 18.3333 17.923 18.3333 17.4167V13.7501C18.3333 13.2438 17.9229 12.8334 17.4167 12.8334Z" fill="#4EC7E6"/>
<path d="M8.24999 3.66675H4.58332C4.07706 3.66675 3.66666 4.07715 3.66666 4.58341V8.25008C3.66666 8.75634 4.07706 9.16675 4.58332 9.16675H8.24999C8.75625 9.16675 9.16666 8.75634 9.16666 8.25008V4.58341C9.16666 4.07715 8.75625 3.66675 8.24999 3.66675Z" stroke="#4EC7E6" stroke-width="2" stroke-linecap="round" stroke-linejoin="round"/>
<path d="M17.4167 3.66675H13.75C13.2437 3.66675 12.8333 4.07715 12.8333 4.58341V8.25008C12.8333 8.75634 13.2437 9.16675 13.75 9.16675H17.4167C17.9229 9.16675 18.3333 8.75634 18.3333 8.25008V4.58341C18.3333 4.07715 17.9229 3.66675 17.4167 3.66675Z" stroke="#4EC7E6" stroke-width="2" stroke-linecap="round" stroke-linejoin="round"/>
<path d="M8.24999 12.8334H4.58332C4.07706 12.8334 3.66666 13.2438 3.66666 13.7501V17.4167C3.66666 17.923 4.07706 18.3334 4.58332 18.3334H8.24999C8.75625 18.3334 9.16666 17.923 9.16666 17.4167V13.7501C9.16666 13.2438 8.75625 12.8334 8.24999 12.8334Z" stroke="#4EC7E6" stroke-width="2" stroke-linecap="round" stroke-linejoin="round"/>
<path d="M17.4167 12.8334H13.75C13.2437 12.8334 12.8333 13.2438 12.8333 13.7501V17.4167C12.8333 17.923 13.2437 18.3334 13.75 18.3334H17.4167C17.9229 18.3334 18.3333 17.923 18.3333 17.4167V13.7501C18.3333 13.2438 17.9229 12.8334 17.4167 12.8334Z" stroke="#4EC7E6" stroke-width="2" stroke-linecap="round" stroke-linejoin="round"/>
</svg>
