<svg width="32" height="32" viewBox="0 0 32 32" fill="none" xmlns="http://www.w3.org/2000/svg">
<rect width="32" height="32" rx="5" fill="#a7f0c8"/>
<g clip-path="url(#clip0_193_4219)">
<path d="M16 24C11.5817 24 8 20.4183 8 16C8 11.5817 11.5817 8 16 8C20.4183 8 24 11.5817 24 16C23.9948 20.4161 20.4161 23.9948 16 24ZM16 9C12.134 9 9 12.134 9 16C9 19.866 12.134 23 16 23C19.866 23 23 19.866 23 16C22.9958 12.1357 19.8643 9.00415 16 9Z" fill="#155A35"/>
<path d="M16.0001 17C14.5525 16.9261 13.4361 15.6979 13.5001 14.25C13.4361 12.8021 14.5525 11.5739 16.0001 11.5C17.4476 11.5739 18.564 12.8021 18.5001 14.25C18.564 15.6979 17.4476 16.9261 16.0001 17ZM16.0001 12.5C15.1058 12.5752 14.4376 13.3547 14.5001 14.25C14.4376 15.1453 15.1058 15.9248 16.0001 16C16.8943 15.9248 17.5626 15.1453 17.5001 14.25C17.5626 13.3547 16.8943 12.5752 16.0001 12.5Z" fill="#155A35"/>
<path d="M13 19.5C12.7239 19.5 12.5 19.2761 12.5 19C12.5 17.3455 14.0699 16 16 16C16.2761 16 16.5 16.2239 16.5 16.5C16.5 16.7761 16.2761 17 16 17C14.6215 17 13.5 17.897 13.5 19C13.5 19.2761 13.2761 19.5 13 19.5Z" fill="#155A35"/>
<path d="M17.5 20.5C17.3674 20.5 17.2402 20.4472 17.1464 20.3535L16.1464 19.3535C15.957 19.1573 15.9597 18.8454 16.1525 18.6525C16.3454 18.4597 16.6573 18.457 16.8535 18.6464L17.5 19.2929L20.1464 16.6464C20.3426 16.457 20.6545 16.4597 20.8474 16.6525C21.0402 16.8454 21.0429 17.1573 20.8535 17.3535L17.8535 20.3535C17.7597 20.4472 17.6325 20.5 17.5 20.5Z" fill="#155A35"/>
</g>
<defs>
<clipPath id="clip0_193_4219">
<rect width="16" height="16" fill="white" transform="translate(8 8)"/>
</clipPath>
</defs>
</svg>
