<svg width="100" height="15" viewBox="0 0 100 15" fill="none" xmlns="http://www.w3.org/2000/svg">
<path d="M2.46726 0.818182L5.11712 8.83239H5.22152L7.86641 0.818182H9.89482L6.30533 11H4.02834L0.443824 0.818182H2.46726ZM13.2804 0.818182V11H11.4359V0.818182H13.2804ZM15.4777 11V0.818182H22.0999V2.36435H17.3222V5.12855H21.7568V6.67472H17.3222V9.45384H22.1396V11H15.4777ZM26.3244 11L23.4508 0.818182H25.4344L27.269 8.30043H27.3634L29.3222 0.818182H31.1269L33.0907 8.3054H33.1802L35.0147 0.818182H36.9984L34.1248 11H32.3052L30.2668 3.85582H30.1873L28.144 11H26.3244ZM45.6003 11H42.15V0.818182H45.6699C46.6807 0.818182 47.5491 1.02202 48.275 1.42969C49.0041 1.83404 49.5643 2.41572 49.9554 3.17472C50.3465 3.93371 50.542 4.84186 50.542 5.89915C50.542 6.95975 50.3448 7.87121 49.9504 8.63352C49.5593 9.39583 48.9942 9.98082 48.2551 10.3885C47.5193 10.7962 46.6343 11 45.6003 11ZM43.9944 9.40412H45.5108C46.22 9.40412 46.8117 9.27486 47.2856 9.01634C47.7596 8.7545 48.1159 8.36506 48.3545 7.84801C48.5931 7.32765 48.7125 6.67803 48.7125 5.89915C48.7125 5.12026 48.5931 4.47396 48.3545 3.96023C48.1159 3.44318 47.7629 3.05706 47.2956 2.80185C46.8315 2.54332 46.2548 2.41406 45.5655 2.41406H43.9944V9.40412ZM52.4945 11V0.818182H59.1167V2.36435H54.339V5.12855H58.7736V6.67472H54.339V9.45384H59.1564V11H52.4945ZM60.751 2.36435V0.818182H68.8745V2.36435H65.7275V11H63.898V2.36435H60.751ZM70.7177 11H68.7489L72.3334 0.818182H74.6104L78.1999 11H76.2311L73.5117 2.90625H73.4321L70.7177 11ZM70.7823 7.00781H76.1516V8.48935H70.7823V7.00781ZM81.5854 0.818182V11H79.741V0.818182H81.5854ZM83.7828 11V0.818182H85.6272V9.45384H90.1116V11H83.7828ZM97.4458 3.61719C97.3994 3.183 97.2039 2.84493 96.8592 2.60298C96.5178 2.36103 96.0737 2.24006 95.5268 2.24006C95.1423 2.24006 94.8126 2.29806 94.5375 2.41406C94.2624 2.53007 94.0519 2.6875 93.9061 2.88636C93.7602 3.08523 93.6857 3.31226 93.6824 3.56747C93.6824 3.77959 93.7304 3.96354 93.8265 4.11932C93.926 4.27509 94.0602 4.40767 94.2292 4.51705C94.3983 4.62311 94.5855 4.71259 94.791 4.78551C94.9965 4.85843 95.2037 4.91974 95.4125 4.96946L96.367 5.2081C96.7515 5.29758 97.121 5.41856 97.4757 5.57102C97.8336 5.72348 98.1535 5.91572 98.4352 6.14773C98.7202 6.37973 98.9456 6.6598 99.1113 6.98793C99.277 7.31605 99.3599 7.70052 99.3599 8.14134C99.3599 8.73793 99.2074 9.26326 98.9025 9.71733C98.5976 10.1681 98.1568 10.5211 97.5801 10.7763C97.0067 11.0282 96.3123 11.1541 95.497 11.1541C94.7048 11.1541 94.0171 11.0315 93.4338 10.7862C92.8538 10.541 92.3997 10.183 92.0716 9.71236C91.7467 9.24171 91.5711 8.66832 91.5446 7.99219H93.3592C93.3857 8.34683 93.4951 8.64181 93.6873 8.87713C93.8796 9.11245 94.1298 9.28812 94.438 9.40412C94.7496 9.52012 95.0976 9.57812 95.4821 9.57812C95.8831 9.57812 96.2344 9.51847 96.536 9.39915C96.841 9.27652 97.0796 9.10748 97.252 8.89205C97.4243 8.6733 97.5121 8.41809 97.5154 8.12642C97.5121 7.86127 97.4342 7.64252 97.2818 7.47017C97.1293 7.29451 96.9155 7.14867 96.6404 7.03267C96.3687 6.91335 96.0505 6.80729 95.6859 6.71449L94.5275 6.41619C93.689 6.20076 93.0261 5.87429 92.5389 5.43679C92.055 4.99598 91.813 4.41098 91.813 3.68182C91.813 3.08191 91.9754 2.55658 92.3002 2.10582C92.6284 1.65507 93.0742 1.3054 93.6376 1.05682C94.2011 0.804924 94.8391 0.678977 95.5517 0.678977C96.2742 0.678977 96.9073 0.804924 97.4508 1.05682C97.9977 1.3054 98.4269 1.65175 98.7385 2.09588C99.05 2.53669 99.2108 3.0438 99.2207 3.61719H97.4458Z" fill="#255EA5"/>
<path d="M0.100784 13.7841H99.9963V14.7386H0.100784V13.7841Z" fill="#255EA5"/>
</svg>
