<svg width="32" height="32" viewBox="0 0 32 32" fill="none" xmlns="http://www.w3.org/2000/svg">
<rect width="32" height="32" rx="5" fill="#FFDFB9"/>
<g clip-path="url(#clip0_193_4203)">
<path d="M23.817 16.5539L22.0492 14.7861C21.932 14.6689 21.773 14.603 21.6072 14.603C21.4415 14.603 21.2825 14.6689 21.1653 14.7861L15.7633 20.1881C15.3256 20.6257 15.0301 21.1779 14.9087 21.7849L14.6152 23.2524C14.5742 23.4573 14.6384 23.6691 14.7861 23.8169C14.9045 23.9352 15.064 23.9999 15.2281 23.9999C15.2689 23.9999 15.3099 23.9959 15.3507 23.9878L16.8181 23.6943H16.8182C17.4251 23.5729 17.9773 23.2774 18.415 22.8397L23.817 17.4377C24.061 17.1937 24.061 16.798 23.817 16.5539ZM17.5311 21.9558C17.2685 22.2184 16.9372 22.3957 16.573 22.4686L16.0248 22.5782L16.1345 22.03C16.2073 21.6658 16.3846 21.3345 16.6472 21.0719L21.6072 16.1119L22.4911 16.9957L17.5311 21.9558Z" fill="#F38400"/>
<path d="M12.679 22.75H9.875C9.53038 22.75 9.25 22.4696 9.25 22.125V9.875C9.25 9.53038 9.53038 9.25 9.875 9.25H15.5V11.125C15.5 12.1589 16.3411 13 17.375 13H19.25V13.4251C19.25 13.7703 19.5298 14.0501 19.875 14.0501C20.2202 14.0501 20.5 13.7703 20.5 13.4251V12.375C20.5 12.2058 20.4286 12.0436 20.3166 11.9327L16.567 8.18306C16.4516 8.06775 16.2901 8 16.125 8H9.875C8.84113 8 8 8.84113 8 9.875V22.125C8 23.1589 8.84113 24 9.875 24H12.679C13.0242 24 13.304 23.7202 13.304 23.375C13.304 23.0298 13.0242 22.75 12.679 22.75ZM17.375 11.75C17.0304 11.75 16.75 11.4696 16.75 11.125V10.1339L18.3661 11.75H17.375Z" fill="#F38400"/>
<path d="M18 14.625C18 14.2798 17.7202 14 17.375 14H11.125C10.7798 14 10.5 14.2798 10.5 14.625C10.5 14.9702 10.7798 15.25 11.125 15.25H17.375C17.7202 15.25 18 14.9702 18 14.625Z" fill="#F38400"/>
<path d="M11.125 16.5C10.7798 16.5 10.5 16.7798 10.5 17.125C10.5 17.4702 10.7798 17.75 11.125 17.75H16.1751C16.5202 17.75 16.8001 17.4702 16.8001 17.125C16.8001 16.7798 16.5202 16.5 16.1751 16.5H11.125Z" fill="#F38400"/>
<path d="M13.8116 19H11.125C10.7798 19 10.5 19.2798 10.5 19.625C10.5 19.9702 10.7798 20.25 11.125 20.25H13.8116C14.1568 20.25 14.4366 19.9702 14.4366 19.625C14.4366 19.2798 14.1568 19 13.8116 19Z" fill="#F38400"/>
</g>
<defs>
<clipPath id="clip0_193_4203">
<rect width="16" height="16" fill="white" transform="translate(8 8)"/>
</clipPath>
</defs>
</svg>
