<svg width="334" height="340" viewBox="0 0 334 340" fill="none" xmlns="http://www.w3.org/2000/svg">
<rect width="334" height="340" rx="12" fill="white"/>
<path d="M34.7443 30.3636V42H32.6193L27.5568 34.6761H27.4716V42H25.0114V30.3636H27.1705L32.1932 37.6818H32.2955V30.3636H34.7443ZM40.8747 42.1705C39.9921 42.1705 39.2289 41.983 38.5849 41.608C37.9448 41.2292 37.4505 40.7027 37.102 40.0284C36.7535 39.3504 36.5793 38.5644 36.5793 37.6705C36.5793 36.7689 36.7535 35.9811 37.102 35.3068C37.4505 34.6288 37.9448 34.1023 38.5849 33.7273C39.2289 33.3485 39.9921 33.1591 40.8747 33.1591C41.7573 33.1591 42.5187 33.3485 43.1588 33.7273C43.8027 34.1023 44.299 34.6288 44.6474 35.3068C44.9959 35.9811 45.1702 36.7689 45.1702 37.6705C45.1702 38.5644 44.9959 39.3504 44.6474 40.0284C44.299 40.7027 43.8027 41.2292 43.1588 41.608C42.5187 41.983 41.7573 42.1705 40.8747 42.1705ZM40.8861 40.2955C41.2876 40.2955 41.6228 40.1818 41.8918 39.9545C42.1607 39.7235 42.3634 39.4091 42.4997 39.0114C42.6399 38.6136 42.7099 38.161 42.7099 37.6534C42.7099 37.1458 42.6399 36.6932 42.4997 36.2955C42.3634 35.8977 42.1607 35.5833 41.8918 35.3523C41.6228 35.1212 41.2876 35.0057 40.8861 35.0057C40.4808 35.0057 40.1399 35.1212 39.8634 35.3523C39.5906 35.5833 39.3842 35.8977 39.244 36.2955C39.1077 36.6932 39.0395 37.1458 39.0395 37.6534C39.0395 38.161 39.1077 38.6136 39.244 39.0114C39.3842 39.4091 39.5906 39.7235 39.8634 39.9545C40.1399 40.1818 40.4808 40.2955 40.8861 40.2955ZM54.7991 33.2727L51.748 42H49.0207L45.9696 33.2727H48.5264L50.3389 39.517H50.4298L52.2366 33.2727H54.7991ZM59.9338 42.1705C59.0361 42.1705 58.2634 41.9886 57.6156 41.625C56.9717 41.2576 56.4755 40.7386 56.127 40.0682C55.7785 39.3939 55.6043 38.5966 55.6043 37.6761C55.6043 36.7784 55.7785 35.9905 56.127 35.3125C56.4755 34.6345 56.966 34.1061 57.5986 33.7273C58.2349 33.3485 58.9812 33.1591 59.8372 33.1591C60.413 33.1591 60.949 33.2519 61.4452 33.4375C61.9452 33.6193 62.3808 33.8939 62.752 34.2614C63.127 34.6288 63.4187 35.0909 63.627 35.6477C63.8353 36.2008 63.9395 36.8485 63.9395 37.5909V38.2557H56.5702V36.7557H61.6611C61.6611 36.4072 61.5853 36.0985 61.4338 35.8295C61.2823 35.5606 61.0721 35.3504 60.8031 35.1989C60.538 35.0436 60.2293 34.9659 59.877 34.9659C59.5096 34.9659 59.1838 35.0511 58.8997 35.2216C58.6194 35.3883 58.3997 35.6136 58.2406 35.8977C58.0815 36.178 58.0001 36.4905 57.9963 36.8352V38.2614C57.9963 38.6932 58.0759 39.0663 58.2349 39.3807C58.3978 39.6951 58.627 39.9375 58.9224 40.108C59.2179 40.2784 59.5683 40.3636 59.9736 40.3636C60.2425 40.3636 60.4887 40.3258 60.7122 40.25C60.9357 40.1742 61.127 40.0606 61.2861 39.9091C61.4452 39.7576 61.5664 39.572 61.6497 39.3523L63.8884 39.5C63.7747 40.0379 63.5418 40.5076 63.1895 40.9091C62.841 41.3068 62.3902 41.6174 61.8372 41.8409C61.288 42.0606 60.6535 42.1705 59.9338 42.1705ZM65.719 42V33.2727H68.0259V34.8125H68.1281C68.3099 34.3011 68.613 33.8977 69.0372 33.6023C69.4615 33.3068 69.969 33.1591 70.5599 33.1591C71.1584 33.1591 71.6679 33.3087 72.0884 33.608C72.5088 33.9034 72.7891 34.3049 72.9293 34.8125H73.0202C73.1982 34.3125 73.5202 33.9129 73.9861 33.6136C74.4558 33.3106 75.0107 33.1591 75.6509 33.1591C76.4652 33.1591 77.1262 33.4186 77.6338 33.9375C78.1452 34.4527 78.4009 35.1837 78.4009 36.1307V42H75.9861V36.608C75.9861 36.1231 75.8573 35.7595 75.5997 35.517C75.3421 35.2746 75.0202 35.1534 74.6338 35.1534C74.1944 35.1534 73.8516 35.2936 73.6054 35.5739C73.3592 35.8504 73.2361 36.2159 73.2361 36.6705V42H70.8895V36.5568C70.8895 36.1288 70.7664 35.7879 70.5202 35.5341C70.2777 35.2803 69.9577 35.1534 69.5599 35.1534C69.291 35.1534 69.0486 35.2216 68.8327 35.358C68.6205 35.4905 68.452 35.678 68.327 35.9205C68.202 36.1591 68.1395 36.4394 68.1395 36.7614V42H65.719ZM80.5582 42V30.3636H82.9787V34.7386H83.0526C83.1586 34.5038 83.312 34.2652 83.5128 34.0227C83.7173 33.7765 83.9825 33.572 84.3082 33.4091C84.6378 33.2424 85.0469 33.1591 85.5355 33.1591C86.1719 33.1591 86.759 33.3258 87.2969 33.6591C87.8348 33.9886 88.2647 34.4867 88.5866 35.1534C88.9086 35.8163 89.0696 36.6477 89.0696 37.6477C89.0696 38.6212 88.9124 39.4432 88.598 40.1136C88.2874 40.7803 87.8632 41.286 87.3253 41.6307C86.7912 41.9716 86.1927 42.142 85.5298 42.142C85.0601 42.142 84.6605 42.0644 84.331 41.9091C84.0052 41.7538 83.7382 41.5587 83.5298 41.3239C83.3215 41.0852 83.1624 40.8447 83.0526 40.6023H82.9446V42H80.5582ZM82.9276 37.6364C82.9276 38.1553 82.9995 38.608 83.1435 38.9943C83.2874 39.3807 83.4957 39.6818 83.7685 39.8977C84.0412 40.1098 84.3726 40.2159 84.7628 40.2159C85.1567 40.2159 85.4901 40.108 85.7628 39.892C86.0355 39.6723 86.242 39.3693 86.3821 38.983C86.526 38.5928 86.598 38.1439 86.598 37.6364C86.598 37.1326 86.5279 36.6894 86.3878 36.3068C86.2476 35.9242 86.0412 35.625 85.7685 35.4091C85.4957 35.1932 85.1605 35.0852 84.7628 35.0852C84.3688 35.0852 84.0355 35.1894 83.7628 35.3977C83.4938 35.6061 83.2874 35.9015 83.1435 36.2841C82.9995 36.6667 82.9276 37.1174 82.9276 37.6364ZM94.8619 42.1705C93.9642 42.1705 93.1915 41.9886 92.5437 41.625C91.8998 41.2576 91.4036 40.7386 91.0551 40.0682C90.7066 39.3939 90.5324 38.5966 90.5324 37.6761C90.5324 36.7784 90.7066 35.9905 91.0551 35.3125C91.4036 34.6345 91.8941 34.1061 92.5267 33.7273C93.1631 33.3485 93.9093 33.1591 94.7653 33.1591C95.3411 33.1591 95.8771 33.2519 96.3733 33.4375C96.8733 33.6193 97.3089 33.8939 97.6801 34.2614C98.0551 34.6288 98.3468 35.0909 98.5551 35.6477C98.7634 36.2008 98.8676 36.8485 98.8676 37.5909V38.2557H91.4983V36.7557H96.5892C96.5892 36.4072 96.5134 36.0985 96.3619 35.8295C96.2104 35.5606 96.0002 35.3504 95.7312 35.1989C95.4661 35.0436 95.1574 34.9659 94.8051 34.9659C94.4377 34.9659 94.1119 35.0511 93.8278 35.2216C93.5475 35.3883 93.3278 35.6136 93.1687 35.8977C93.0097 36.178 92.9282 36.4905 92.9244 36.8352V38.2614C92.9244 38.6932 93.004 39.0663 93.1631 39.3807C93.3259 39.6951 93.5551 39.9375 93.8506 40.108C94.146 40.2784 94.4964 40.3636 94.9017 40.3636C95.1706 40.3636 95.4169 40.3258 95.6403 40.25C95.8638 40.1742 96.0551 40.0606 96.2142 39.9091C96.3733 39.7576 96.4945 39.572 96.5778 39.3523L98.8165 39.5C98.7028 40.0379 98.4699 40.5076 98.1176 40.9091C97.7691 41.3068 97.3184 41.6174 96.7653 41.8409C96.2161 42.0606 95.5816 42.1705 94.8619 42.1705ZM100.647 42V33.2727H102.994V34.7955H103.085C103.244 34.2538 103.511 33.8447 103.886 33.5682C104.261 33.2879 104.693 33.1477 105.181 33.1477C105.302 33.1477 105.433 33.1553 105.573 33.1705C105.713 33.1856 105.837 33.2064 105.943 33.233V35.3807C105.829 35.3466 105.672 35.3163 105.471 35.2898C105.27 35.2633 105.087 35.25 104.92 35.25C104.564 35.25 104.246 35.3277 103.965 35.483C103.689 35.6345 103.469 35.8466 103.306 36.1193C103.147 36.392 103.068 36.7064 103.068 37.0625V42H100.647ZM111.274 42V40.2273L115.416 36.392C115.769 36.0511 116.064 35.7443 116.303 35.4716C116.545 35.1989 116.729 34.9318 116.854 34.6705C116.979 34.4053 117.041 34.1193 117.041 33.8125C117.041 33.4716 116.964 33.178 116.809 32.9318C116.653 32.6818 116.441 32.4905 116.172 32.358C115.903 32.2216 115.598 32.1534 115.257 32.1534C114.901 32.1534 114.591 32.2254 114.326 32.3693C114.06 32.5133 113.856 32.7197 113.712 32.9886C113.568 33.2576 113.496 33.5777 113.496 33.9489H111.161C111.161 33.1875 111.333 32.5265 111.678 31.9659C112.023 31.4053 112.505 30.9716 113.127 30.6648C113.748 30.358 114.464 30.2045 115.274 30.2045C116.108 30.2045 116.833 30.3523 117.451 30.6477C118.072 30.9394 118.555 31.3447 118.899 31.8636C119.244 32.3826 119.416 32.9773 119.416 33.6477C119.416 34.0871 119.329 34.5208 119.155 34.9489C118.985 35.3769 118.68 35.8523 118.24 36.375C117.801 36.8939 117.182 37.517 116.382 38.2443L114.684 39.9091V39.9886H119.57V42H111.274ZM126.115 42.2557C125.138 42.2519 124.297 42.0114 123.592 41.5341C122.892 41.0568 122.352 40.3655 121.973 39.4602C121.598 38.5549 121.412 37.4659 121.416 36.1932C121.416 34.9242 121.604 33.8428 121.979 32.9489C122.357 32.0549 122.897 31.375 123.598 30.9091C124.303 30.4394 125.142 30.2045 126.115 30.2045C127.089 30.2045 127.926 30.4394 128.626 30.9091C129.331 31.3788 129.873 32.0606 130.251 32.9545C130.63 33.8447 130.818 34.9242 130.814 36.1932C130.814 37.4697 130.625 38.5606 130.246 39.4659C129.871 40.3712 129.333 41.0625 128.632 41.5398C127.931 42.017 127.092 42.2557 126.115 42.2557ZM126.115 40.2159C126.782 40.2159 127.314 39.8807 127.712 39.2102C128.109 38.5398 128.306 37.5341 128.303 36.1932C128.303 35.3106 128.212 34.5758 128.03 33.9886C127.852 33.4015 127.598 32.9602 127.268 32.6648C126.943 32.3693 126.558 32.2216 126.115 32.2216C125.452 32.2216 124.922 32.553 124.524 33.2159C124.126 33.8788 123.926 34.8712 123.922 36.1932C123.922 37.0871 124.011 37.8333 124.189 38.4318C124.371 39.0265 124.626 39.4735 124.956 39.7727C125.286 40.0682 125.672 40.2159 126.115 40.2159ZM132.768 42V40.2273L136.91 36.392C137.262 36.0511 137.558 35.7443 137.797 35.4716C138.039 35.1989 138.223 34.9318 138.348 34.6705C138.473 34.4053 138.535 34.1193 138.535 33.8125C138.535 33.4716 138.458 33.178 138.302 32.9318C138.147 32.6818 137.935 32.4905 137.666 32.358C137.397 32.2216 137.092 32.1534 136.751 32.1534C136.395 32.1534 136.084 32.2254 135.819 32.3693C135.554 32.5133 135.35 32.7197 135.206 32.9886C135.062 33.2576 134.99 33.5777 134.99 33.9489H132.655C132.655 33.1875 132.827 32.5265 133.172 31.9659C133.516 31.4053 133.999 30.9716 134.62 30.6648C135.242 30.358 135.958 30.2045 136.768 30.2045C137.602 30.2045 138.327 30.3523 138.944 30.6477C139.566 30.9394 140.048 31.3447 140.393 31.8636C140.738 32.3826 140.91 32.9773 140.91 33.6477C140.91 34.0871 140.823 34.5208 140.649 34.9489C140.478 35.3769 140.173 35.8523 139.734 36.375C139.295 36.8939 138.675 37.517 137.876 38.2443L136.177 39.9091V39.9886H141.064V42H132.768ZM148.109 30.3636V42H145.649V32.6989H145.58L142.916 34.3693V32.1875L145.796 30.3636H148.109Z" fill="#0F172A"/>
<path d="M278.5 41L273.5 36L278.5 31" stroke="#94A3B8" stroke-width="2" stroke-linecap="round" stroke-linejoin="round"/>
<path d="M301.5 31L306.5 36L301.5 41" stroke="#4EC7E6" stroke-width="2" stroke-linecap="round" stroke-linejoin="round"/>
<line x1="24.5" y1="63.5" x2="309.5" y2="63.5" stroke="#F1F5F9" stroke-linecap="round"/>
<path d="M35.7729 91.2727V100H37.29V93.9915H37.3709L39.7828 99.9744H40.9164L43.3283 94.0043H43.4093V100H44.9263V91.2727H42.9917L40.4007 97.5966H40.2985L37.7076 91.2727H35.7729ZM49.4348 100.128C51.3525 100.128 52.5712 98.777 52.5712 96.7528C52.5712 94.7244 51.3525 93.3693 49.4348 93.3693C47.5172 93.3693 46.2985 94.7244 46.2985 96.7528C46.2985 98.777 47.5172 100.128 49.4348 100.128ZM49.4434 98.892C48.3823 98.892 47.8624 97.946 47.8624 96.7486C47.8624 95.5511 48.3823 94.5923 49.4434 94.5923C50.4874 94.5923 51.0073 95.5511 51.0073 96.7486C51.0073 97.946 50.4874 98.892 49.4434 98.892Z" fill="#0F172A"/>
<path d="M78.3113 92.598H81.0087V100H82.5769V92.598H85.2743V91.2727H78.3113V92.598ZM89.8297 97.2472C89.8297 98.2443 89.1181 98.7386 88.4363 98.7386C87.6948 98.7386 87.2005 98.2145 87.2005 97.3835V93.4545H85.6578V97.6222C85.6578 99.1946 86.5527 100.085 87.8397 100.085C88.8198 100.085 89.5101 99.5696 89.8084 98.8366H89.8766V100H91.3723V93.4545H89.8297V97.2472Z" fill="#0F172A"/>
<path d="M119.434 100H120.993L122.745 93.8764H122.813L124.56 100H126.12L128.583 91.2727H126.883L125.31 97.6903H125.233L123.55 91.2727H122.003L120.324 97.6861H120.243L118.671 91.2727H116.971L119.434 100ZM131.841 100.128C133.366 100.128 134.415 99.3821 134.687 98.2443L133.247 98.0824C133.038 98.6364 132.527 98.9261 131.862 98.9261C130.865 98.9261 130.204 98.2699 130.192 97.1491H134.751V96.6761C134.751 94.3793 133.371 93.3693 131.76 93.3693C129.885 93.3693 128.662 94.7457 128.662 96.7656C128.662 98.8196 129.868 100.128 131.841 100.128ZM130.196 96.1094C130.243 95.2741 130.861 94.571 131.781 94.571C132.667 94.571 133.264 95.2188 133.273 96.1094H130.196Z" fill="#0F172A"/>
<path d="M159.837 92.598H162.534V100H164.102V92.598H166.8V91.2727H159.837V92.598ZM169.616 96.1648C169.616 95.2188 170.205 94.6733 171.031 94.6733C171.841 94.6733 172.318 95.1889 172.318 96.071V100H173.861V95.8324C173.861 94.2514 172.966 93.3693 171.607 93.3693C170.601 93.3693 169.962 93.8253 169.659 94.5668H169.582V91.2727H168.074V100H169.616V96.1648Z" fill="#0F172A"/>
<path d="M203.013 100H204.594V96.2926H208.221V94.9673H204.594V92.598H208.604V91.2727H203.013V100ZM209.882 100H211.425V96.152C211.425 95.321 212.051 94.733 212.9 94.733C213.159 94.733 213.483 94.7798 213.615 94.8224V93.4034C213.475 93.3778 213.232 93.3608 213.061 93.3608C212.311 93.3608 211.685 93.7869 211.446 94.5455H211.378V93.4545H209.882V100Z" fill="#0F172A"/>
<path d="M247.262 93.6719H248.783C248.753 92.1974 247.496 91.1534 245.638 91.1534C243.806 91.1534 242.43 92.1847 242.434 93.7273C242.434 94.9801 243.324 95.7003 244.76 96.071L245.753 96.3267C246.695 96.5653 247.317 96.8594 247.322 97.5369C247.317 98.2827 246.61 98.7812 245.579 98.7812C244.59 98.7812 243.823 98.3381 243.759 97.4219H242.204C242.268 99.1562 243.559 100.132 245.591 100.132C247.684 100.132 248.898 99.0881 248.903 97.5497C248.898 96.0369 247.65 95.3466 246.337 95.0355L245.519 94.831C244.803 94.6605 244.028 94.358 244.036 93.6293C244.04 92.973 244.628 92.4915 245.617 92.4915C246.559 92.4915 247.181 92.9304 247.262 93.6719ZM252.127 100.132C253.154 100.132 253.768 99.6506 254.049 99.1009H254.1V100H255.583V95.6193C255.583 93.8892 254.173 93.3693 252.924 93.3693C251.548 93.3693 250.491 93.983 250.15 95.1761L251.59 95.3807C251.744 94.9332 252.178 94.5497 252.933 94.5497C253.649 94.5497 254.041 94.9162 254.041 95.5597V95.5852C254.041 96.0284 253.576 96.0497 252.421 96.1733C251.151 96.3097 249.937 96.6889 249.937 98.1634C249.937 99.4503 250.879 100.132 252.127 100.132ZM252.528 98.9986C251.884 98.9986 251.424 98.7045 251.424 98.1378C251.424 97.5455 251.94 97.2983 252.63 97.2003C253.035 97.1449 253.845 97.0426 254.045 96.8807V97.652C254.045 98.3807 253.457 98.9986 252.528 98.9986Z" fill="#0F172A"/>
<path d="M288.057 93.6719H289.578C289.548 92.1974 288.291 91.1534 286.433 91.1534C284.601 91.1534 283.224 92.1847 283.229 93.7273C283.229 94.9801 284.119 95.7003 285.555 96.071L286.548 96.3267C287.49 96.5653 288.112 96.8594 288.116 97.5369C288.112 98.2827 287.405 98.7812 286.374 98.7812C285.385 98.7812 284.618 98.3381 284.554 97.4219H282.999C283.062 99.1562 284.354 100.132 286.386 100.132C288.479 100.132 289.693 99.0881 289.697 97.5497C289.693 96.0369 288.445 95.3466 287.132 95.0355L286.314 94.831C285.598 94.6605 284.822 94.358 284.831 93.6293C284.835 92.973 285.423 92.4915 286.412 92.4915C287.354 92.4915 287.976 92.9304 288.057 93.6719ZM295.211 97.2472C295.211 98.2443 294.499 98.7386 293.817 98.7386C293.076 98.7386 292.581 98.2145 292.581 97.3835V93.4545H291.039V97.6222C291.039 99.1946 291.934 100.085 293.221 100.085C294.201 100.085 294.891 99.5696 295.189 98.8366H295.257V100H296.753V93.4545H295.211V97.2472Z" fill="#0F172A"/>
<path d="M45.1825 131.273H44.1257L41.9439 132.722V133.795L44.0746 132.381H44.1257V140H45.1825V131.273Z" fill="#0F172A"/>
<path d="M82.2706 140H87.7763V139.062H83.7195V138.994L85.6797 136.898C87.1797 135.291 87.6229 134.541 87.6229 133.574C87.6229 132.227 86.532 131.153 84.9979 131.153C83.468 131.153 82.3047 132.193 82.3047 133.727H83.3104C83.3104 132.734 83.9538 132.074 84.9638 132.074C85.9098 132.074 86.6342 132.653 86.6342 133.574C86.6342 134.379 86.1612 134.976 85.1513 136.08L82.2706 139.233V140Z" fill="#0F172A"/>
<path d="M126.032 140.119C127.724 140.119 128.981 139.058 128.981 137.631C128.981 136.523 128.325 135.717 127.225 135.534V135.466C128.107 135.197 128.657 134.473 128.657 133.489C128.657 132.253 127.681 131.153 126.066 131.153C124.558 131.153 123.305 132.082 123.254 133.455H124.276C124.315 132.585 125.141 132.074 126.049 132.074C127.012 132.074 127.634 132.658 127.634 133.54C127.634 134.46 126.914 135.057 125.879 135.057H125.18V135.994H125.879C127.204 135.994 127.941 136.668 127.941 137.631C127.941 138.555 127.136 139.182 126.015 139.182C125.005 139.182 124.204 138.662 124.14 137.818H123.066C123.13 139.19 124.34 140.119 126.032 140.119Z" fill="#0F172A"/>
<path d="M163.849 138.21H167.957V140H168.963V138.21H170.156V137.273H168.963V131.273H167.684L163.849 137.341V138.21ZM167.957 137.273H164.991V137.205L167.889 132.619H167.957V137.273Z" fill="#0F172A"/>
<path d="M207.98 140.119C207.48 140.119 207.03 140.02 206.629 139.821C206.229 139.622 205.908 139.349 205.666 139.003C205.425 138.656 205.293 138.261 205.27 137.818H206.293C206.333 138.213 206.512 138.54 206.83 138.798C207.151 139.054 207.534 139.182 207.98 139.182C208.338 139.182 208.656 139.098 208.935 138.93C209.216 138.763 209.436 138.533 209.595 138.24C209.757 137.945 209.838 137.611 209.838 137.239C209.838 136.858 209.754 136.518 209.587 136.22C209.422 135.919 209.195 135.682 208.905 135.509C208.615 135.335 208.284 135.247 207.912 135.244C207.645 135.241 207.371 135.283 207.09 135.368C206.808 135.45 206.577 135.557 206.395 135.688L205.406 135.568L205.935 131.273H210.469V132.21H206.821L206.514 134.784H206.566C206.744 134.642 206.969 134.524 207.239 134.43C207.509 134.337 207.79 134.29 208.083 134.29C208.617 134.29 209.093 134.418 209.51 134.673C209.931 134.926 210.26 135.273 210.499 135.713C210.74 136.153 210.861 136.656 210.861 137.222C210.861 137.778 210.736 138.276 210.486 138.713C210.239 139.148 209.898 139.491 209.463 139.744C209.029 139.994 208.534 140.119 207.98 140.119Z" fill="#0F172A"/>
<path d="M249.057 140.119C250.821 140.141 251.972 138.811 251.972 137.188C251.972 135.5 250.723 134.29 249.227 134.29C248.328 134.29 247.557 134.729 247.08 135.449H247.012C247.016 133.322 247.843 132.091 249.193 132.091C250.114 132.091 250.668 132.67 250.864 133.455H251.904C251.691 132.099 250.659 131.153 249.193 131.153C247.229 131.153 246.023 132.892 246.023 135.977C246.023 139.203 247.625 140.102 249.057 140.119ZM249.057 139.182C247.962 139.182 247.161 138.249 247.165 137.205C247.169 136.161 248.009 135.227 249.091 135.227C250.161 135.227 250.949 136.105 250.949 137.188C250.949 138.295 250.127 139.182 249.057 139.182Z" fill="#0F172A"/>
<path d="M287.748 140H288.856L292.743 132.261V131.273H287.152V132.21H291.652V132.278L287.748 140Z" fill="#0F172A"/>
<path d="M44.0016 180.119C45.7445 180.119 46.959 179.101 46.9675 177.682C46.959 176.578 46.2218 175.641 45.28 175.466V175.415C46.0982 175.202 46.6351 174.401 46.6436 173.472C46.6351 172.142 45.5186 171.153 44.0016 171.153C42.4675 171.153 41.351 172.142 41.3596 173.472C41.351 174.401 41.888 175.202 42.7232 175.415V175.466C41.7644 175.641 41.0272 176.578 41.0357 177.682C41.0272 179.101 42.2417 180.119 44.0016 180.119ZM44.0016 179.182C42.8042 179.182 42.0669 178.568 42.0755 177.631C42.0669 176.646 42.8809 175.943 44.0016 175.943C45.1053 175.943 45.9192 176.646 45.9277 177.631C45.9192 178.568 45.182 179.182 44.0016 179.182ZM44.0016 175.04C43.0471 175.04 42.3738 174.443 42.3823 173.54C42.3738 172.653 43.0215 172.074 44.0016 172.074C44.9647 172.074 45.6124 172.653 45.6209 173.54C45.6124 174.443 44.9391 175.04 44.0016 175.04Z" fill="#0F172A"/>
<path d="M84.9377 171.153C83.165 171.132 82.0229 172.466 82.0229 174.068C82.0229 175.756 83.2672 176.966 84.7672 176.966C85.6706 176.966 86.4377 176.523 86.915 175.807H86.9831C86.9831 177.955 86.1479 179.182 84.8013 179.182C83.8809 179.182 83.3184 178.602 83.1309 177.801H82.0911C82.2956 179.182 83.3354 180.119 84.8013 180.119C86.7615 180.119 87.9718 178.381 87.9718 175.278C87.9718 172.074 86.3695 171.17 84.9377 171.153ZM84.9377 172.091C86.0286 172.091 86.8297 173.028 86.8297 174.051C86.8297 175.091 85.9775 176.028 84.9036 176.028C83.8297 176.028 83.0456 175.159 83.0456 174.068C83.0456 172.977 83.8638 172.091 84.9377 172.091Z" fill="#0F172A"/>
<path d="M123.433 171.273H122.376L120.194 172.722V173.795L122.325 172.381H122.376V180H123.433V171.273ZM128.789 180.119C130.715 180.119 131.823 178.487 131.823 175.636C131.823 172.807 130.698 171.153 128.789 171.153C126.88 171.153 125.755 172.807 125.755 175.636C125.755 178.487 126.863 180.119 128.789 180.119ZM128.789 179.182C127.519 179.182 126.778 177.908 126.778 175.636C126.778 173.369 127.528 172.074 128.789 172.074C130.05 172.074 130.8 173.369 130.8 175.636C130.8 177.908 130.059 179.182 128.789 179.182Z" fill="#0F172A"/>
<path d="M165.393 171.273V180H164.337V172.381H164.286L162.155 173.795V172.722L164.337 171.273H165.393ZM170.972 171.273V180H169.915V172.381H169.864L167.733 173.795V172.722L169.915 171.273H170.972Z" fill="#0F172A"/>
<path d="M205.55 171.273H204.493L202.311 172.722V173.795L204.442 172.381H204.493V180H205.55V171.273ZM208.06 180H213.565V179.062H209.509V178.994L211.469 176.898C212.969 175.291 213.412 174.541 213.412 173.574C213.412 172.227 212.321 171.153 210.787 171.153C209.257 171.153 208.094 172.193 208.094 173.727H209.099C209.099 172.734 209.743 172.074 210.753 172.074C211.699 172.074 212.423 172.653 212.423 173.574C212.423 174.379 211.95 174.976 210.94 176.08L208.06 179.233V180Z" fill="#0F172A"/>
<path d="M246.362 171.273H245.305L243.124 172.722V173.795L245.254 172.381H245.305V180H246.362V171.273ZM251.821 180.119C253.513 180.119 254.77 179.058 254.77 177.631C254.77 176.523 254.114 175.717 253.014 175.534V175.466C253.896 175.197 254.446 174.473 254.446 173.489C254.446 172.253 253.47 171.153 251.855 171.153C250.347 171.153 249.094 172.082 249.043 173.455H250.065C250.104 172.585 250.93 172.074 251.838 172.074C252.801 172.074 253.423 172.658 253.423 173.54C253.423 174.46 252.703 175.057 251.668 175.057H250.969V175.994H251.668C252.993 175.994 253.73 176.668 253.73 177.631C253.73 178.555 252.925 179.182 251.804 179.182C250.794 179.182 249.993 178.662 249.929 177.818H248.855C248.919 179.19 250.129 180.119 251.821 180.119Z" fill="#0F172A"/>
<path d="M287.333 171.273H286.276L284.094 172.722V173.795L286.225 172.381H286.276V180H287.333V171.273ZM289.638 178.21H293.746V180H294.752V178.21H295.945V177.273H294.752V171.273H293.474L289.638 177.341V178.21ZM293.746 177.273H290.78V177.205L293.678 172.619H293.746V177.273Z" fill="#0F172A"/>
<path d="M41.5321 211.273H40.4753L38.2935 212.722V213.795L40.4242 212.381H40.4753V220H41.5321V211.273ZM46.7694 220.119C48.4313 220.119 49.65 218.892 49.65 217.222C49.65 215.53 48.4739 214.29 46.8716 214.29C46.2836 214.29 45.7125 214.499 45.3546 214.784H45.3034L45.6103 212.21H49.258V211.273H44.7239L44.1955 215.568L45.1841 215.688C45.5463 215.428 46.1642 215.24 46.7012 215.244C47.8134 215.253 48.6273 216.097 48.6273 217.239C48.6273 218.359 47.8432 219.182 46.7694 219.182C45.8745 219.182 45.1628 218.607 45.0819 217.818H44.0591C44.123 219.148 45.2694 220.119 46.7694 220.119Z" fill="#0F172A"/>
<path d="M82.4384 211.273H81.3816L79.1998 212.722V213.795L81.3304 212.381H81.3816V220H82.4384V211.273ZM87.8461 220.119C89.6103 220.141 90.7608 218.811 90.7608 217.188C90.7608 215.5 89.5123 214.29 88.0165 214.29C87.1174 214.29 86.3461 214.729 85.8688 215.449H85.8006C85.8049 213.322 86.6316 212.091 87.9824 212.091C88.9029 212.091 89.4569 212.67 89.6529 213.455H90.6926C90.4796 212.099 89.4483 211.153 87.9824 211.153C86.0179 211.153 84.812 212.892 84.812 215.977C84.812 219.203 86.4142 220.102 87.8461 220.119ZM87.8461 219.182C86.7509 219.182 85.9498 218.249 85.954 217.205C85.9583 216.161 86.7978 215.227 87.8801 215.227C88.9498 215.227 89.7381 216.105 89.7381 217.188C89.7381 218.295 88.9157 219.182 87.8461 219.182Z" fill="#0F172A"/>
<path d="M123.755 211.273H122.698L120.516 212.722V213.795L122.647 212.381H122.698V220H123.755V211.273ZM126.537 220H127.645L131.532 212.261V211.273H125.941V212.21H130.441V212.278L126.537 220Z" fill="#0F172A"/>
<path d="M164.485 211.273H163.428L161.247 212.722V213.795L163.377 212.381H163.428V220H164.485V211.273ZM169.791 220.119C171.534 220.119 172.748 219.101 172.757 217.682C172.748 216.578 172.011 215.641 171.069 215.466V215.415C171.887 215.202 172.424 214.401 172.433 213.472C172.424 212.142 171.308 211.153 169.791 211.153C168.257 211.153 167.14 212.142 167.149 213.472C167.14 214.401 167.677 215.202 168.512 215.415V215.466C167.553 215.641 166.816 216.578 166.825 217.682C166.816 219.101 168.031 220.119 169.791 220.119ZM169.791 219.182C168.593 219.182 167.856 218.568 167.865 217.631C167.856 216.646 168.67 215.943 169.791 215.943C170.894 215.943 171.708 216.646 171.717 217.631C171.708 218.568 170.971 219.182 169.791 219.182ZM169.791 215.04C168.836 215.04 168.163 214.443 168.171 213.54C168.163 212.653 168.811 212.074 169.791 212.074C170.754 212.074 171.401 212.653 171.41 213.54C171.401 214.443 170.728 215.04 169.791 215.04Z" fill="#0F172A"/>
<path d="M205.438 211.273H204.382L202.2 212.722V213.795L204.33 212.381H204.382V220H205.438V211.273ZM210.727 211.153C208.954 211.132 207.812 212.466 207.812 214.068C207.812 215.756 209.056 216.966 210.556 216.966C211.46 216.966 212.227 216.523 212.704 215.807H212.772C212.772 217.955 211.937 219.182 210.59 219.182C209.67 219.182 209.107 218.602 208.92 217.801H207.88C208.085 219.182 209.124 220.119 210.59 220.119C212.551 220.119 213.761 218.381 213.761 215.278C213.761 212.074 212.159 211.17 210.727 211.153ZM210.727 212.091C211.818 212.091 212.619 213.028 212.619 214.051C212.619 215.091 211.767 216.028 210.693 216.028C209.619 216.028 208.835 215.159 208.835 214.068C208.835 212.977 209.653 212.091 210.727 212.091Z" fill="#0F172A"/>
<path d="M242.521 220H248.026V219.062H243.969V218.994L245.93 216.898C247.43 215.291 247.873 214.541 247.873 213.574C247.873 212.227 246.782 211.153 245.248 211.153C243.718 211.153 242.555 212.193 242.555 213.727H243.56C243.56 212.734 244.204 212.074 245.214 212.074C246.16 212.074 246.884 212.653 246.884 213.574C246.884 214.379 246.411 214.976 245.401 216.08L242.521 219.233V220ZM252.633 220.119C254.559 220.119 255.667 218.487 255.667 215.636C255.667 212.807 254.542 211.153 252.633 211.153C250.724 211.153 249.599 212.807 249.599 215.636C249.599 218.487 250.707 220.119 252.633 220.119ZM252.633 219.182C251.363 219.182 250.621 217.908 250.621 215.636C250.621 213.369 251.371 212.074 252.633 212.074C253.894 212.074 254.644 213.369 254.644 215.636C254.644 217.908 253.903 219.182 252.633 219.182Z" fill="#0F172A"/>
<path d="M284.482 220H289.987V219.062H285.93V218.994L287.891 216.898C289.391 215.291 289.834 214.541 289.834 213.574C289.834 212.227 288.743 211.153 287.209 211.153C285.679 211.153 284.516 212.193 284.516 213.727H285.521C285.521 212.734 286.165 212.074 287.175 212.074C288.121 212.074 288.845 212.653 288.845 213.574C288.845 214.379 288.372 214.976 287.362 216.08L284.482 219.233V220ZM294.815 211.273H293.759L291.577 212.722V213.795L293.707 212.381H293.759V220H294.815V211.273Z" fill="#0F172A"/>
<path d="M37.6378 260H43.1435V259.062H39.0866V258.994L41.0469 256.898C42.5469 255.291 42.9901 254.541 42.9901 253.574C42.9901 252.227 41.8991 251.153 40.3651 251.153C38.8352 251.153 37.6719 252.193 37.6719 253.727H38.6776C38.6776 252.734 39.321 252.074 40.331 252.074C41.277 252.074 42.0014 252.653 42.0014 253.574C42.0014 254.379 41.5284 254.976 40.5185 256.08L37.6378 259.233V260ZM44.9034 260H50.4091V259.062H46.3523V258.994L48.3125 256.898C49.8125 255.291 50.2557 254.541 50.2557 253.574C50.2557 252.227 49.1648 251.153 47.6307 251.153C46.1009 251.153 44.9375 252.193 44.9375 253.727H45.9432C45.9432 252.734 46.5866 252.074 47.5966 252.074C48.5426 252.074 49.267 252.653 49.267 253.574C49.267 254.379 48.794 254.976 47.7841 256.08L44.9034 259.233V260Z" fill="#0F172A"/>
<g filter="url(#filter0_d_191_1826)">
<rect x="65" y="236" width="40" height="40" rx="20" fill="#4EC7E6" shape-rendering="crispEdges"/>
<path d="M77.973 260H84.1946V258.491H80.5298V258.432L81.804 257.183C83.598 255.547 84.0795 254.729 84.0795 253.736C84.0795 252.223 82.8438 251.153 80.973 251.153C79.1406 251.153 77.8835 252.249 77.8878 253.962H79.6392C79.6349 253.126 80.1634 252.615 80.9602 252.615C81.7273 252.615 82.2983 253.092 82.2983 253.859C82.2983 254.554 81.8722 255.031 81.0795 255.794L77.973 258.67V260ZM88.7575 260.119C90.7177 260.119 92.1197 259.041 92.1154 257.55C92.1197 256.463 91.4293 255.688 90.1467 255.526V255.457C91.1225 255.283 91.7958 254.592 91.7915 253.612C91.7958 252.236 90.5898 251.153 88.783 251.153C86.9933 251.153 85.6467 252.202 85.6211 253.71H87.3896C87.4109 253.045 88.0202 252.615 88.7745 252.615C89.5202 252.615 90.0188 253.067 90.0146 253.723C90.0188 254.409 89.435 254.874 88.5955 254.874H87.7816V256.229H88.5955C89.5842 256.229 90.2021 256.723 90.1978 257.426C90.2021 258.121 89.6055 258.598 88.7617 258.598C87.9478 258.598 87.3384 258.172 87.3043 257.533H85.4464C85.4762 259.058 86.8398 260.119 88.7575 260.119Z" fill="white"/>
</g>
<path d="M119.515 260H125.02V259.062H120.964V258.994L122.924 256.898C124.424 255.291 124.867 254.541 124.867 253.574C124.867 252.227 123.776 251.153 122.242 251.153C120.712 251.153 119.549 252.193 119.549 253.727H120.555C120.555 252.734 121.198 252.074 122.208 252.074C123.154 252.074 123.878 252.653 123.878 253.574C123.878 254.379 123.405 254.976 122.395 256.08L119.515 259.233V260ZM126.388 258.21H130.496V260H131.502V258.21H132.695V257.273H131.502V251.273H130.224L126.388 257.341V258.21ZM130.496 257.273H127.53V257.205L130.428 252.619H130.496V257.273Z" fill="#0F172A"/>
<path d="M160.62 260H166.126V259.062H162.069V258.994L164.029 256.898C165.529 255.291 165.972 254.541 165.972 253.574C165.972 252.227 164.882 251.153 163.347 251.153C161.818 251.153 160.654 252.193 160.654 253.727H161.66C161.66 252.734 162.303 252.074 163.313 252.074C164.259 252.074 164.984 252.653 164.984 253.574C164.984 254.379 164.511 254.976 163.501 256.08L160.62 259.233V260ZM170.613 260.119C172.275 260.119 173.494 258.892 173.494 257.222C173.494 255.53 172.318 254.29 170.715 254.29C170.127 254.29 169.556 254.499 169.198 254.784H169.147L169.454 252.21H173.102V251.273H168.568L168.039 255.568L169.028 255.688C169.39 255.428 170.008 255.24 170.545 255.244C171.657 255.253 172.471 256.097 172.471 257.239C172.471 258.359 171.687 259.182 170.613 259.182C169.718 259.182 169.007 258.607 168.926 257.818H167.903C167.967 259.148 169.113 260.119 170.613 260.119Z" fill="#0F172A"/>
<path d="M201.526 260H207.032V259.062H202.975V258.994L204.936 256.898C206.436 255.291 206.879 254.541 206.879 253.574C206.879 252.227 205.788 251.153 204.254 251.153C202.724 251.153 201.561 252.193 201.561 253.727H202.566C202.566 252.734 203.21 252.074 204.22 252.074C205.166 252.074 205.89 252.653 205.89 253.574C205.89 254.379 205.417 254.976 204.407 256.08L201.526 259.233V260ZM211.69 260.119C213.454 260.141 214.605 258.811 214.605 257.188C214.605 255.5 213.356 254.29 211.86 254.29C210.961 254.29 210.19 254.729 209.713 255.449H209.644C209.649 253.322 210.475 252.091 211.826 252.091C212.747 252.091 213.301 252.67 213.497 253.455H214.536C214.323 252.099 213.292 251.153 211.826 251.153C209.862 251.153 208.656 252.892 208.656 255.977C208.656 259.203 210.258 260.102 211.69 260.119ZM211.69 259.182C210.595 259.182 209.794 258.249 209.798 257.205C209.802 256.161 210.642 255.227 211.724 255.227C212.794 255.227 213.582 256.105 213.582 257.188C213.582 258.295 212.759 259.182 211.69 259.182Z" fill="#0F172A"/>
<path d="M242.843 260H248.349V259.062H244.292V258.994L246.252 256.898C247.752 255.291 248.195 254.541 248.195 253.574C248.195 252.227 247.104 251.153 245.57 251.153C244.04 251.153 242.877 252.193 242.877 253.727H243.883C243.883 252.734 244.526 252.074 245.536 252.074C246.482 252.074 247.206 252.653 247.206 253.574C247.206 254.379 246.733 254.976 245.724 256.08L242.843 259.233V260ZM250.381 260H251.489L255.376 252.261V251.273H249.785V252.21H254.285V252.278L250.381 260Z" fill="#0F172A"/>
<path d="M283.573 260H289.079V259.062H285.022V258.994L286.982 256.898C288.482 255.291 288.926 254.541 288.926 253.574C288.926 252.227 287.835 251.153 286.301 251.153C284.771 251.153 283.607 252.193 283.607 253.727H284.613C284.613 252.734 285.257 252.074 286.267 252.074C287.213 252.074 287.937 252.653 287.937 253.574C287.937 254.379 287.464 254.976 286.454 256.08L283.573 259.233V260ZM293.634 260.119C295.377 260.119 296.592 259.101 296.6 257.682C296.592 256.578 295.855 255.641 294.913 255.466V255.415C295.731 255.202 296.268 254.401 296.276 253.472C296.268 252.142 295.151 251.153 293.634 251.153C292.1 251.153 290.984 252.142 290.992 253.472C290.984 254.401 291.521 255.202 292.356 255.415V255.466C291.397 255.641 290.66 256.578 290.669 257.682C290.66 259.101 291.874 260.119 293.634 260.119ZM293.634 259.182C292.437 259.182 291.7 258.568 291.708 257.631C291.7 256.646 292.514 255.943 293.634 255.943C294.738 255.943 295.552 256.646 295.561 257.631C295.552 258.568 294.815 259.182 293.634 259.182ZM293.634 255.04C292.68 255.04 292.007 254.443 292.015 253.54C292.007 252.653 292.654 252.074 293.634 252.074C294.597 252.074 295.245 252.653 295.254 253.54C295.245 254.443 294.572 255.04 293.634 255.04Z" fill="#0F172A"/>
<path d="M37.5265 300H43.0321V299.062H38.9753V298.994L40.9355 296.898C42.4355 295.291 42.8787 294.541 42.8787 293.574C42.8787 292.227 41.7878 291.153 40.2537 291.153C38.7239 291.153 37.5605 292.193 37.5605 293.727H38.5662C38.5662 292.734 39.2097 292.074 40.2196 292.074C41.1657 292.074 41.8901 292.653 41.8901 293.574C41.8901 294.379 41.4171 294.976 40.4071 296.08L37.5265 299.233V300ZM47.5705 291.153C45.7978 291.132 44.6557 292.466 44.6557 294.068C44.6557 295.756 45.9 296.966 47.4 296.966C48.3034 296.966 49.0705 296.523 49.5478 295.807H49.6159C49.6159 297.955 48.7807 299.182 47.4341 299.182C46.5137 299.182 45.9512 298.602 45.7637 297.801H44.7239C44.9284 299.182 45.9682 300.119 47.4341 300.119C49.3944 300.119 50.6046 298.381 50.6046 295.278C50.6046 292.074 49.0023 291.17 47.5705 291.153ZM47.5705 292.091C48.6614 292.091 49.4625 293.028 49.4625 294.051C49.4625 295.091 48.6103 296.028 47.5364 296.028C46.4625 296.028 45.6784 295.159 45.6784 294.068C45.6784 292.977 46.4966 292.091 47.5705 292.091Z" fill="#0F172A"/>
<path d="M81.282 300.119C82.9737 300.119 84.2308 299.058 84.2308 297.631C84.2308 296.523 83.5746 295.717 82.4751 295.534V295.466C83.3572 295.197 83.907 294.473 83.907 293.489C83.907 292.253 82.9311 291.153 81.3161 291.153C79.8075 291.153 78.5547 292.082 78.5036 293.455H79.5263C79.5646 292.585 80.3913 292.074 81.299 292.074C82.2621 292.074 82.8842 292.658 82.8842 293.54C82.8842 294.46 82.1641 295.057 81.1286 295.057H80.4297V295.994H81.1286C82.4538 295.994 83.1911 296.668 83.1911 297.631C83.1911 298.555 82.3857 299.182 81.2649 299.182C80.255 299.182 79.4538 298.662 79.3899 297.818H78.3161C78.38 299.19 79.5902 300.119 81.282 300.119ZM88.8203 300.119C90.7464 300.119 91.8544 298.487 91.8544 295.636C91.8544 292.807 90.7294 291.153 88.8203 291.153C86.9112 291.153 85.7862 292.807 85.7862 295.636C85.7862 298.487 86.8942 300.119 88.8203 300.119ZM88.8203 299.182C87.5504 299.182 86.8089 297.908 86.8089 295.636C86.8089 293.369 87.5589 292.074 88.8203 292.074C90.0817 292.074 90.8317 293.369 90.8317 295.636C90.8317 297.908 90.0902 299.182 88.8203 299.182Z" fill="#0F172A"/>
<path d="M127.183 291.273H126.126L123.944 292.722V293.795L126.075 292.381H126.126V300H127.183V291.273Z" fill="#94A3B8"/>
<path d="M164.271 300H169.776V299.062H165.719V298.994L167.68 296.898C169.18 295.291 169.623 294.541 169.623 293.574C169.623 292.227 168.532 291.153 166.998 291.153C165.468 291.153 164.305 292.193 164.305 293.727H165.31C165.31 292.734 165.954 292.074 166.964 292.074C167.91 292.074 168.634 292.653 168.634 293.574C168.634 294.379 168.161 294.976 167.151 296.08L164.271 299.233V300Z" fill="#94A3B8"/>
<path d="M208.032 300.119C209.724 300.119 210.981 299.058 210.981 297.631C210.981 296.523 210.325 295.717 209.225 295.534V295.466C210.107 295.197 210.657 294.473 210.657 293.489C210.657 292.253 209.681 291.153 208.066 291.153C206.558 291.153 205.305 292.082 205.254 293.455H206.276C206.315 292.585 207.141 292.074 208.049 292.074C209.012 292.074 209.634 292.658 209.634 293.54C209.634 294.46 208.914 295.057 207.879 295.057H207.18V295.994H207.879C209.204 295.994 209.941 296.668 209.941 297.631C209.941 298.555 209.136 299.182 208.015 299.182C207.005 299.182 206.204 298.662 206.14 297.818H205.066C205.13 299.19 206.34 300.119 208.032 300.119Z" fill="#94A3B8"/>
<path d="M245.849 298.21H249.957V300H250.963V298.21H252.156V297.273H250.963V291.273H249.684L245.849 297.341V298.21ZM249.957 297.273H246.991V297.205L249.889 292.619H249.957V297.273Z" fill="#94A3B8"/>
<path d="M289.98 300.119C291.642 300.119 292.861 298.892 292.861 297.222C292.861 295.53 291.685 294.29 290.083 294.29C289.494 294.29 288.923 294.499 288.566 294.784H288.514L288.821 292.21H292.469V291.273H287.935L287.406 295.568L288.395 295.688C288.757 295.428 289.375 295.24 289.912 295.244C291.024 295.253 291.838 296.097 291.838 297.239C291.838 298.359 291.054 299.182 289.98 299.182C289.085 299.182 288.374 298.607 288.293 297.818H287.27C287.334 299.148 288.48 300.119 289.98 300.119Z" fill="#94A3B8"/>
<defs>
<filter id="filter0_d_191_1826" x="51" y="226" width="76" height="76" filterUnits="userSpaceOnUse" color-interpolation-filters="sRGB">
<feFlood flood-opacity="0" result="BackgroundImageFix"/>
<feColorMatrix in="SourceAlpha" type="matrix" values="0 0 0 0 0 0 0 0 0 0 0 0 0 0 0 0 0 0 127 0" result="hardAlpha"/>
<feOffset dx="4" dy="8"/>
<feGaussianBlur stdDeviation="9"/>
<feComposite in2="hardAlpha" operator="out"/>
<feColorMatrix type="matrix" values="0 0 0 0 0.145098 0 0 0 0 0.388235 0 0 0 0 0.921569 0 0 0 0.3 0"/>
<feBlend mode="normal" in2="BackgroundImageFix" result="effect1_dropShadow_191_1826"/>
<feBlend mode="normal" in="SourceGraphic" in2="effect1_dropShadow_191_1826" result="shape"/>
</filter>
</defs>
</svg>
