<svg width="32" height="32" viewBox="0 0 32 32" fill="none" xmlns="http://www.w3.org/2000/svg">
<rect width="32" height="32" rx="5" fill="#f8b1b1"/>
<g clip-path="url(#clip0_193_4202)">
<path d="M16.0667 21.0532C15.8626 21.0531 15.6621 20.9993 15.4853 20.8972L12.0187 18.8972C11.751 18.7422 11.5557 18.4873 11.4757 18.1885C11.3957 17.8896 11.4375 17.5712 11.592 17.3032L12.092 16.4365C12.3564 16.0687 12.7023 15.767 13.1027 15.5553C13.5031 15.3435 13.9472 15.2273 14.4 15.2159C14.4226 15.2119 14.4441 15.2031 14.4629 15.1899C14.4817 15.1767 14.4974 15.1596 14.5089 15.1396C14.5203 15.1197 14.5273 15.0976 14.5292 15.0747C14.5311 15.0518 14.528 15.0288 14.52 15.0072C14.3031 14.6091 14.1814 14.1661 14.1645 13.713C14.1476 13.2599 14.236 12.8091 14.4227 12.3959L14.9227 11.5292C15.0778 11.2618 15.3326 11.0668 15.6312 10.9867C15.9297 10.9066 16.2479 10.948 16.516 11.1019L19.9827 13.1019C20.2504 13.2569 20.4457 13.5118 20.5257 13.8106C20.6057 14.1095 20.5638 14.4278 20.4093 14.6959L19.9093 15.5625C19.6449 15.9307 19.2988 16.2326 18.8982 16.4445C18.4975 16.6564 18.0531 16.7726 17.6 16.7839C17.5774 16.7876 17.5558 16.7964 17.5369 16.8094C17.5181 16.8225 17.5023 16.8396 17.4908 16.8595C17.4794 16.8794 17.4724 16.9016 17.4706 16.9245C17.4687 16.9474 17.4719 16.9704 17.48 16.9919C17.6971 17.3901 17.8188 17.8332 17.8357 18.2864C17.8526 18.7397 17.7642 19.1906 17.5773 19.6039L17.0773 20.4705C16.9748 20.6478 16.8275 20.795 16.6501 20.8973C16.4727 20.9996 16.2715 21.0533 16.0667 21.0532ZM15.9333 11.9465C15.904 11.9465 15.8752 11.9542 15.8498 11.9688C15.8244 11.9834 15.8033 12.0045 15.7887 12.0299L15.2887 12.8965C15.1878 13.1778 15.1493 13.4775 15.1758 13.7751C15.2023 14.0726 15.2931 14.3609 15.442 14.6199C15.5096 14.7838 15.5387 14.9611 15.5269 15.1381C15.5151 15.315 15.4629 15.4869 15.3742 15.6405C15.2855 15.7941 15.1627 15.9252 15.0153 16.0238C14.8679 16.1224 14.6998 16.1858 14.524 16.2092C14.2254 16.2098 13.9304 16.2753 13.6596 16.4011C13.3887 16.5269 13.1485 16.7101 12.9553 16.9379L12.4553 17.8045C12.4443 17.8235 12.4372 17.8444 12.4343 17.8661C12.4314 17.8879 12.4328 17.91 12.4384 17.9311C12.444 17.9523 12.4538 17.9722 12.4671 17.9896C12.4804 18.007 12.497 18.0216 12.516 18.0325L15.9827 20.0325C16.0211 20.0542 16.0664 20.0598 16.1089 20.0484C16.1514 20.0369 16.1877 20.0092 16.21 19.9712L16.71 19.1045C16.8109 18.8233 16.8494 18.5236 16.8229 18.226C16.7964 17.9284 16.7056 17.6402 16.5567 17.3812C16.4889 17.2173 16.4598 17.04 16.4715 16.8631C16.4832 16.6861 16.5354 16.5142 16.6241 16.3606C16.7129 16.2071 16.8357 16.076 16.9832 15.9775C17.1307 15.879 17.2988 15.8157 17.4747 15.7925C17.7733 15.7915 18.0682 15.7258 18.339 15.5999C18.6098 15.474 18.8501 15.2909 19.0433 15.0632L19.5434 14.1965C19.5544 14.1776 19.5615 14.1567 19.5644 14.1349C19.5673 14.1132 19.5659 14.0911 19.5603 14.07C19.5547 14.0488 19.5449 14.0289 19.5316 14.0115C19.5183 13.9941 19.5017 13.9795 19.4827 13.9685L16.016 11.9685C15.9908 11.9542 15.9623 11.9467 15.9333 11.9465Z" fill="rgba(125,4,4,0.741)"/>
<path d="M22.6667 16.4999C22.5341 16.4999 22.4069 16.4473 22.3131 16.3535C22.2194 16.2597 22.1667 16.1326 22.1667 15.9999C22.1667 14.7802 21.8051 13.5879 21.1275 12.5737C20.4499 11.5596 19.4868 10.7691 18.3599 10.3024C17.2331 9.83559 15.9931 9.71347 14.7969 9.95144C13.6006 10.1894 12.5018 10.7768 11.6393 11.6393C11.4326 11.8463 11.2406 12.0675 11.0647 12.3013C10.9851 12.4074 10.8667 12.4775 10.7354 12.4963C10.6041 12.515 10.4708 12.4808 10.3647 12.4013C10.2586 12.3217 10.1885 12.2033 10.1697 12.072C10.1509 11.9407 10.1851 11.8074 10.2647 11.7013C10.4693 11.4309 10.692 11.1748 10.9313 10.9346C11.9334 9.93211 13.2103 9.24927 14.6005 8.97246C15.9906 8.69565 17.4317 8.8373 18.7413 9.37949C20.051 9.92168 21.1705 10.8401 21.9582 12.0185C22.7459 13.1969 23.1664 14.5825 23.1667 15.9999C23.1667 16.1326 23.114 16.2597 23.0202 16.3535C22.9265 16.4473 22.7993 16.4999 22.6667 16.4999Z" fill="rgba(125,4,4,0.741)"/>
<path d="M16 23.1667C15.0588 23.1668 14.1268 22.9816 13.2572 22.6215C12.3876 22.2614 11.5975 21.7335 10.932 21.068C10.2665 20.4025 9.73858 19.6124 9.37849 18.7428C9.01839 17.8732 8.83314 16.9412 8.83331 16C8.83331 15.8674 8.88599 15.7402 8.97976 15.6464C9.07353 15.5527 9.2007 15.5 9.33331 15.5C9.46592 15.5 9.5931 15.5527 9.68687 15.6464C9.78063 15.7402 9.83331 15.8674 9.83331 16C9.83324 17.2197 10.1949 18.412 10.8725 19.4262C11.5501 20.4404 12.5132 21.2308 13.6401 21.6976C14.7669 22.1644 16.0069 22.2865 17.2031 22.0485C18.3994 21.8105 19.4982 21.2232 20.3606 20.3607C20.5673 20.154 20.7591 19.933 20.9346 19.6993C21.0168 19.6008 21.1337 19.5376 21.2612 19.5227C21.3886 19.5078 21.5169 19.5425 21.6196 19.6195C21.7222 19.6965 21.7914 19.8099 21.8128 19.9364C21.8342 20.0629 21.8062 20.1928 21.7346 20.2993C21.5303 20.5701 21.3075 20.8265 21.068 21.0667C20.404 21.7343 19.6142 22.2637 18.7443 22.6242C17.8744 22.9846 16.9416 23.169 16 23.1667Z" fill="rgba(125,4,4,0.741)"/>
<path d="M21.6567 22.1566C21.5241 22.1566 21.3969 22.1039 21.3031 22.0101C21.2094 21.9164 21.1567 21.7892 21.1567 21.6566V20.2712H19.7707C19.6381 20.2712 19.5109 20.2186 19.4171 20.1248C19.3234 20.031 19.2707 19.9038 19.2707 19.7712C19.2707 19.6386 19.3234 19.5115 19.4171 19.4177C19.5109 19.3239 19.6381 19.2712 19.7707 19.2712H21.6567C21.7893 19.2712 21.9165 19.3239 22.0102 19.4177C22.104 19.5115 22.1567 19.6386 22.1567 19.7712V21.6566C22.1567 21.7892 22.104 21.9164 22.0102 22.0101C21.9165 22.1039 21.7893 22.1566 21.6567 22.1566Z" fill="rgba(125,4,4,0.741)"/>
<path d="M12.2287 12.7286H10.3433C10.2107 12.7286 10.0835 12.6759 9.98977 12.5821C9.896 12.4884 9.84332 12.3612 9.84332 12.2286V10.3433C9.84332 10.2107 9.896 10.0835 9.98977 9.98971C10.0835 9.89594 10.2107 9.84326 10.3433 9.84326C10.4759 9.84326 10.6031 9.89594 10.6969 9.98971C10.7906 10.0835 10.8433 10.2107 10.8433 10.3433V11.7286H12.2287C12.3613 11.7286 12.4884 11.7813 12.5822 11.875C12.676 11.9688 12.7287 12.096 12.7287 12.2286C12.7287 12.3612 12.676 12.4884 12.5822 12.5821C12.4884 12.6759 12.3613 12.7286 12.2287 12.7286Z" fill="rgba(125,4,4,0.741)"/>
</g>
<defs>
<clipPath id="clip0_193_4202">
<rect width="16" height="16" fill="white" transform="translate(8 8)"/>
</clipPath>
</defs>
</svg>
