<svg width="719" height="912" viewBox="0 0 719 912" fill="none" xmlns="http://www.w3.org/2000/svg">
<mask id="mask0_2_167" style="mask-type:luminance" maskUnits="userSpaceOnUse" x="0" y="0" width="719" height="912">
<path d="M718.41 747.777C717.06 747.257 716.37 746.817 715.86 746.837C656.88 748.337 597.92 749.927 538.89 751.327C533.78 751.447 534.94 753.557 535.98 756.107C540.98 768.417 546.38 780.737 550.78 793.047C552.91 799.007 556.07 800.307 563.23 799.957C581.17 799.087 599.4 798.887 618.47 798.397C617.83 800.077 617.75 800.797 617.32 801.327C593.42 830.147 556.21 844.627 505.3 844.207C447.59 843.737 387.54 828.967 328.72 824.687L322.74 822.377L514.3 321.517L635.55 367.887L655.37 316.057L534.12 269.687L587.43 130.287C611.83 128.467 634.2 112.907 643.52 88.5374C656.39 54.8974 639.54 17.1874 605.9 4.31737C572.26 -8.54263 534.56 8.29736 521.69 41.9374C512.37 66.3074 518.64 92.8074 535.6 110.457L482.29 249.857L361.05 203.487L341.23 255.317L462.47 301.687L270.99 802.347L265.42 800.197C253.34 791.637 242 783.377 230.34 775.407C196.86 752.497 161.7 731.017 130.9 705.887C102.53 682.727 81.09 657.687 71.4999 629.477C66.6899 615.337 64.4299 601.487 66.3999 587.017C81.5599 601.307 95.4899 614.277 109.09 627.397C112.59 630.777 114.6 631.527 118.47 629.497C130.12 623.397 141.94 617.427 154.32 612.037C160 609.557 159.94 607.627 154.62 602.657C114.08 564.707 73.92 526.557 33.57 488.517C31.58 486.637 30.13 484.217 25.94 482.947C14.9 512.957 1.87996 542.157 0.509959 575.427C-1.14004 615.587 13.87 655.067 48.01 694.317C73.23 723.297 106.02 747.587 140.23 770.987C165.63 788.367 192.01 804.907 216.65 822.967C234.69 836.197 247.25 850.307 249.38 867.717C251.07 881.597 255.46 895.857 259.01 911.497C273.97 900.857 287.8 891.277 301.19 881.367C308.02 876.317 316.59 873.717 327.13 873.237C343.88 872.497 361.37 874.907 378.8 877.257C421.07 882.957 463.64 890.477 505.29 892.317C564.06 894.907 613.71 884.977 650.81 857.557C689.76 828.757 703.17 787.917 718.41 747.787V747.777ZM568.57 101.957C548.3 94.2074 538.15 71.4874 545.9 51.2074C553.65 30.9374 576.37 20.7874 596.65 28.5374C616.92 36.2874 627.07 59.0074 619.32 79.2874C611.57 99.5574 588.85 109.707 568.57 101.957Z" fill="white"/>
</mask>
<g mask="url(#mask0_2_167)">
<path fill-rule="evenodd" clip-rule="evenodd" d="M-206.25 779.187L-207.09 781.487L697.36 1113.87L698.2 1111.58L-206.25 779.187Z" fill="#244694"/>
<path fill-rule="evenodd" clip-rule="evenodd" d="M-208.67 785.787L-203.93 772.887L700.52 1105.27L695.78 1118.17L-208.67 785.787Z" fill="#254694"/>
<path fill-rule="evenodd" clip-rule="evenodd" d="M-205.51 777.187L-200.77 764.287L703.68 1096.68L698.94 1109.57L-205.51 777.187Z" fill="#254694"/>
<path fill-rule="evenodd" clip-rule="evenodd" d="M-202.35 768.587L-197.61 755.697L706.84 1088.08L702.1 1100.98L-202.35 768.587Z" fill="#254795"/>
<path fill-rule="evenodd" clip-rule="evenodd" d="M-199.19 759.997L-194.45 747.097L709.99 1079.48L705.26 1092.38L-199.19 759.997Z" fill="#254795"/>
<path fill-rule="evenodd" clip-rule="evenodd" d="M-196.03 751.397L-191.29 738.497L713.15 1070.88L708.42 1083.78L-196.03 751.397Z" fill="#244997"/>
<path fill-rule="evenodd" clip-rule="evenodd" d="M-192.87 742.797L-188.13 729.897L716.31 1062.28L711.58 1075.18L-192.87 742.797Z" fill="#234997"/>
<path fill-rule="evenodd" clip-rule="evenodd" d="M-189.71 734.197L-184.97 721.307L719.47 1053.69L714.73 1066.58L-189.71 734.197Z" fill="#234A98"/>
<path fill-rule="evenodd" clip-rule="evenodd" d="M-186.55 725.597L-181.82 712.707L722.63 1045.09L717.89 1057.99L-186.55 725.597Z" fill="#234A98"/>
<path fill-rule="evenodd" clip-rule="evenodd" d="M-183.4 717.007L-178.66 704.107L725.79 1036.49L721.05 1049.39L-183.4 717.007Z" fill="#244B99"/>
<path fill-rule="evenodd" clip-rule="evenodd" d="M-180.24 708.407L-175.5 695.507L728.95 1027.89L724.21 1040.79L-180.24 708.407Z" fill="#224C99"/>
<path fill-rule="evenodd" clip-rule="evenodd" d="M-177.08 699.807L-172.34 686.907L732.11 1019.3L727.37 1032.19L-177.08 699.807Z" fill="#234C99"/>
<path fill-rule="evenodd" clip-rule="evenodd" d="M-173.92 691.207L-169.18 678.317L735.27 1010.7L730.53 1023.6L-173.92 691.207Z" fill="#224D9B"/>
<path fill-rule="evenodd" clip-rule="evenodd" d="M-170.76 682.617L-166.02 669.717L738.43 1002.1L733.69 1015L-170.76 682.617Z" fill="#224F9A"/>
<path fill-rule="evenodd" clip-rule="evenodd" d="M-167.6 674.017L-162.86 661.117L741.59 993.497L736.85 1006.4L-167.6 674.017Z" fill="#23509B"/>
<path fill-rule="evenodd" clip-rule="evenodd" d="M-164.44 665.417L-159.7 652.517L744.75 984.897L740.01 997.797L-164.44 665.417Z" fill="#21519D"/>
<path fill-rule="evenodd" clip-rule="evenodd" d="M-161.28 656.818L-156.54 643.917L747.91 976.307L743.17 989.198L-161.28 656.818Z" fill="#22539E"/>
<path fill-rule="evenodd" clip-rule="evenodd" d="M-158.12 648.217L-153.38 635.327L751.07 967.707L746.33 980.607L-158.12 648.217Z" fill="#21549E"/>
<path fill-rule="evenodd" clip-rule="evenodd" d="M-154.96 639.627L-150.22 626.727L754.23 959.107L749.49 972.007L-154.96 639.627Z" fill="#2155A0"/>
<path fill-rule="evenodd" clip-rule="evenodd" d="M-151.8 631.027L-147.06 618.127L757.39 950.507L752.65 963.407L-151.8 631.027Z" fill="#2257A0"/>
<path fill-rule="evenodd" clip-rule="evenodd" d="M-148.64 622.427L-143.9 609.527L760.55 941.917L755.81 954.807L-148.64 622.427Z" fill="#2058A1"/>
<path fill-rule="evenodd" clip-rule="evenodd" d="M-145.48 613.828L-140.74 600.938L763.71 933.318L758.97 946.208L-145.48 613.828Z" fill="#2259A2"/>
<path fill-rule="evenodd" clip-rule="evenodd" d="M-142.32 605.227L-137.58 592.337L766.87 924.717L762.13 937.617L-142.32 605.227Z" fill="#215BA2"/>
<path fill-rule="evenodd" clip-rule="evenodd" d="M-139.16 596.637L-134.42 583.737L770.03 916.117L765.29 929.017L-139.16 596.637Z" fill="#1E5CA4"/>
<path fill-rule="evenodd" clip-rule="evenodd" d="M-136 588.037L-131.26 575.137L773.19 907.517L768.45 920.417L-136 588.037Z" fill="#1F5EA5"/>
<path fill-rule="evenodd" clip-rule="evenodd" d="M-132.84 579.437L-128.1 566.537L776.35 898.927L771.61 911.817L-132.84 579.437Z" fill="#1F60A6"/>
<path fill-rule="evenodd" clip-rule="evenodd" d="M-129.68 570.837L-124.94 557.947L779.51 890.327L774.77 903.227L-129.68 570.837Z" fill="#2062A7"/>
<path fill-rule="evenodd" clip-rule="evenodd" d="M-126.52 562.247L-121.78 549.347L782.67 881.727L777.93 894.627L-126.52 562.247Z" fill="#1E63A9"/>
<path fill-rule="evenodd" clip-rule="evenodd" d="M-123.36 553.647L-118.62 540.747L785.83 873.127L781.09 886.027L-123.36 553.647Z" fill="#1D65AA"/>
<path fill-rule="evenodd" clip-rule="evenodd" d="M-120.2 545.047L-115.46 532.147L788.99 864.537L784.25 877.427L-120.2 545.047Z" fill="#1C67AB"/>
<path fill-rule="evenodd" clip-rule="evenodd" d="M-117.04 536.447L-112.3 523.557L792.15 855.937L787.41 868.827L-117.04 536.447Z" fill="#1C6AAD"/>
<path fill-rule="evenodd" clip-rule="evenodd" d="M-113.88 527.847L-109.14 514.957L795.31 847.337L790.57 860.237L-113.88 527.847Z" fill="#1C6BAE"/>
<path fill-rule="evenodd" clip-rule="evenodd" d="M-110.72 519.257L-105.98 506.357L798.47 838.737L793.73 851.637L-110.72 519.257Z" fill="#1B6DAF"/>
<path fill-rule="evenodd" clip-rule="evenodd" d="M-107.56 510.657L-102.82 497.757L801.63 830.137L796.89 843.037L-107.56 510.657Z" fill="#1D70B1"/>
<path fill-rule="evenodd" clip-rule="evenodd" d="M-104.4 502.057L-99.6599 489.157L804.79 821.547L800.05 834.438L-104.4 502.057Z" fill="#1C72B1"/>
<path fill-rule="evenodd" clip-rule="evenodd" d="M-101.24 493.457L-96.4998 480.567L807.94 812.947L803.21 825.847L-101.24 493.457Z" fill="#1A74B4"/>
<path fill-rule="evenodd" clip-rule="evenodd" d="M-98.0801 484.867L-93.3401 471.967L811.1 804.347L806.37 817.247L-98.0801 484.867Z" fill="#1B76B5"/>
<path fill-rule="evenodd" clip-rule="evenodd" d="M-94.9199 476.267L-90.1799 463.367L814.26 795.747L809.52 808.647L-94.9199 476.267Z" fill="#1979B6"/>
<path fill-rule="evenodd" clip-rule="evenodd" d="M-91.7598 467.667L-87.0298 454.767L817.42 787.147L812.68 800.047L-91.7598 467.667Z" fill="#1C7CB9"/>
<path fill-rule="evenodd" clip-rule="evenodd" d="M-88.6001 459.067L-83.8701 446.177L820.58 778.557L815.84 791.448L-88.6001 459.067Z" fill="#197EBB"/>
<path fill-rule="evenodd" clip-rule="evenodd" d="M-85.4497 450.467L-80.7097 437.577L823.74 769.957L819 782.857L-85.4497 450.467Z" fill="#1B81BB"/>
<path fill-rule="evenodd" clip-rule="evenodd" d="M-82.29 441.877L-77.55 428.977L826.9 761.357L822.16 774.257L-82.29 441.877Z" fill="#1B83BD"/>
<path fill-rule="evenodd" clip-rule="evenodd" d="M-79.1299 433.277L-74.3899 420.377L830.06 752.757L825.32 765.657L-79.1299 433.277Z" fill="#1987C0"/>
<path fill-rule="evenodd" clip-rule="evenodd" d="M-75.9697 424.677L-71.2297 411.777L833.22 744.167L828.48 757.057L-75.9697 424.677Z" fill="#1888C1"/>
<path fill-rule="evenodd" clip-rule="evenodd" d="M-72.8101 416.077L-68.07 403.187L836.38 735.567L831.64 748.457L-72.8101 416.077Z" fill="#178CC4"/>
<path fill-rule="evenodd" clip-rule="evenodd" d="M-69.6499 407.487L-64.9099 394.587L839.54 726.967L834.8 739.867L-69.6499 407.487Z" fill="#178FC5"/>
<path fill-rule="evenodd" clip-rule="evenodd" d="M-66.4897 398.887L-61.7498 385.987L842.7 718.367L837.96 731.267L-66.4897 398.887Z" fill="#1391C7"/>
<path fill-rule="evenodd" clip-rule="evenodd" d="M-63.3301 390.287L-58.5901 377.387L845.86 709.767L841.12 722.667L-63.3301 390.287Z" fill="#1496CA"/>
<path fill-rule="evenodd" clip-rule="evenodd" d="M-60.1699 381.687L-55.4299 368.787L849.02 701.177L844.28 714.067L-60.1699 381.687Z" fill="#1698CC"/>
<path fill-rule="evenodd" clip-rule="evenodd" d="M-57.0098 373.087L-52.2698 360.197L852.18 692.577L847.44 705.477L-57.0098 373.087Z" fill="#179BCD"/>
<path fill-rule="evenodd" clip-rule="evenodd" d="M-53.8501 364.497L-49.1101 351.597L855.34 683.977L850.6 696.877L-53.8501 364.497Z" fill="#149ECE"/>
<path fill-rule="evenodd" clip-rule="evenodd" d="M-50.6899 355.897L-45.9499 342.997L858.5 675.377L853.76 688.277L-50.6899 355.897Z" fill="#10A0D1"/>
<path fill-rule="evenodd" clip-rule="evenodd" d="M-47.5298 347.297L-42.7898 334.397L861.66 666.787L856.92 679.677L-47.5298 347.297Z" fill="#11A3D3"/>
<path fill-rule="evenodd" clip-rule="evenodd" d="M-44.3701 338.697L-39.6301 325.807L864.82 658.187L860.08 671.077L-44.3701 338.697Z" fill="#12A6D5"/>
<path fill-rule="evenodd" clip-rule="evenodd" d="M-41.21 330.097L-36.47 317.207L867.98 649.587L863.24 662.487L-41.21 330.097Z" fill="#15A9D5"/>
<path fill-rule="evenodd" clip-rule="evenodd" d="M-38.0498 321.507L-33.3098 308.607L871.14 640.987L866.4 653.887L-38.0498 321.507Z" fill="#11ABD8"/>
<path fill-rule="evenodd" clip-rule="evenodd" d="M-34.8901 312.907L-30.1501 300.007L874.3 632.387L869.56 645.287L-34.8901 312.907Z" fill="#0BAEDA"/>
<path fill-rule="evenodd" clip-rule="evenodd" d="M-31.73 304.307L-26.9899 291.407L877.46 623.797L872.72 636.688L-31.73 304.307Z" fill="#0CB0DA"/>
<path fill-rule="evenodd" clip-rule="evenodd" d="M-28.5698 295.707L-23.8298 282.817L880.62 615.197L875.88 628.097L-28.5698 295.707Z" fill="#0EB3DC"/>
<path fill-rule="evenodd" clip-rule="evenodd" d="M-25.4102 287.117L-20.6702 274.217L883.78 606.597L879.04 619.497L-25.4102 287.117Z" fill="#0BB5DF"/>
<path fill-rule="evenodd" clip-rule="evenodd" d="M-22.25 278.517L-17.51 265.617L886.94 597.997L882.2 610.897L-22.25 278.517Z" fill="#08B7E0"/>
<path fill-rule="evenodd" clip-rule="evenodd" d="M-19.0898 269.917L-14.3499 257.017L890.1 589.407L885.36 602.297L-19.0898 269.917Z" fill="#10BBE2"/>
<path fill-rule="evenodd" clip-rule="evenodd" d="M-15.9297 261.317L-11.1897 248.427L893.26 580.807L888.52 593.698L-15.9297 261.317Z" fill="#11BCE3"/>
<path fill-rule="evenodd" clip-rule="evenodd" d="M-12.77 252.717L-8.03003 239.827L896.42 572.207L891.68 585.107L-12.77 252.717Z" fill="#06BEE4"/>
<path fill-rule="evenodd" clip-rule="evenodd" d="M-9.60986 244.127L-4.86981 231.227L899.58 563.607L894.84 576.507L-9.60986 244.127Z" fill="#0AC1E7"/>
<path fill-rule="evenodd" clip-rule="evenodd" d="M-6.44971 235.527L-1.70972 222.627L902.73 555.007L898 567.907L-6.44971 235.527Z" fill="#12C1E7"/>
<path fill-rule="evenodd" clip-rule="evenodd" d="M-3.29004 226.927L1.44995 214.027L905.89 546.417L901.15 559.307L-3.29004 226.927Z" fill="#1EC2E6"/>
<path fill-rule="evenodd" clip-rule="evenodd" d="M-0.129883 218.327L4.61011 205.437L909.05 537.817L904.31 550.717L-0.129883 218.327Z" fill="#22C2E6"/>
<path fill-rule="evenodd" clip-rule="evenodd" d="M3.03027 209.737L7.76031 196.837L912.21 529.217L907.47 542.117L3.03027 209.737Z" fill="#29C3E7"/>
<path fill-rule="evenodd" clip-rule="evenodd" d="M6.18994 201.137L10.9199 188.237L915.37 520.617L910.63 533.517L6.18994 201.137Z" fill="#30C3E6"/>
<path fill-rule="evenodd" clip-rule="evenodd" d="M9.33984 192.537L14.0798 179.637L918.53 512.027L913.79 524.917L9.33984 192.537Z" fill="#36C4E6"/>
<path fill-rule="evenodd" clip-rule="evenodd" d="M12.5 183.937L17.24 171.047L921.69 503.427L916.95 516.317L12.5 183.937Z" fill="#38C4E6"/>
<path fill-rule="evenodd" clip-rule="evenodd" d="M15.6602 175.337L20.4001 162.447L924.85 494.827L920.11 507.727L15.6602 175.337Z" fill="#3BC4E6"/>
<path fill-rule="evenodd" clip-rule="evenodd" d="M18.8203 166.747L23.5603 153.847L928.01 486.227L923.27 499.127L18.8203 166.747Z" fill="#3DC5E6"/>
<path fill-rule="evenodd" clip-rule="evenodd" d="M21.98 158.147L26.72 145.247L931.17 477.627L926.43 490.527L21.98 158.147Z" fill="#40C5E5"/>
<path fill-rule="evenodd" clip-rule="evenodd" d="M25.1401 149.547L29.8802 136.647L934.33 469.037L929.59 481.927L25.1401 149.547Z" fill="#41C5E6"/>
<path fill-rule="evenodd" clip-rule="evenodd" d="M28.3003 140.947L33.0403 128.057L937.49 460.437L932.75 473.337L28.3003 140.947Z" fill="#43C5E6"/>
<path fill-rule="evenodd" clip-rule="evenodd" d="M31.46 132.357L36.2 119.457L940.65 451.837L935.91 464.737L31.46 132.357Z" fill="#44C5E5"/>
<path fill-rule="evenodd" clip-rule="evenodd" d="M34.6201 123.757L39.3601 110.857L943.81 443.237L939.07 456.137L34.6201 123.757Z" fill="#48C6E6"/>
<path fill-rule="evenodd" clip-rule="evenodd" d="M37.7803 115.157L42.5203 102.257L946.97 434.637L942.23 447.537L37.7803 115.157Z" fill="#4AC6E6"/>
<path fill-rule="evenodd" clip-rule="evenodd" d="M40.9399 106.557L45.6799 93.6575L950.13 426.047L945.39 438.937L40.9399 106.557Z" fill="#4BC7E6"/>
<path fill-rule="evenodd" clip-rule="evenodd" d="M44.1001 97.9574L48.8401 85.0674L953.29 417.447L948.55 430.347L44.1001 97.9574Z" fill="#4BC7E6"/>
<path fill-rule="evenodd" clip-rule="evenodd" d="M47.2603 89.3674L52.0002 76.4674L956.45 408.847L951.71 421.747L47.2603 89.3674Z" fill="#4DC7E6"/>
<path fill-rule="evenodd" clip-rule="evenodd" d="M50.4199 80.7674L55.1599 67.8674L959.61 400.247L954.87 413.147L50.4199 80.7674Z" fill="#4FC7E6"/>
<path fill-rule="evenodd" clip-rule="evenodd" d="M53.5801 72.1674L58.3201 59.2673L962.77 391.657L958.03 404.547L53.5801 72.1674Z" fill="#51C7E5"/>
<path fill-rule="evenodd" clip-rule="evenodd" d="M56.7402 63.5674L61.4802 50.6774L965.93 383.057L961.19 395.947L56.7402 63.5674Z" fill="#53C8E6"/>
<path fill-rule="evenodd" clip-rule="evenodd" d="M59.8999 54.9674L64.6399 42.0774L969.09 374.457L964.35 387.357L59.8999 54.9674Z" fill="#53C8E6"/>
<path fill-rule="evenodd" clip-rule="evenodd" d="M63.0601 46.3774L67.8 33.4774L972.25 365.857L967.51 378.757L63.0601 46.3774Z" fill="#54C8E6"/>
<path fill-rule="evenodd" clip-rule="evenodd" d="M66.2202 37.7774L70.9602 24.8774L975.41 357.257L970.67 370.157L66.2202 37.7774Z" fill="#56C8E5"/>
<path fill-rule="evenodd" clip-rule="evenodd" d="M69.3799 29.1773L74.1199 16.2773L978.57 348.667L973.83 361.557L69.3799 29.1773Z" fill="#56C8E6"/>
<path fill-rule="evenodd" clip-rule="evenodd" d="M72.54 20.5774L77.28 7.68738L981.73 340.067L976.99 352.967L72.54 20.5774Z" fill="#56C8E6"/>
<path fill-rule="evenodd" clip-rule="evenodd" d="M75.7002 11.9874L80.4402 -0.912598L984.89 331.467L980.15 344.367L75.7002 11.9874Z" fill="#57C9E6"/>
<path fill-rule="evenodd" clip-rule="evenodd" d="M78.8599 3.38742L83.5999 -9.51257L988.05 322.867L983.31 335.767L78.8599 3.38742Z" fill="#57C9E6"/>
<path fill-rule="evenodd" clip-rule="evenodd" d="M82.02 -5.21252L86.7601 -18.1125L991.21 314.277L986.47 327.167L82.02 -5.21252Z" fill="#59C9E5"/>
<path fill-rule="evenodd" clip-rule="evenodd" d="M85.1802 -13.8126L89.9202 -26.7026L994.37 305.677L989.63 318.567L85.1802 -13.8126Z" fill="#59C9E6"/>
<path fill-rule="evenodd" clip-rule="evenodd" d="M88.3398 -22.4127L93.0798 -35.3027L997.53 297.077L992.79 309.977L88.3398 -22.4127Z" fill="#5CC9E6"/>
<path fill-rule="evenodd" clip-rule="evenodd" d="M91.5 -31.0026L96.24 -43.9026L1000.68 288.477L995.95 301.377L91.5 -31.0026Z" fill="#5CC9E6"/>
<path fill-rule="evenodd" clip-rule="evenodd" d="M94.6602 -39.6027L99.4001 -52.5027L1003.84 279.877L999.1 292.777L94.6602 -39.6027Z" fill="#5ECAE6"/>
<path fill-rule="evenodd" clip-rule="evenodd" d="M97.8203 -48.2025L102.56 -61.1025L1007 271.287L1002.26 284.177L97.8203 -48.2025Z" fill="#5DCAE7"/>
<path fill-rule="evenodd" clip-rule="evenodd" d="M100.98 -56.8026L105.71 -69.6926L1010.16 262.687L1005.42 275.587L100.98 -56.8026Z" fill="#5DCAE7"/>
<path fill-rule="evenodd" clip-rule="evenodd" d="M104.13 -65.3925L108.87 -78.2925L1013.32 254.088L1008.58 266.988L104.13 -65.3925Z" fill="#5FCAE6"/>
<path fill-rule="evenodd" clip-rule="evenodd" d="M107.29 -73.9926L112.03 -86.8926L1016.48 245.487L1011.74 258.387L107.29 -73.9926Z" fill="#5FCAE6"/>
<path fill-rule="evenodd" clip-rule="evenodd" d="M110.45 -82.5927L115.19 -95.4927L1019.64 236.897L1014.9 249.787L110.45 -82.5927Z" fill="#5FCAE6"/>
<path fill-rule="evenodd" clip-rule="evenodd" d="M113.61 -91.1925L118.35 -104.083L1022.8 228.298L1018.06 241.187L113.61 -91.1925Z" fill="#5FCAE7"/>
<path fill-rule="evenodd" clip-rule="evenodd" d="M116.77 -99.7926L121.51 -112.683L1025.96 219.697L1021.22 232.597L116.77 -99.7926Z" fill="#60CAE7"/>
<path fill-rule="evenodd" clip-rule="evenodd" d="M119.93 -108.383L124.67 -121.283L1029.12 211.097L1024.38 223.997L119.93 -108.383Z" fill="#60CAE7"/>
<path fill-rule="evenodd" clip-rule="evenodd" d="M123.09 -116.983L127.83 -129.883L1032.28 202.497L1027.54 215.397L123.09 -116.983Z" fill="#60CAE7"/>
<path fill-rule="evenodd" clip-rule="evenodd" d="M126.25 -125.583L130.99 -138.483L1035.44 193.907L1030.7 206.797L126.25 -125.583Z" fill="#60CAE7"/>
<path fill-rule="evenodd" clip-rule="evenodd" d="M129.41 -134.182L134.15 -147.073L1038.6 185.307L1033.86 198.207L129.41 -134.182Z" fill="#60CAE7"/>
<path fill-rule="evenodd" clip-rule="evenodd" d="M132.57 -142.783L137.31 -155.673L1041.76 176.707L1037.02 189.607L132.57 -142.783Z" fill="#60CAE7"/>
<path fill-rule="evenodd" clip-rule="evenodd" d="M135.73 -151.373L162.98 -225.513L1067.42 106.867L1040.18 181.007L135.73 -151.373Z" fill="#60CAE7"/>
</g>
</svg>
