<svg width="2112" height="2112" viewBox="0 0 2112 2112" fill="none" xmlns="http://www.w3.org/2000/svg">
<g clip-path="url(#clip0_2_3)">
<path fill-rule="evenodd" clip-rule="evenodd" d="M-32.21 -32.21H2144.02V2144.02H-32.21V-32.21Z" fill="#0C101B"/>
<path d="M383.09 1700.39V1721.39H376.87V1700.39L353 1660.65H359.74L380.2 1694.75L400.66 1660.65H406.97L383.1 1700.39H383.09Z" fill="#B7B7B8"/>
<path d="M431.04 1717.87C426.24 1715.18 422.49 1711.49 419.79 1706.81C417.09 1702.12 415.74 1696.86 415.74 1691.02C415.74 1685.18 417.09 1679.91 419.79 1675.23C422.49 1670.54 426.24 1666.86 431.04 1664.17C435.84 1661.48 441.2 1660.14 447.11 1660.14C453.02 1660.14 458.35 1661.47 463.1 1664.13C467.84 1666.79 471.58 1670.48 474.31 1675.19C477.04 1679.91 478.4 1685.18 478.4 1691.03C478.4 1696.88 477.04 1702.15 474.31 1706.87C471.58 1711.58 467.84 1715.27 463.1 1717.93C458.35 1720.59 453.03 1721.92 447.11 1721.92C441.19 1721.92 435.84 1720.58 431.04 1717.89V1717.87ZM459.9 1712.92C463.71 1710.75 466.69 1707.74 468.85 1703.9C471.01 1700.05 472.09 1695.76 472.09 1691.01C472.09 1686.26 471.01 1681.97 468.85 1678.12C466.69 1674.27 463.71 1671.27 459.9 1669.1C456.09 1666.93 451.83 1665.85 447.11 1665.85C442.39 1665.85 438.12 1666.93 434.28 1669.1C430.44 1671.27 427.43 1674.28 425.24 1678.12C423.05 1681.97 421.96 1686.26 421.96 1691.01C421.96 1695.76 423.05 1700.05 425.24 1703.9C427.43 1707.75 430.44 1710.75 434.28 1712.92C438.12 1715.09 442.39 1716.17 447.11 1716.17C451.83 1716.17 456.09 1715.09 459.9 1712.92Z" fill="#B7B7B8"/>
<path d="M505.34 1715.14C501.02 1710.63 498.86 1704.06 498.86 1695.44V1660.65H505.17V1695.18C505.17 1702.24 506.73 1707.5 509.86 1710.97C512.99 1714.44 517.5 1716.18 523.41 1716.18C529.32 1716.18 533.92 1714.44 537.05 1710.97C540.18 1707.5 541.74 1702.24 541.74 1695.18V1660.65H547.88V1695.44C547.88 1704.06 545.73 1710.62 541.44 1715.14C537.15 1719.65 531.14 1721.91 523.41 1721.91C515.68 1721.91 509.66 1719.65 505.34 1715.14Z" fill="#B7B7B8"/>
<path d="M614.45 1721.39L600.81 1701.87C599.28 1702.04 597.68 1702.13 596.04 1702.13H580.01V1721.39H573.7V1660.65H596.03C603.64 1660.65 609.61 1662.5 613.93 1666.2C618.25 1669.9 620.41 1674.99 620.41 1681.47C620.41 1686.21 619.23 1690.22 616.87 1693.49C614.51 1696.76 611.14 1699.12 606.77 1700.56L621.35 1721.38H614.44L614.45 1721.39ZM609.42 1692.67C612.55 1690.01 614.11 1686.28 614.11 1681.48C614.11 1676.68 612.55 1672.79 609.42 1670.16C606.29 1667.53 601.78 1666.21 595.87 1666.21H580.01V1696.66H595.87C601.78 1696.66 606.3 1695.33 609.42 1692.67Z" fill="#B7B7B8"/>
<path d="M711.55 1666.2C715.87 1669.9 718.03 1674.99 718.03 1681.47C718.03 1687.95 715.87 1693.03 711.55 1696.7C707.23 1700.37 701.26 1702.21 693.65 1702.21H677.62V1721.39H671.31V1660.65H693.64C701.25 1660.65 707.22 1662.5 711.54 1666.2H711.55ZM707.03 1692.62C710.16 1689.99 711.72 1686.27 711.72 1681.47C711.72 1676.67 710.16 1672.78 707.03 1670.15C703.9 1667.52 699.39 1666.2 693.48 1666.2H677.62V1696.57H693.48C699.39 1696.57 703.91 1695.25 707.03 1692.62Z" fill="#B7B7B8"/>
<path d="M772.93 1705.16H739.68L732.52 1721.39H725.96L753.24 1660.65H759.46L786.74 1721.39H780.09L772.93 1705.16ZM770.63 1699.95L756.31 1667.33L741.99 1699.95H770.63Z" fill="#B7B7B8"/>
<path d="M844.19 1721.39L830.55 1701.87C829.02 1702.04 827.42 1702.13 825.78 1702.13H809.75V1721.39H803.44V1660.65H825.77C833.38 1660.65 839.35 1662.5 843.67 1666.2C847.99 1669.9 850.15 1674.99 850.15 1681.47C850.15 1686.21 848.97 1690.22 846.61 1693.49C844.25 1696.76 840.88 1699.12 836.51 1700.56L851.09 1721.38H844.18L844.19 1721.39ZM839.16 1692.67C842.29 1690.01 843.85 1686.28 843.85 1681.48C843.85 1676.68 842.29 1672.79 839.16 1670.16C836.03 1667.53 831.52 1666.21 825.61 1666.21H809.75V1696.66H825.61C831.52 1696.66 836.04 1695.33 839.16 1692.67Z" fill="#B7B7B8"/>
<path d="M882.64 1666.2H861.67V1660.65H909.92V1666.2H888.95V1721.38H882.64V1666.2Z" fill="#B7B7B8"/>
<path d="M976.67 1660.65V1721.39H971.47L933.11 1672.11V1721.39H926.8V1660.65H932L970.45 1709.93V1660.65H976.67Z" fill="#B7B7B8"/>
<path d="M1045.12 1715.83V1721.38H1002.92V1660.64H1043.84V1666.19H1009.23V1687.79H1040.09V1693.26H1009.23V1715.82H1045.12V1715.83Z" fill="#B7B7B8"/>
<path d="M1107.52 1721.39L1093.88 1701.87C1092.35 1702.04 1090.75 1702.13 1089.1 1702.13H1073.08V1721.39H1066.77V1660.65H1089.1C1096.71 1660.65 1102.68 1662.5 1107 1666.2C1111.32 1669.9 1113.48 1674.99 1113.48 1681.47C1113.48 1686.21 1112.3 1690.22 1109.94 1693.49C1107.58 1696.76 1104.22 1699.12 1099.84 1700.56L1114.42 1721.38H1107.51L1107.52 1721.39ZM1102.49 1692.67C1105.62 1690.01 1107.18 1686.28 1107.18 1681.48C1107.18 1676.68 1105.62 1672.79 1102.49 1670.16C1099.37 1667.53 1094.85 1666.21 1088.94 1666.21H1073.09V1696.66H1088.94C1094.85 1696.66 1099.37 1695.33 1102.49 1692.67Z" fill="#B7B7B8"/>
<path d="M1164.38 1660.65H1170.69V1721.39H1164.38V1660.65Z" fill="#B7B7B8"/>
<path d="M1246.81 1660.65V1721.39H1241.61L1203.25 1672.11V1721.39H1196.94V1660.65H1202.14L1240.59 1709.93V1660.65H1246.81Z" fill="#B7B7B8"/>
<path d="M1339.64 1705.16H1306.4L1299.24 1721.39H1292.68L1319.96 1660.65H1326.18L1353.46 1721.39H1346.81L1339.65 1705.16H1339.64ZM1337.34 1699.95L1323.02 1667.33L1308.7 1699.95H1337.34Z" fill="#B7B7B8"/>
<path d="M1410.91 1721.39L1397.27 1701.87C1395.74 1702.04 1394.14 1702.13 1392.49 1702.13H1376.46V1721.39H1370.15V1660.65H1392.48C1400.09 1660.65 1406.06 1662.5 1410.38 1666.2C1414.7 1669.9 1416.86 1674.99 1416.86 1681.47C1416.86 1686.21 1415.68 1690.22 1413.32 1693.49C1410.96 1696.76 1407.6 1699.12 1403.22 1700.56L1417.8 1721.38H1410.89L1410.91 1721.39ZM1405.88 1692.67C1409.01 1690.01 1410.57 1686.28 1410.57 1681.48C1410.57 1676.68 1409.01 1672.79 1405.88 1670.16C1402.76 1667.53 1398.24 1666.21 1392.33 1666.21H1376.47V1696.66H1392.33C1398.24 1696.66 1402.76 1695.33 1405.88 1692.67Z" fill="#B7B7B8"/>
<path d="M1479.36 1721.39L1465.72 1701.87C1464.19 1702.04 1462.59 1702.13 1460.94 1702.13H1444.91V1721.39H1438.6V1660.65H1460.93C1468.54 1660.65 1474.51 1662.5 1478.83 1666.2C1483.15 1669.9 1485.31 1674.99 1485.31 1681.47C1485.31 1686.21 1484.13 1690.22 1481.77 1693.49C1479.41 1696.76 1476.05 1699.12 1471.67 1700.56L1486.25 1721.38H1479.34L1479.36 1721.39ZM1474.33 1692.67C1477.46 1690.01 1479.02 1686.28 1479.02 1681.48C1479.02 1676.68 1477.46 1672.79 1474.33 1670.16C1471.21 1667.53 1466.69 1666.21 1460.78 1666.21H1444.92V1696.66H1460.78C1466.69 1696.66 1471.21 1695.33 1474.33 1692.67Z" fill="#B7B7B8"/>
<path d="M1507.07 1660.65H1513.38V1721.39H1507.07V1660.65Z" fill="#B7B7B8"/>
<path d="M1588.56 1660.65L1562.13 1721.39H1555.91L1529.48 1660.65H1536.3L1559.15 1713.4L1582.17 1660.65H1588.56Z" fill="#B7B7B8"/>
<path d="M1639.63 1705.16H1606.39L1599.23 1721.39H1592.67L1619.95 1660.65H1626.17L1653.45 1721.39H1646.8L1639.64 1705.16H1639.63ZM1637.33 1699.95L1623.01 1667.33L1608.69 1699.95H1637.33Z" fill="#B7B7B8"/>
<path d="M1670.15 1660.65H1676.46V1715.83H1709.88V1721.38H1670.15V1660.64V1660.65Z" fill="#B7B7B8"/>
<path d="M1730.2 1719.74C1726.13 1718.29 1723 1716.39 1720.78 1714.01L1723.25 1709.06C1725.41 1711.26 1728.28 1713.04 1731.86 1714.4C1735.44 1715.76 1739.13 1716.44 1742.94 1716.44C1748.28 1716.44 1752.29 1715.44 1754.96 1713.45C1757.63 1711.45 1758.97 1708.87 1758.97 1705.68C1758.97 1703.25 1758.25 1701.31 1756.8 1699.87C1755.35 1698.42 1753.57 1697.31 1751.47 1696.53C1749.37 1695.75 1746.44 1694.9 1742.69 1693.97C1738.2 1692.81 1734.62 1691.7 1731.95 1690.63C1729.28 1689.56 1726.99 1687.93 1725.09 1685.73C1723.19 1683.53 1722.24 1680.55 1722.24 1676.79C1722.24 1673.72 1723.03 1670.93 1724.62 1668.42C1726.21 1665.9 1728.66 1663.9 1731.95 1662.39C1735.24 1660.88 1739.34 1660.13 1744.22 1660.13C1747.63 1660.13 1750.97 1660.61 1754.24 1661.56C1757.51 1662.51 1760.33 1663.83 1762.72 1665.51L1760.59 1670.63C1758.09 1668.95 1755.42 1667.7 1752.57 1666.86C1749.73 1666.02 1746.94 1665.6 1744.22 1665.6C1738.99 1665.6 1735.06 1666.63 1732.41 1668.68C1729.77 1670.73 1728.45 1673.38 1728.45 1676.62C1728.45 1679.05 1729.17 1681 1730.62 1682.48C1732.07 1683.96 1733.89 1685.08 1736.07 1685.86C1738.26 1686.64 1741.2 1687.5 1744.89 1688.42C1749.27 1689.52 1752.8 1690.6 1755.5 1691.67C1758.2 1692.74 1760.49 1694.36 1762.36 1696.53C1764.24 1698.7 1765.17 1701.63 1765.17 1705.34C1765.17 1708.41 1764.36 1711.2 1762.74 1713.71C1761.12 1716.23 1758.63 1718.22 1755.28 1719.7C1751.93 1721.18 1747.81 1721.91 1742.92 1721.91C1738.49 1721.91 1734.24 1721.19 1730.18 1719.74H1730.2Z" fill="#B7B7B8"/>
<path d="M1090.13 1136.88C1090.92 1136.42 1091.8 1136.52 1092.65 1136.51C1138.98 1136 1185.3 1135.47 1231.63 1135.01C1233.13 1134.99 1234.21 1134.65 1234.88 1133.33C1236.45 1130.24 1238.89 1129.38 1242.36 1129.47C1250.36 1129.68 1258.38 1129.38 1266.39 1129.31C1267.05 1129.31 1267.87 1129.01 1268.29 1129.79C1268.7 1130.55 1268.03 1131.1 1267.69 1131.66C1258.72 1146.55 1249.72 1161.41 1240.76 1176.31C1240.1 1177.4 1239.36 1177.77 1238.12 1177.78C1195.22 1178.23 1152.32 1178.7 1109.41 1179.22C1107.93 1179.24 1107.27 1178.73 1106.73 1177.43C1101.37 1164.5 1095.95 1151.59 1090.54 1138.68C1090.43 1138.42 1090.27 1138.18 1090.13 1137.93C1090.13 1137.58 1090.13 1137.23 1090.12 1136.88H1090.13Z" fill="#1A74B4"/>
<path d="M1122.88 1105.85C1129.61 1105.78 1136.34 1105.69 1143.07 1105.63C1145.64 1105.6 1146.54 1106.48 1146.58 1109.03C1146.66 1114.89 1146.73 1120.75 1146.77 1126.61C1146.79 1129.03 1145.86 1129.96 1143.4 1129.99C1129.88 1130.15 1116.36 1130.3 1102.84 1130.44C1100.26 1130.47 1099.41 1129.62 1099.38 1127.02C1099.31 1121.16 1099.24 1115.3 1099.19 1109.44C1099.17 1106.98 1100.03 1106.11 1102.51 1106.08C1109.3 1105.99 1116.09 1105.93 1122.87 1105.85H1122.88Z" fill="#1A74B4"/>
<path d="M1114.33 1090.55C1114.3 1087.88 1114.31 1085.21 1114.23 1082.54C1114.18 1081.1 1114.7 1080.37 1116.21 1080.37C1120.45 1080.35 1124.68 1080.3 1128.92 1080.23C1130.32 1080.21 1130.93 1080.85 1130.94 1082.22C1130.99 1087.67 1131.05 1093.13 1131.12 1098.58C1131.14 1099.94 1130.5 1100.58 1129.11 1100.58C1124.87 1100.59 1120.64 1100.64 1116.4 1100.72C1114.98 1100.75 1114.41 1100.1 1114.42 1098.73C1114.42 1096 1114.37 1093.28 1114.34 1090.55H1114.33Z" fill="#1A74B4"/>
<path d="M1186.14 1098.09C1186.11 1095.77 1186.12 1093.45 1186.05 1091.13C1186.02 1089.97 1186.44 1089.44 1187.66 1089.44C1192.36 1089.42 1197.06 1089.37 1201.75 1089.28C1203.04 1089.25 1203.51 1089.8 1203.52 1091.04C1203.55 1095.68 1203.6 1100.32 1203.67 1104.96C1203.69 1106.2 1203.21 1106.74 1201.93 1106.75C1197.29 1106.76 1192.65 1106.8 1188.01 1106.91C1186.62 1106.94 1186.17 1106.38 1186.19 1105.06C1186.23 1102.74 1186.16 1100.42 1186.13 1098.1L1186.14 1098.09Z" fill="#1A74B4"/>
<path d="M1170.59 1107.07C1168.21 1107.1 1165.84 1107.09 1163.46 1107.16C1162.27 1107.2 1161.76 1106.73 1161.76 1105.55C1161.73 1100.8 1161.67 1096.04 1161.61 1091.29C1161.6 1090.21 1162.04 1089.71 1163.16 1089.71C1167.91 1089.69 1172.67 1089.64 1177.42 1089.55C1178.66 1089.53 1179.06 1090.14 1179.07 1091.25C1179.11 1095.95 1179.17 1100.64 1179.23 1105.34C1179.24 1106.49 1178.76 1107.03 1177.56 1107.02C1175.24 1107 1172.92 1107.06 1170.6 1107.08L1170.59 1107.07Z" fill="#1A74B4"/>
<path d="M1186.39 1120.99C1186.36 1118.73 1186.39 1116.47 1186.3 1114.21C1186.24 1112.89 1186.67 1112.3 1188.06 1112.3C1192.7 1112.3 1197.33 1112.23 1201.97 1112.15C1203.2 1112.13 1203.77 1112.57 1203.78 1113.86C1203.8 1118.5 1203.84 1123.13 1203.94 1127.77C1203.97 1129.14 1203.36 1129.62 1202.06 1129.63C1197.48 1129.65 1192.9 1129.7 1188.32 1129.78C1187.01 1129.8 1186.42 1129.32 1186.45 1127.95C1186.5 1125.63 1186.42 1123.31 1186.39 1120.99Z" fill="#1A74B4"/>
<path d="M1210.83 1120.91C1210.8 1118.59 1210.83 1116.27 1210.73 1113.95C1210.68 1112.64 1211.07 1112.03 1212.47 1112.02C1217.11 1112.02 1221.75 1111.96 1226.38 1111.87C1227.75 1111.84 1228.2 1112.41 1228.2 1113.74C1228.2 1118.32 1228.25 1122.9 1228.35 1127.48C1228.38 1128.85 1227.81 1129.35 1226.51 1129.35C1221.93 1129.37 1217.35 1129.42 1212.77 1129.5C1211.48 1129.52 1210.85 1129.08 1210.88 1127.69C1210.93 1125.43 1210.85 1123.17 1210.83 1120.91Z" fill="#1A74B4"/>
<path d="M1161.94 1121.32C1161.91 1119 1161.92 1116.68 1161.85 1114.37C1161.81 1113.12 1162.29 1112.58 1163.56 1112.58C1168.25 1112.56 1172.95 1112.51 1177.64 1112.43C1178.83 1112.41 1179.31 1112.94 1179.32 1114.09C1179.36 1118.78 1179.41 1123.48 1179.48 1128.17C1179.5 1129.32 1179.01 1129.89 1177.84 1129.9C1173.15 1129.94 1168.45 1129.98 1163.76 1130.06C1162.49 1130.08 1162 1129.52 1162.01 1128.28C1162.03 1125.96 1161.97 1123.65 1161.95 1121.33L1161.94 1121.32Z" fill="#1A74B4"/>
<path d="M1120.11 1060.07C1120.08 1057.69 1120.03 1055.31 1120.04 1052.93C1120.04 1051.13 1120.85 1050.15 1122.2 1050.13C1123.57 1050.11 1124.38 1051.09 1124.41 1052.87C1124.48 1057.51 1124.55 1062.16 1124.55 1066.8C1124.55 1067.9 1124.79 1068.45 1125.97 1068.22C1126.14 1068.19 1126.32 1068.22 1126.49 1068.22C1130.82 1068.18 1131.57 1069.09 1130.82 1073.5C1130.65 1074.53 1130.02 1075.03 1129.03 1075.04C1124.68 1075.1 1120.32 1075.16 1115.97 1075.18C1114.8 1075.18 1114.14 1074.61 1114.14 1073.36C1114.14 1068.12 1113.45 1068.24 1118.81 1068.32C1119.99 1068.34 1120.26 1067.95 1120.2 1066.85C1120.09 1064.59 1120.13 1062.32 1120.1 1060.06L1120.11 1060.07Z" fill="#1A74B4"/>
<path d="M1213.58 1149.66C1213.64 1151.55 1212.04 1153.26 1210.13 1153.33C1208.15 1153.41 1206.38 1151.74 1206.38 1149.78C1206.38 1147.91 1208.04 1146.23 1209.92 1146.19C1211.8 1146.16 1213.51 1147.78 1213.58 1149.66Z" fill="#1A74B4"/>
<path d="M1227.5 1153.14C1225.57 1153.15 1223.96 1151.58 1223.91 1149.65C1223.86 1147.66 1225.52 1146 1227.52 1146.03C1229.47 1146.06 1231.04 1147.66 1231.03 1149.59C1231.03 1151.53 1229.43 1153.13 1227.5 1153.14Z" fill="#1A74B4"/>
<path fill-rule="evenodd" clip-rule="evenodd" d="M745.78 1015L682.63 965.88L662.11 980.44L647.83 970.81L642.7 933.67L612.89 909.58C612.89 909.58 594.33 895.4 606.55 890.99C618.77 886.58 632.05 896.55 632.05 896.55L667.4 921.36L763.16 913.59L780.07 923.49L704.98 953.05L742.05 987.85L777.97 980.93L789.59 990.94L745.78 1015.01V1015Z" fill="#23509B"/>
<mask id="mask0_2_3" style="mask-type:luminance" maskUnits="userSpaceOnUse" x="602" y="889" width="188" height="127">
<path d="M745.78 1015L682.63 965.88L662.11 980.44L647.83 970.81L642.7 933.67L612.89 909.58C612.89 909.58 594.33 895.4 606.55 890.99C618.77 886.58 632.05 896.55 632.05 896.55L667.4 921.36L763.16 913.59L780.07 923.49L704.98 953.05L742.05 987.85L777.97 980.93L789.59 990.94L745.78 1015.01V1015Z" fill="white"/>
</mask>
<g mask="url(#mask0_2_3)">
<path fill-rule="evenodd" clip-rule="evenodd" d="M960.38 1328.1L965.76 1316.89L334.64 1009.67L329.25 1020.89L960.38 1328.1Z" fill="#23509B"/>
<path fill-rule="evenodd" clip-rule="evenodd" d="M963.96 1320.63L969.35 1309.41L338.22 1002.19L332.84 1013.41L963.96 1320.63Z" fill="#23509B"/>
<path fill-rule="evenodd" clip-rule="evenodd" d="M967.55 1313.15L972.93 1301.93L341.81 994.71L336.43 1005.93L967.55 1313.15Z" fill="#23509B"/>
<path fill-rule="evenodd" clip-rule="evenodd" d="M971.14 1305.67L976.52 1294.45L345.4 987.23L340.02 998.45L971.14 1305.67Z" fill="#23509B"/>
<path fill-rule="evenodd" clip-rule="evenodd" d="M974.73 1298.19L980.11 1286.97L348.99 979.75L343.6 990.97L974.73 1298.19Z" fill="#23509B"/>
<path fill-rule="evenodd" clip-rule="evenodd" d="M978.32 1290.71L983.7 1279.49L352.57 972.27L347.19 983.49L978.32 1290.71Z" fill="#23509B"/>
<path fill-rule="evenodd" clip-rule="evenodd" d="M981.9 1283.23L987.28 1272.01L356.16 964.79L350.78 976.01L981.9 1283.23Z" fill="#23509B"/>
<path fill-rule="evenodd" clip-rule="evenodd" d="M985.49 1275.75L990.87 1264.53L359.75 957.31L354.37 968.53L985.49 1275.75Z" fill="#23509B"/>
<path fill-rule="evenodd" clip-rule="evenodd" d="M989.079 1268.27L994.459 1257.05L363.339 949.83L357.959 961.05L989.079 1268.27Z" fill="#23509B"/>
<path fill-rule="evenodd" clip-rule="evenodd" d="M992.67 1260.79L998.05 1249.57L366.92 942.35L361.54 953.57L992.67 1260.79Z" fill="#23509B"/>
<path fill-rule="evenodd" clip-rule="evenodd" d="M996.25 1253.31L1001.64 1242.09L370.51 934.88L365.13 946.09L996.25 1253.31Z" fill="#23509B"/>
<path fill-rule="evenodd" clip-rule="evenodd" d="M999.84 1245.83L1005.22 1234.61L374.1 927.4L368.72 938.62L999.84 1245.83Z" fill="#23509B"/>
<path fill-rule="evenodd" clip-rule="evenodd" d="M1003.43 1238.35L1008.81 1227.14L377.69 919.92L372.31 931.14L1003.43 1238.35Z" fill="#23509B"/>
<path fill-rule="evenodd" clip-rule="evenodd" d="M1007.02 1230.88L1012.4 1219.66L381.27 912.44L375.89 923.66L1007.02 1230.88Z" fill="#23509B"/>
<path fill-rule="evenodd" clip-rule="evenodd" d="M1010.6 1223.4L1015.99 1212.18L384.859 904.96L379.479 916.18L1010.6 1223.4Z" fill="#23509B"/>
<path fill-rule="evenodd" clip-rule="evenodd" d="M1014.19 1215.92L1019.57 1204.7L388.45 897.48L383.07 908.7L1014.19 1215.92Z" fill="#23509B"/>
<path fill-rule="evenodd" clip-rule="evenodd" d="M1017.78 1208.44L1023.16 1197.22L392.04 890L386.66 901.22L1017.78 1208.44Z" fill="#23509B"/>
<path fill-rule="evenodd" clip-rule="evenodd" d="M1021.37 1200.96L1026.75 1189.74L395.63 882.52L390.24 893.74L1021.37 1200.96Z" fill="#23509B"/>
<path fill-rule="evenodd" clip-rule="evenodd" d="M1024.95 1193.48L1030.34 1182.26L399.21 875.04L393.83 886.26L1024.95 1193.48Z" fill="#23509B"/>
<path fill-rule="evenodd" clip-rule="evenodd" d="M1028.54 1186L1033.92 1174.78L402.8 867.56L397.42 878.78L1028.54 1186Z" fill="#23509B"/>
<path fill-rule="evenodd" clip-rule="evenodd" d="M1032.13 1178.52L1037.51 1167.3L406.39 860.08L401.01 871.3L1032.13 1178.52Z" fill="#23509B"/>
<path fill-rule="evenodd" clip-rule="evenodd" d="M1035.72 1171.04L1041.1 1159.82L409.98 852.6L404.59 863.82L1035.72 1171.04Z" fill="#23509B"/>
<path fill-rule="evenodd" clip-rule="evenodd" d="M1039.3 1163.56L1044.69 1152.34L413.56 845.13L408.18 856.34L1039.3 1163.56Z" fill="#23509B"/>
<path fill-rule="evenodd" clip-rule="evenodd" d="M1042.89 1156.08L1048.27 1144.86L417.15 837.65L411.77 848.87L1042.89 1156.08Z" fill="#23509B"/>
<path fill-rule="evenodd" clip-rule="evenodd" d="M1046.48 1148.6L1051.86 1137.39L420.74 830.17L415.36 841.39L1046.48 1148.6Z" fill="#23509B"/>
<path fill-rule="evenodd" clip-rule="evenodd" d="M1050.07 1141.12L1055.45 1129.91L424.329 822.69L418.939 833.91L1050.07 1141.12Z" fill="#23509B"/>
<path fill-rule="evenodd" clip-rule="evenodd" d="M1053.66 1133.65L1059.04 1122.43L427.91 815.21L422.53 826.43L1053.66 1133.65Z" fill="#23509B"/>
<path fill-rule="evenodd" clip-rule="evenodd" d="M1057.24 1126.17L1062.62 1114.95L431.5 807.73L426.12 818.95L1057.24 1126.17Z" fill="#23509B"/>
<path fill-rule="evenodd" clip-rule="evenodd" d="M1060.83 1118.69L1066.21 1107.47L435.09 800.25L429.71 811.47L1060.83 1118.69Z" fill="#23509B"/>
<path fill-rule="evenodd" clip-rule="evenodd" d="M1064.42 1111.21L1069.8 1099.99L438.68 792.77L433.3 803.99L1064.42 1111.21Z" fill="#23509B"/>
<path fill-rule="evenodd" clip-rule="evenodd" d="M1068.01 1103.73L1073.39 1092.51L442.26 785.29L436.88 796.51L1068.01 1103.73Z" fill="#23509B"/>
<path fill-rule="evenodd" clip-rule="evenodd" d="M1071.59 1096.25L1076.97 1085.03L445.85 777.81L440.47 789.03L1071.59 1096.25Z" fill="#23509B"/>
<path fill-rule="evenodd" clip-rule="evenodd" d="M1075.18 1088.77L1080.56 1077.55L449.44 770.33L444.06 781.55L1075.18 1088.77Z" fill="#23509B"/>
<path fill-rule="evenodd" clip-rule="evenodd" d="M1078.77 1081.29L1084.15 1070.07L453.03 762.85L447.65 774.07L1078.77 1081.29Z" fill="#23509B"/>
<path fill-rule="evenodd" clip-rule="evenodd" d="M1082.36 1073.81L1113.29 1009.32L482.169 702.1L451.229 766.59L1082.36 1073.81Z" fill="#23509B"/>
</g>
<mask id="mask1_2_3" style="mask-type:luminance" maskUnits="userSpaceOnUse" x="550" y="439" width="719" height="913">
<path d="M1268.43 1187.63C1267.08 1187.11 1266.39 1186.67 1265.88 1186.69C1206.9 1188.19 1147.94 1189.78 1088.91 1191.18C1083.8 1191.3 1084.96 1193.41 1086 1195.96C1091 1208.27 1096.4 1220.59 1100.8 1232.9C1102.93 1238.86 1106.09 1240.16 1113.25 1239.81C1131.19 1238.94 1149.42 1238.74 1168.49 1238.25C1167.85 1239.93 1167.77 1240.65 1167.34 1241.18C1143.44 1270 1106.23 1284.48 1055.32 1284.06C997.61 1283.59 937.56 1268.82 878.74 1264.54L872.76 1262.23L1064.32 761.37L1185.57 807.74L1205.39 755.91L1084.14 709.54L1137.45 570.14C1161.85 568.32 1184.22 552.76 1193.54 528.39C1206.41 494.75 1189.56 457.04 1155.92 444.17C1122.28 431.31 1084.58 448.15 1071.71 481.79C1062.39 506.16 1068.66 532.66 1085.62 550.31L1032.31 689.71L911.07 643.34L891.25 695.17L1012.49 741.54L821.01 1242.2L815.44 1240.05C803.36 1231.49 792.02 1223.23 780.36 1215.26C746.88 1192.35 711.72 1170.87 680.92 1145.74C652.55 1122.58 631.11 1097.54 621.52 1069.33C616.71 1055.19 614.45 1041.34 616.42 1026.87C631.58 1041.16 645.51 1054.13 659.11 1067.25C662.61 1070.63 664.62 1071.38 668.49 1069.35C680.14 1063.25 691.96 1057.28 704.34 1051.89C710.02 1049.41 709.96 1047.48 704.64 1042.51C664.1 1004.56 623.94 966.41 583.59 928.37C581.6 926.49 580.15 924.07 575.96 922.8C564.92 952.81 551.9 982.01 550.53 1015.28C548.88 1055.44 563.89 1094.92 598.03 1134.17C623.25 1163.15 656.04 1187.44 690.25 1210.84C715.65 1228.22 742.03 1244.76 766.67 1262.82C784.71 1276.05 797.27 1290.16 799.4 1307.57C801.09 1321.45 805.48 1335.71 809.03 1351.35C823.99 1340.71 837.82 1331.13 851.21 1321.22C858.04 1316.17 866.61 1313.57 877.15 1313.09C893.9 1312.35 911.39 1314.76 928.82 1317.11C971.09 1322.81 1013.66 1330.33 1055.31 1332.17C1114.08 1334.76 1163.73 1324.83 1200.83 1297.41C1239.78 1268.61 1253.19 1227.77 1268.43 1187.64V1187.63ZM1118.59 541.81C1098.32 534.06 1088.17 511.34 1095.92 491.06C1103.67 470.79 1126.39 460.64 1146.67 468.39C1166.94 476.14 1177.09 498.86 1169.34 519.14C1161.59 539.41 1138.87 549.56 1118.59 541.81Z" fill="white"/>
</mask>
<g mask="url(#mask1_2_3)">
<path fill-rule="evenodd" clip-rule="evenodd" d="M343.77 1219.04L342.93 1221.34L1247.38 1553.72L1248.22 1551.43L343.77 1219.04Z" fill="#244694"/>
<path fill-rule="evenodd" clip-rule="evenodd" d="M341.35 1225.64L346.09 1212.74L1250.54 1545.12L1245.8 1558.02L341.35 1225.64Z" fill="#254694"/>
<path fill-rule="evenodd" clip-rule="evenodd" d="M344.51 1217.04L349.25 1204.14L1253.7 1536.53L1248.96 1549.42L344.51 1217.04Z" fill="#254694"/>
<path fill-rule="evenodd" clip-rule="evenodd" d="M347.67 1208.44L352.41 1195.55L1256.86 1527.93L1252.12 1540.83L347.67 1208.44Z" fill="#254795"/>
<path fill-rule="evenodd" clip-rule="evenodd" d="M350.83 1199.85L355.57 1186.95L1260.01 1519.33L1255.28 1532.23L350.83 1199.85Z" fill="#254795"/>
<path fill-rule="evenodd" clip-rule="evenodd" d="M353.99 1191.25L358.73 1178.35L1263.17 1510.73L1258.44 1523.63L353.99 1191.25Z" fill="#244997"/>
<path fill-rule="evenodd" clip-rule="evenodd" d="M357.15 1182.65L361.89 1169.75L1266.33 1502.13L1261.6 1515.03L357.15 1182.65Z" fill="#234997"/>
<path fill-rule="evenodd" clip-rule="evenodd" d="M360.31 1174.05L365.05 1161.16L1269.49 1493.54L1264.75 1506.43L360.31 1174.05Z" fill="#234A98"/>
<path fill-rule="evenodd" clip-rule="evenodd" d="M363.47 1165.45L368.2 1152.56L1272.65 1484.94L1267.91 1497.84L363.47 1165.45Z" fill="#234A98"/>
<path fill-rule="evenodd" clip-rule="evenodd" d="M366.62 1156.86L371.36 1143.96L1275.81 1476.34L1271.07 1489.24L366.62 1156.86Z" fill="#244B99"/>
<path fill-rule="evenodd" clip-rule="evenodd" d="M369.78 1148.26L374.52 1135.36L1278.97 1467.74L1274.23 1480.64L369.78 1148.26Z" fill="#224C99"/>
<path fill-rule="evenodd" clip-rule="evenodd" d="M372.94 1139.66L377.68 1126.76L1282.13 1459.15L1277.39 1472.04L372.94 1139.66Z" fill="#234C99"/>
<path fill-rule="evenodd" clip-rule="evenodd" d="M376.1 1131.06L380.84 1118.17L1285.29 1450.55L1280.55 1463.45L376.1 1131.06Z" fill="#224D9B"/>
<path fill-rule="evenodd" clip-rule="evenodd" d="M379.26 1122.47L384 1109.57L1288.45 1441.95L1283.71 1454.85L379.26 1122.47Z" fill="#224F9A"/>
<path fill-rule="evenodd" clip-rule="evenodd" d="M382.42 1113.87L387.16 1100.97L1291.61 1433.35L1286.87 1446.25L382.42 1113.87Z" fill="#23509B"/>
<path fill-rule="evenodd" clip-rule="evenodd" d="M385.58 1105.27L390.32 1092.37L1294.77 1424.75L1290.03 1437.65L385.58 1105.27Z" fill="#21519D"/>
<path fill-rule="evenodd" clip-rule="evenodd" d="M388.74 1096.67L393.48 1083.77L1297.93 1416.16L1293.19 1429.05L388.74 1096.67Z" fill="#22539E"/>
<path fill-rule="evenodd" clip-rule="evenodd" d="M391.9 1088.07L396.64 1075.18L1301.09 1407.56L1296.35 1420.46L391.9 1088.07Z" fill="#21549E"/>
<path fill-rule="evenodd" clip-rule="evenodd" d="M395.06 1079.48L399.8 1066.58L1304.25 1398.96L1299.51 1411.86L395.06 1079.48Z" fill="#2155A0"/>
<path fill-rule="evenodd" clip-rule="evenodd" d="M398.22 1070.88L402.96 1057.98L1307.41 1390.36L1302.67 1403.26L398.22 1070.88Z" fill="#2257A0"/>
<path fill-rule="evenodd" clip-rule="evenodd" d="M401.38 1062.28L406.12 1049.38L1310.57 1381.77L1305.83 1394.66L401.38 1062.28Z" fill="#2058A1"/>
<path fill-rule="evenodd" clip-rule="evenodd" d="M404.54 1053.68L409.28 1040.79L1313.73 1373.17L1308.99 1386.06L404.54 1053.68Z" fill="#2259A2"/>
<path fill-rule="evenodd" clip-rule="evenodd" d="M407.7 1045.08L412.44 1032.19L1316.89 1364.57L1312.15 1377.47L407.7 1045.08Z" fill="#215BA2"/>
<path fill-rule="evenodd" clip-rule="evenodd" d="M410.86 1036.49L415.6 1023.59L1320.05 1355.97L1315.31 1368.87L410.86 1036.49Z" fill="#1E5CA4"/>
<path fill-rule="evenodd" clip-rule="evenodd" d="M414.02 1027.89L418.76 1014.99L1323.21 1347.37L1318.47 1360.27L414.02 1027.89Z" fill="#1F5EA5"/>
<path fill-rule="evenodd" clip-rule="evenodd" d="M417.18 1019.29L421.92 1006.39L1326.37 1338.78L1321.63 1351.67L417.18 1019.29Z" fill="#1F60A6"/>
<path fill-rule="evenodd" clip-rule="evenodd" d="M420.34 1010.69L425.08 997.8L1329.53 1330.18L1324.79 1343.08L420.34 1010.69Z" fill="#2062A7"/>
<path fill-rule="evenodd" clip-rule="evenodd" d="M423.5 1002.1L428.24 989.2L1332.69 1321.58L1327.95 1334.48L423.5 1002.1Z" fill="#1E63A9"/>
<path fill-rule="evenodd" clip-rule="evenodd" d="M426.66 993.5L431.4 980.6L1335.85 1312.98L1331.11 1325.88L426.66 993.5Z" fill="#1D65AA"/>
<path fill-rule="evenodd" clip-rule="evenodd" d="M429.82 984.9L434.56 972L1339.01 1304.39L1334.27 1317.28L429.82 984.9Z" fill="#1C67AB"/>
<path fill-rule="evenodd" clip-rule="evenodd" d="M432.98 976.3L437.72 963.41L1342.17 1295.79L1337.43 1308.68L432.98 976.3Z" fill="#1C6AAD"/>
<path fill-rule="evenodd" clip-rule="evenodd" d="M436.14 967.7L440.88 954.81L1345.33 1287.19L1340.59 1300.09L436.14 967.7Z" fill="#1C6BAE"/>
<path fill-rule="evenodd" clip-rule="evenodd" d="M439.3 959.11L444.04 946.21L1348.49 1278.59L1343.75 1291.49L439.3 959.11Z" fill="#1B6DAF"/>
<path fill-rule="evenodd" clip-rule="evenodd" d="M442.46 950.51L447.2 937.61L1351.65 1269.99L1346.91 1282.89L442.46 950.51Z" fill="#1D70B1"/>
<path fill-rule="evenodd" clip-rule="evenodd" d="M445.62 941.91L450.36 929.01L1354.81 1261.4L1350.07 1274.29L445.62 941.91Z" fill="#1C72B1"/>
<path fill-rule="evenodd" clip-rule="evenodd" d="M448.78 933.31L453.52 920.42L1357.96 1252.8L1353.23 1265.7L448.78 933.31Z" fill="#1A74B4"/>
<path fill-rule="evenodd" clip-rule="evenodd" d="M451.94 924.72L456.68 911.82L1361.12 1244.2L1356.39 1257.1L451.94 924.72Z" fill="#1B76B5"/>
<path fill-rule="evenodd" clip-rule="evenodd" d="M455.1 916.12L459.84 903.22L1364.28 1235.6L1359.54 1248.5L455.1 916.12Z" fill="#1979B6"/>
<path fill-rule="evenodd" clip-rule="evenodd" d="M458.26 907.52L462.99 894.62L1367.44 1227L1362.7 1239.9L458.26 907.52Z" fill="#1C7CB9"/>
<path fill-rule="evenodd" clip-rule="evenodd" d="M461.42 898.92L466.15 886.03L1370.6 1218.41L1365.86 1231.3L461.42 898.92Z" fill="#197EBB"/>
<path fill-rule="evenodd" clip-rule="evenodd" d="M464.57 890.32L469.31 877.43L1373.76 1209.81L1369.02 1222.71L464.57 890.32Z" fill="#1B81BB"/>
<path fill-rule="evenodd" clip-rule="evenodd" d="M467.73 881.73L472.47 868.83L1376.92 1201.21L1372.18 1214.11L467.73 881.73Z" fill="#1B83BD"/>
<path fill-rule="evenodd" clip-rule="evenodd" d="M470.89 873.13L475.63 860.23L1380.08 1192.61L1375.34 1205.51L470.89 873.13Z" fill="#1987C0"/>
<path fill-rule="evenodd" clip-rule="evenodd" d="M474.05 864.53L478.79 851.63L1383.24 1184.02L1378.5 1196.91L474.05 864.53Z" fill="#1888C1"/>
<path fill-rule="evenodd" clip-rule="evenodd" d="M477.21 855.93L481.95 843.04L1386.4 1175.42L1381.66 1188.31L477.21 855.93Z" fill="#178CC4"/>
<path fill-rule="evenodd" clip-rule="evenodd" d="M480.37 847.34L485.11 834.44L1389.56 1166.82L1384.82 1179.72L480.37 847.34Z" fill="#178FC5"/>
<path fill-rule="evenodd" clip-rule="evenodd" d="M483.53 838.74L488.27 825.84L1392.72 1158.22L1387.98 1171.12L483.53 838.74Z" fill="#1391C7"/>
<path fill-rule="evenodd" clip-rule="evenodd" d="M486.69 830.14L491.43 817.24L1395.88 1149.62L1391.14 1162.52L486.69 830.14Z" fill="#1496CA"/>
<path fill-rule="evenodd" clip-rule="evenodd" d="M489.85 821.54L494.59 808.64L1399.04 1141.03L1394.3 1153.92L489.85 821.54Z" fill="#1698CC"/>
<path fill-rule="evenodd" clip-rule="evenodd" d="M493.01 812.94L497.75 800.05L1402.2 1132.43L1397.46 1145.33L493.01 812.94Z" fill="#179BCD"/>
<path fill-rule="evenodd" clip-rule="evenodd" d="M496.17 804.35L500.91 791.45L1405.36 1123.83L1400.62 1136.73L496.17 804.35Z" fill="#149ECE"/>
<path fill-rule="evenodd" clip-rule="evenodd" d="M499.33 795.75L504.07 782.85L1408.52 1115.23L1403.78 1128.13L499.33 795.75Z" fill="#10A0D1"/>
<path fill-rule="evenodd" clip-rule="evenodd" d="M502.49 787.15L507.23 774.25L1411.68 1106.64L1406.94 1119.53L502.49 787.15Z" fill="#11A3D3"/>
<path fill-rule="evenodd" clip-rule="evenodd" d="M505.65 778.55L510.39 765.66L1414.84 1098.04L1410.1 1110.93L505.65 778.55Z" fill="#12A6D5"/>
<path fill-rule="evenodd" clip-rule="evenodd" d="M508.81 769.95L513.55 757.06L1418 1089.44L1413.26 1102.34L508.81 769.95Z" fill="#15A9D5"/>
<path fill-rule="evenodd" clip-rule="evenodd" d="M511.97 761.36L516.71 748.46L1421.16 1080.84L1416.42 1093.74L511.97 761.36Z" fill="#11ABD8"/>
<path fill-rule="evenodd" clip-rule="evenodd" d="M515.13 752.76L519.87 739.86L1424.32 1072.24L1419.58 1085.14L515.13 752.76Z" fill="#0BAEDA"/>
<path fill-rule="evenodd" clip-rule="evenodd" d="M518.29 744.16L523.03 731.26L1427.48 1063.65L1422.74 1076.54L518.29 744.16Z" fill="#0CB0DA"/>
<path fill-rule="evenodd" clip-rule="evenodd" d="M521.45 735.56L526.19 722.67L1430.64 1055.05L1425.9 1067.95L521.45 735.56Z" fill="#0EB3DC"/>
<path fill-rule="evenodd" clip-rule="evenodd" d="M524.61 726.97L529.35 714.07L1433.8 1046.45L1429.06 1059.35L524.61 726.97Z" fill="#0BB5DF"/>
<path fill-rule="evenodd" clip-rule="evenodd" d="M527.77 718.37L532.51 705.47L1436.96 1037.85L1432.22 1050.75L527.77 718.37Z" fill="#08B7E0"/>
<path fill-rule="evenodd" clip-rule="evenodd" d="M530.93 709.77L535.67 696.87L1440.12 1029.26L1435.38 1042.15L530.93 709.77Z" fill="#10BBE2"/>
<path fill-rule="evenodd" clip-rule="evenodd" d="M534.09 701.17L538.83 688.28L1443.28 1020.66L1438.54 1033.55L534.09 701.17Z" fill="#11BCE3"/>
<path fill-rule="evenodd" clip-rule="evenodd" d="M537.25 692.57L541.99 679.68L1446.44 1012.06L1441.7 1024.96L537.25 692.57Z" fill="#06BEE4"/>
<path fill-rule="evenodd" clip-rule="evenodd" d="M540.41 683.98L545.15 671.08L1449.6 1003.46L1444.86 1016.36L540.41 683.98Z" fill="#0AC1E7"/>
<path fill-rule="evenodd" clip-rule="evenodd" d="M543.57 675.38L548.31 662.48L1452.75 994.86L1448.02 1007.76L543.57 675.38Z" fill="#12C1E7"/>
<path fill-rule="evenodd" clip-rule="evenodd" d="M546.73 666.78L551.47 653.88L1455.91 986.27L1451.17 999.16L546.73 666.78Z" fill="#1EC2E6"/>
<path fill-rule="evenodd" clip-rule="evenodd" d="M549.89 658.18L554.63 645.29L1459.07 977.67L1454.33 990.57L549.89 658.18Z" fill="#22C2E6"/>
<path fill-rule="evenodd" clip-rule="evenodd" d="M553.05 649.59L557.78 636.69L1462.23 969.07L1457.49 981.97L553.05 649.59Z" fill="#29C3E7"/>
<path fill-rule="evenodd" clip-rule="evenodd" d="M556.21 640.99L560.94 628.09L1465.39 960.47L1460.65 973.37L556.21 640.99Z" fill="#30C3E6"/>
<path fill-rule="evenodd" clip-rule="evenodd" d="M559.36 632.39L564.1 619.49L1468.55 951.88L1463.81 964.77L559.36 632.39Z" fill="#36C4E6"/>
<path fill-rule="evenodd" clip-rule="evenodd" d="M562.52 623.79L567.26 610.9L1471.71 943.28L1466.97 956.17L562.52 623.79Z" fill="#38C4E6"/>
<path fill-rule="evenodd" clip-rule="evenodd" d="M565.68 615.19L570.42 602.3L1474.87 934.68L1470.13 947.58L565.68 615.19Z" fill="#3BC4E6"/>
<path fill-rule="evenodd" clip-rule="evenodd" d="M568.84 606.6L573.58 593.7L1478.03 926.08L1473.29 938.98L568.84 606.6Z" fill="#3DC5E6"/>
<path fill-rule="evenodd" clip-rule="evenodd" d="M572 598L576.74 585.1L1481.19 917.48L1476.45 930.38L572 598Z" fill="#40C5E5"/>
<path fill-rule="evenodd" clip-rule="evenodd" d="M575.16 589.4L579.9 576.5L1484.35 908.89L1479.61 921.78L575.16 589.4Z" fill="#41C5E6"/>
<path fill-rule="evenodd" clip-rule="evenodd" d="M578.32 580.8L583.06 567.91L1487.51 900.29L1482.77 913.19L578.32 580.8Z" fill="#43C5E6"/>
<path fill-rule="evenodd" clip-rule="evenodd" d="M581.48 572.21L586.22 559.31L1490.67 891.69L1485.93 904.59L581.48 572.21Z" fill="#44C5E5"/>
<path fill-rule="evenodd" clip-rule="evenodd" d="M584.64 563.61L589.38 550.71L1493.83 883.09L1489.09 895.99L584.64 563.61Z" fill="#48C6E6"/>
<path fill-rule="evenodd" clip-rule="evenodd" d="M587.8 555.01L592.54 542.11L1496.99 874.49L1492.25 887.39L587.8 555.01Z" fill="#4AC6E6"/>
<path fill-rule="evenodd" clip-rule="evenodd" d="M590.96 546.41L595.7 533.51L1500.15 865.9L1495.41 878.79L590.96 546.41Z" fill="#4BC7E6"/>
<path fill-rule="evenodd" clip-rule="evenodd" d="M594.12 537.81L598.86 524.92L1503.31 857.3L1498.57 870.2L594.12 537.81Z" fill="#4BC7E6"/>
<path fill-rule="evenodd" clip-rule="evenodd" d="M597.28 529.22L602.02 516.32L1506.47 848.7L1501.73 861.6L597.28 529.22Z" fill="#4DC7E6"/>
<path fill-rule="evenodd" clip-rule="evenodd" d="M600.44 520.62L605.18 507.72L1509.63 840.1L1504.89 853L600.44 520.62Z" fill="#4FC7E6"/>
<path fill-rule="evenodd" clip-rule="evenodd" d="M603.6 512.02L608.34 499.12L1512.79 831.51L1508.05 844.4L603.6 512.02Z" fill="#51C7E5"/>
<path fill-rule="evenodd" clip-rule="evenodd" d="M606.76 503.42L611.5 490.53L1515.95 822.91L1511.21 835.8L606.76 503.42Z" fill="#53C8E6"/>
<path fill-rule="evenodd" clip-rule="evenodd" d="M609.92 494.82L614.66 481.93L1519.11 814.31L1514.37 827.21L609.92 494.82Z" fill="#53C8E6"/>
<path fill-rule="evenodd" clip-rule="evenodd" d="M613.08 486.23L617.82 473.33L1522.27 805.71L1517.53 818.61L613.08 486.23Z" fill="#54C8E6"/>
<path fill-rule="evenodd" clip-rule="evenodd" d="M616.24 477.63L620.98 464.73L1525.43 797.11L1520.69 810.01L616.24 477.63Z" fill="#56C8E5"/>
<path fill-rule="evenodd" clip-rule="evenodd" d="M619.4 469.03L624.14 456.13L1528.59 788.52L1523.85 801.41L619.4 469.03Z" fill="#56C8E6"/>
<path fill-rule="evenodd" clip-rule="evenodd" d="M622.56 460.43L627.3 447.54L1531.75 779.92L1527.01 792.82L622.56 460.43Z" fill="#56C8E6"/>
<path fill-rule="evenodd" clip-rule="evenodd" d="M625.72 451.84L630.46 438.94L1534.91 771.32L1530.17 784.22L625.72 451.84Z" fill="#57C9E6"/>
<path fill-rule="evenodd" clip-rule="evenodd" d="M628.88 443.24L633.62 430.34L1538.07 762.72L1533.33 775.62L628.88 443.24Z" fill="#57C9E6"/>
<path fill-rule="evenodd" clip-rule="evenodd" d="M632.04 434.64L636.78 421.74L1541.23 754.13L1536.49 767.02L632.04 434.64Z" fill="#59C9E5"/>
<path fill-rule="evenodd" clip-rule="evenodd" d="M635.2 426.04L639.94 413.15L1544.39 745.53L1539.65 758.42L635.2 426.04Z" fill="#59C9E6"/>
<path fill-rule="evenodd" clip-rule="evenodd" d="M638.36 417.44L643.1 404.55L1547.55 736.93L1542.81 749.83L638.36 417.44Z" fill="#5CC9E6"/>
<path fill-rule="evenodd" clip-rule="evenodd" d="M641.52 408.85L646.26 395.95L1550.7 728.33L1545.97 741.23L641.52 408.85Z" fill="#5CC9E6"/>
<path fill-rule="evenodd" clip-rule="evenodd" d="M644.68 400.25L649.42 387.35L1553.86 719.73L1549.12 732.63L644.68 400.25Z" fill="#5ECAE6"/>
<path fill-rule="evenodd" clip-rule="evenodd" d="M647.84 391.65L652.58 378.75L1557.02 711.14L1552.28 724.03L647.84 391.65Z" fill="#5DCAE7"/>
<path fill-rule="evenodd" clip-rule="evenodd" d="M651 383.05L655.73 370.16L1560.18 702.54L1555.44 715.44L651 383.05Z" fill="#5DCAE7"/>
<path fill-rule="evenodd" clip-rule="evenodd" d="M654.15 374.46L658.89 361.56L1563.34 693.94L1558.6 706.84L654.15 374.46Z" fill="#5FCAE6"/>
<path fill-rule="evenodd" clip-rule="evenodd" d="M657.31 365.86L662.05 352.96L1566.5 685.34L1561.76 698.24L657.31 365.86Z" fill="#5FCAE6"/>
<path fill-rule="evenodd" clip-rule="evenodd" d="M660.47 357.26L665.21 344.36L1569.66 676.75L1564.92 689.64L660.47 357.26Z" fill="#5FCAE6"/>
<path fill-rule="evenodd" clip-rule="evenodd" d="M663.63 348.66L668.37 335.77L1572.82 668.15L1568.08 681.04L663.63 348.66Z" fill="#5FCAE7"/>
<path fill-rule="evenodd" clip-rule="evenodd" d="M666.79 340.06L671.53 327.17L1575.98 659.55L1571.24 672.45L666.79 340.06Z" fill="#60CAE7"/>
<path fill-rule="evenodd" clip-rule="evenodd" d="M669.95 331.47L674.69 318.57L1579.14 650.95L1574.4 663.85L669.95 331.47Z" fill="#60CAE7"/>
<path fill-rule="evenodd" clip-rule="evenodd" d="M673.11 322.87L677.85 309.97L1582.3 642.35L1577.56 655.25L673.11 322.87Z" fill="#60CAE7"/>
<path fill-rule="evenodd" clip-rule="evenodd" d="M676.27 314.27L681.01 301.37L1585.46 633.76L1580.72 646.65L676.27 314.27Z" fill="#60CAE7"/>
<path fill-rule="evenodd" clip-rule="evenodd" d="M679.43 305.67L684.17 292.78L1588.62 625.16L1583.88 638.06L679.43 305.67Z" fill="#60CAE7"/>
<path fill-rule="evenodd" clip-rule="evenodd" d="M682.59 297.07L687.33 284.18L1591.78 616.56L1587.04 629.46L682.59 297.07Z" fill="#60CAE7"/>
<path fill-rule="evenodd" clip-rule="evenodd" d="M685.75 288.48L713 214.34L1617.44 546.72L1590.2 620.86L685.75 288.48Z" fill="#60CAE7"/>
</g>
<path d="M450.72 1556.36H388.25L375.93 1585.27H352.02L408.24 1460.34H431.08L487.48 1585.27H463.21L450.72 1556.36ZM443.05 1538.16L419.49 1483.55L396.11 1538.16H443.05Z" fill="#2E68B0"/>
<path d="M614.37 1460.34V1585.27H595.27L526.38 1500.67V1585.27H503.36V1460.34H522.46L591.35 1544.94V1460.34H614.37Z" fill="#2E68B0"/>
<path d="M671.57 1578.76C661.4 1573.23 653.42 1565.58 647.65 1555.83C641.88 1546.08 638.99 1535.07 638.99 1522.81C638.99 1510.55 641.9 1499.55 647.74 1489.79C653.57 1480.04 661.57 1472.39 671.74 1466.86C681.91 1461.33 693.3 1458.56 705.92 1458.56C716.15 1458.56 725.49 1460.34 733.94 1463.91C742.39 1467.48 749.53 1472.66 755.36 1479.44L740.37 1493.54C731.33 1483.78 720.2 1478.9 706.99 1478.9C698.42 1478.9 690.75 1480.77 683.97 1484.52C677.19 1488.27 671.89 1493.47 668.09 1500.14C664.28 1506.8 662.38 1514.36 662.38 1522.8C662.38 1531.24 664.28 1538.8 668.09 1545.47C671.9 1552.13 677.19 1557.34 683.97 1561.09C690.75 1564.84 698.43 1566.71 706.99 1566.71C720.2 1566.71 731.32 1561.77 740.37 1551.9L755.36 1566.18C749.53 1572.96 742.36 1578.14 733.85 1581.71C725.34 1585.28 715.97 1587.06 705.74 1587.06C693.13 1587.06 681.74 1584.29 671.56 1578.76H671.57Z" fill="#2E68B0"/>
<path d="M888.68 1460.34V1585.27H865.48V1531.73H800.87V1585.27H777.67V1460.34H800.87V1511.92H865.48V1460.34H888.68Z" fill="#2E68B0"/>
<path d="M946.15 1578.76C935.92 1573.23 927.88 1565.55 922.06 1555.74C916.23 1545.92 913.31 1534.95 913.31 1522.81C913.31 1510.67 916.22 1499.7 922.06 1489.88C927.89 1480.06 935.92 1472.39 946.15 1466.86C956.38 1461.33 967.86 1458.56 980.59 1458.56C993.32 1458.56 1004.8 1461.33 1015.03 1466.86C1025.26 1472.39 1033.29 1480.04 1039.12 1489.79C1044.95 1499.55 1047.87 1510.56 1047.87 1522.81C1047.87 1535.06 1044.95 1546.07 1039.12 1555.83C1033.29 1565.59 1025.26 1573.23 1015.03 1578.76C1004.8 1584.29 993.31 1587.06 980.59 1587.06C967.87 1587.06 956.38 1584.29 946.15 1578.76ZM1003.08 1561.09C1009.74 1557.34 1014.98 1552.11 1018.79 1545.38C1022.6 1538.66 1024.5 1531.13 1024.5 1522.8C1024.5 1514.47 1022.6 1506.95 1018.79 1500.22C1014.98 1493.5 1009.75 1488.26 1003.08 1484.51C996.42 1480.76 988.92 1478.89 980.59 1478.89C972.26 1478.89 964.76 1480.76 958.1 1484.51C951.44 1488.26 946.2 1493.5 942.39 1500.22C938.58 1506.94 936.68 1514.47 936.68 1522.8C936.68 1531.13 938.58 1538.66 942.39 1545.38C946.2 1552.1 951.43 1557.34 958.1 1561.09C964.76 1564.84 972.26 1566.71 980.59 1566.71C988.92 1566.71 996.41 1564.84 1003.08 1561.09Z" fill="#2E68B0"/>
<path d="M1154.25 1585.27L1128.73 1548.68C1127.66 1548.8 1126.05 1548.86 1123.91 1548.86H1095.71V1585.27H1072.51V1460.34H1123.91C1134.74 1460.34 1144.17 1462.12 1152.2 1465.69C1160.23 1469.26 1166.39 1474.38 1170.67 1481.04C1174.95 1487.7 1177.1 1495.62 1177.1 1504.78C1177.1 1513.94 1174.81 1522.27 1170.23 1529.05C1165.65 1535.83 1159.08 1540.89 1150.51 1544.22L1179.24 1585.27H1154.25ZM1145.86 1486.4C1140.62 1482.12 1132.95 1479.97 1122.84 1479.97H1095.71V1529.76H1122.84C1132.95 1529.76 1140.62 1527.59 1145.86 1523.24C1151.09 1518.9 1153.71 1512.74 1153.71 1504.77C1153.71 1496.8 1151.09 1490.67 1145.86 1486.39V1486.4Z" fill="#2E68B0"/>
<path d="M1284.42 1465.7C1292.45 1469.27 1298.61 1474.39 1302.89 1481.05C1307.17 1487.71 1309.32 1495.63 1309.32 1504.79C1309.32 1513.95 1307.18 1521.72 1302.89 1528.44C1298.61 1535.16 1292.45 1540.31 1284.42 1543.88C1276.39 1547.45 1266.96 1549.23 1256.13 1549.23H1227.93V1585.28H1204.73V1460.35H1256.13C1266.96 1460.35 1276.39 1462.13 1284.42 1465.7ZM1278.08 1523.17C1283.31 1518.89 1285.93 1512.76 1285.93 1504.79C1285.93 1496.82 1283.31 1490.69 1278.08 1486.41C1272.84 1482.13 1265.17 1479.98 1255.06 1479.98H1227.93V1529.59H1255.06C1265.17 1529.59 1272.84 1527.45 1278.08 1523.17Z" fill="#12A6D5"/>
<path d="M1484.58 1460.34H1507.78V1585.27H1484.58V1460.34Z" fill="#12A6D5"/>
<path d="M1652.52 1460.34V1585.27H1633.42L1564.53 1500.67V1585.27H1541.51V1460.34H1560.61L1629.5 1544.94V1460.34H1652.52Z" fill="#12A6D5"/>
<path d="M1711.41 1479.98H1670V1460.35H1776.01V1479.98H1734.61V1585.28H1711.41V1479.98Z" fill="#12A6D5"/>
<path d="M1358.86 1544.84C1358.84 1545.03 1358.69 1545.09 1358.58 1545.17C1355.62 1547.42 1352.66 1549.67 1349.69 1551.92C1346.3 1554.5 1342.91 1557.07 1339.52 1559.65C1337.92 1560.86 1336.32 1562.06 1334.73 1563.29C1334.43 1563.52 1334.36 1563.29 1334.25 1563.14C1332.84 1561.15 1331.59 1559.07 1330.4 1556.95C1328.17 1552.99 1326.38 1548.84 1324.94 1544.54C1324.78 1544.07 1324.92 1543.95 1325.35 1543.82C1334.84 1541.11 1344.33 1538.39 1353.82 1535.66C1354.14 1535.57 1354.27 1535.61 1354.39 1535.93C1355.47 1539 1356.92 1541.89 1358.72 1544.61C1358.77 1544.69 1358.82 1544.77 1358.87 1544.85L1358.86 1544.84Z" fill="#F69D29"/>
<path d="M1356.81 1583.66C1357.4 1582.96 1357.72 1582.13 1358.21 1581.4C1359.01 1580.18 1359.78 1578.95 1360.53 1577.7C1361.46 1576.15 1362.4 1574.6 1363.37 1573.08C1363.96 1572.15 1364.55 1571.21 1365.12 1570.27C1366.26 1568.38 1367.44 1566.51 1368.59 1564.62C1369.93 1562.4 1371.3 1560.2 1372.67 1558C1372.8 1557.79 1372.92 1557.59 1373.27 1557.78C1376.05 1559.36 1379.06 1560.35 1382.14 1561.14C1382.57 1561.25 1382.69 1561.35 1382.6 1561.84C1381.4 1568.08 1380.23 1574.33 1379.06 1580.58C1378.42 1584 1377.78 1587.42 1377.15 1590.84C1377.08 1591.23 1376.98 1591.37 1376.53 1591.27C1373.38 1590.55 1370.28 1589.67 1367.25 1588.54C1366.38 1588.22 1365.51 1587.91 1364.66 1587.55C1362.01 1586.41 1359.41 1585.19 1356.91 1583.76C1356.87 1583.74 1356.83 1583.7 1356.81 1583.68V1583.66Z" fill="#E01584"/>
<path d="M1352.14 1521.91C1351.99 1523.15 1352.14 1524.58 1352.22 1526C1352.32 1527.63 1352.57 1529.26 1352.97 1530.86C1353.06 1531.23 1352.97 1531.36 1352.61 1531.46C1347.22 1532.99 1341.84 1534.54 1336.46 1536.08C1332.31 1537.27 1328.17 1538.45 1324.02 1539.65C1323.67 1539.75 1323.55 1539.7 1323.47 1539.34C1322.95 1537.22 1322.58 1535.07 1322.22 1532.91C1321.97 1531.36 1321.88 1529.8 1321.71 1528.24C1321.4 1525.5 1321.55 1522.75 1321.52 1520.01C1321.52 1519.51 1321.6 1519.01 1321.63 1518.52C1321.64 1518.25 1321.81 1518.25 1322 1518.27C1322.88 1518.35 1323.76 1518.45 1324.65 1518.5C1325.55 1518.54 1326.45 1518.68 1327.35 1518.76C1328.7 1518.89 1330.04 1519.06 1331.39 1519.13C1332.23 1519.18 1333.07 1519.27 1333.91 1519.35C1335.26 1519.47 1336.6 1519.65 1337.95 1519.72C1338.81 1519.77 1339.66 1519.86 1340.52 1519.94C1341.85 1520.06 1343.18 1520.22 1344.52 1520.31C1345.33 1520.37 1346.13 1520.44 1346.93 1520.52C1348.33 1520.66 1349.72 1520.78 1351.12 1520.91C1351.2 1520.91 1351.28 1520.91 1351.36 1520.91C1351.89 1520.92 1352.14 1521.25 1352.13 1521.91H1352.14Z" fill="#299B49"/>
<path d="M1391.99 1592.89C1388.33 1592.91 1385.04 1592.66 1381.75 1592.21C1381.42 1592.16 1381.35 1592.07 1381.42 1591.75C1383.08 1582.95 1384.74 1574.15 1386.4 1565.35C1386.59 1564.36 1386.8 1563.37 1386.96 1562.37C1387.01 1562.05 1387.14 1562.02 1387.41 1562.05C1390.55 1562.42 1393.69 1562.38 1396.82 1561.94C1397.24 1561.88 1397.4 1561.97 1397.48 1562.42C1398.75 1569.26 1400.05 1576.09 1401.34 1582.92C1401.88 1585.8 1402.41 1588.68 1402.97 1591.56C1403.04 1591.92 1402.93 1591.99 1402.62 1592.04C1400.18 1592.42 1397.74 1592.67 1395.28 1592.8C1394.07 1592.87 1392.87 1592.86 1392 1592.88L1391.99 1592.89Z" fill="#F69D29"/>
<path d="M1322.11 1513.39C1322.36 1511.7 1322.62 1510.02 1322.99 1508.35C1323.32 1506.84 1323.66 1505.32 1324.09 1503.84C1324.55 1502.27 1325.01 1500.71 1325.59 1499.18C1326.13 1497.74 1326.67 1496.3 1327.3 1494.89C1327.52 1494.39 1327.76 1493.9 1327.96 1493.39C1328.09 1493.06 1328.26 1493.15 1328.48 1493.26C1329.91 1493.98 1331.34 1494.68 1332.77 1495.4C1339.27 1498.64 1345.76 1501.89 1352.26 1505.13C1353.22 1505.61 1354.18 1506.08 1355.16 1506.53C1355.5 1506.68 1355.52 1506.84 1355.38 1507.15C1354.46 1509.21 1353.76 1511.34 1353.22 1513.53C1353.02 1514.36 1352.86 1515.2 1352.68 1516.04C1352.56 1516.61 1352.43 1516.7 1351.87 1516.58C1350.88 1516.37 1349.86 1516.36 1348.85 1516.26C1347.96 1516.17 1347.07 1516.08 1346.17 1516C1345.24 1515.92 1344.31 1515.86 1343.38 1515.78C1342.55 1515.71 1341.72 1515.63 1340.89 1515.55C1340.28 1515.49 1339.67 1515.44 1339.06 1515.38C1338.17 1515.3 1337.28 1515.21 1336.39 1515.13C1335.46 1515.05 1334.53 1514.98 1333.6 1514.89C1332.69 1514.81 1331.78 1514.72 1330.87 1514.63C1329.97 1514.55 1329.07 1514.48 1328.18 1514.4C1327.29 1514.32 1326.4 1514.22 1325.5 1514.15C1324.52 1514.07 1323.54 1514 1322.56 1513.94C1322.17 1513.92 1322.09 1513.85 1322.11 1513.39Z" fill="#0A7DBC"/>
<path d="M1416.7 1492.28C1416.43 1492.08 1416.15 1491.89 1415.89 1491.68C1414.48 1490.55 1412.98 1489.55 1411.41 1488.66C1410.37 1488.07 1409.34 1487.45 1408.22 1487.01C1408.03 1486.94 1408.01 1486.81 1408.08 1486.62C1408.83 1484.74 1409.59 1482.87 1410.29 1480.98C1411.01 1479.06 1411.75 1477.15 1412.48 1475.23C1413.06 1473.7 1413.66 1472.18 1414.26 1470.66C1415.05 1468.64 1415.78 1466.6 1416.56 1464.58C1417.26 1462.77 1417.97 1460.97 1418.69 1459.17C1419.04 1458.29 1419.07 1458.28 1419.9 1458.65C1424.18 1460.57 1428.25 1462.85 1432.07 1465.57C1433.81 1466.81 1435.5 1468.13 1437.14 1469.5C1437.34 1469.67 1437.35 1469.77 1437.18 1469.96C1435.97 1471.26 1434.77 1472.56 1433.57 1473.87C1431.67 1475.95 1429.78 1478.03 1427.88 1480.11C1426.63 1481.48 1425.37 1482.84 1424.11 1484.2C1422.84 1485.57 1421.55 1486.92 1420.3 1488.31C1419.25 1489.48 1418.21 1490.65 1417.11 1491.77C1416.95 1491.93 1416.91 1492.18 1416.68 1492.28H1416.7Z" fill="#F69D29"/>
<path d="M1343.16 1472.12C1343.26 1472.21 1343.35 1472.28 1343.42 1472.36C1344.94 1474.03 1346.46 1475.71 1347.98 1477.38C1349.05 1478.56 1350.13 1479.73 1351.21 1480.91C1353.19 1483.09 1355.17 1485.26 1357.16 1487.44C1358.29 1488.68 1359.43 1489.91 1360.56 1491.14C1361.59 1492.27 1362.61 1493.41 1363.66 1494.52C1363.89 1494.76 1363.75 1494.86 1363.59 1495.02C1361.64 1496.94 1359.95 1499.07 1358.46 1501.36C1358.23 1501.71 1357.99 1502.06 1357.8 1502.43C1357.62 1502.77 1357.45 1502.82 1357.08 1502.65C1352.25 1500.33 1347.49 1497.86 1342.69 1495.49C1338.63 1493.48 1334.59 1491.45 1330.54 1489.43C1330.2 1489.26 1330.1 1489.15 1330.32 1488.77C1331.43 1486.82 1332.62 1484.91 1333.89 1483.06C1334.94 1481.53 1336.04 1480.04 1337.21 1478.6C1337.9 1477.75 1338.63 1476.94 1339.35 1476.12C1340.49 1474.83 1341.69 1473.6 1342.9 1472.38C1342.98 1472.3 1343.06 1472.23 1343.16 1472.13V1472.12Z" fill="#299B49"/>
<path d="M1369.13 1555.39C1368.99 1555.64 1368.86 1555.9 1368.71 1556.14C1366.24 1560.12 1363.77 1564.1 1361.3 1568.09C1358.89 1571.99 1356.48 1575.89 1354.07 1579.8C1353.81 1580.23 1353.53 1580.64 1353.29 1581.08C1353.16 1581.31 1353.05 1581.4 1352.81 1581.22C1351.33 1580.18 1349.86 1579.13 1348.43 1578.02C1347.37 1577.2 1346.37 1576.31 1345.32 1575.47C1344.97 1575.19 1344.65 1574.86 1344.32 1574.56C1343.32 1573.64 1342.31 1572.71 1341.38 1571.72C1340.03 1570.29 1338.69 1568.85 1337.45 1567.32C1337.22 1567.04 1337.22 1566.89 1337.57 1566.61C1338.82 1565.63 1340.1 1564.69 1341.36 1563.73C1342.68 1562.73 1344 1561.74 1345.32 1560.75C1350.62 1556.77 1355.89 1552.75 1361.16 1548.73C1361.47 1548.49 1361.63 1548.45 1361.92 1548.78C1364 1551.16 1366.32 1553.28 1368.9 1555.11C1369 1555.18 1369.12 1555.26 1369.14 1555.4L1369.13 1555.39Z" fill="#F69D29"/>
<path d="M1389.8 1468.07C1389.8 1473 1389.8 1477.93 1389.81 1482.86C1389.81 1483.3 1389.68 1483.39 1389.26 1483.41C1387.08 1483.52 1384.92 1483.85 1382.79 1484.33C1381.9 1484.53 1381.02 1484.76 1380.16 1485.05C1379.92 1485.13 1379.7 1485.12 1379.56 1484.77C1378.99 1483.23 1378.38 1481.71 1377.78 1480.18C1376.87 1477.85 1375.95 1475.53 1375.04 1473.2C1374.32 1471.34 1373.62 1469.47 1372.9 1467.61C1372.15 1465.68 1371.35 1463.76 1370.63 1461.82C1370.02 1460.21 1369.43 1458.59 1368.75 1457C1368.65 1456.76 1368.61 1456.54 1369.01 1456.4C1372.02 1455.42 1375.07 1454.59 1378.19 1453.99C1380.09 1453.63 1382 1453.36 1383.92 1453.12C1385.16 1452.97 1386.4 1452.92 1387.64 1452.82C1388.19 1452.77 1388.74 1452.77 1389.29 1452.73C1389.7 1452.7 1389.8 1452.84 1389.8 1453.24C1389.79 1458.18 1389.8 1463.13 1389.8 1468.07Z" fill="#0A7DBC"/>
<path d="M1446.53 1566.39C1446.44 1566.56 1446.24 1566.73 1446.08 1566.93C1445.56 1567.6 1445 1568.25 1444.43 1568.89C1443.04 1570.48 1441.57 1572 1440.04 1573.46C1438.3 1575.12 1436.49 1576.69 1434.59 1578.16C1433.47 1579.02 1432.35 1579.86 1431.19 1580.66C1430.94 1580.83 1430.8 1580.87 1430.6 1580.55C1429.53 1578.77 1428.42 1577.02 1427.33 1575.26C1426.25 1573.51 1425.16 1571.76 1424.08 1570.01C1422.65 1567.69 1421.22 1565.37 1419.78 1563.04C1418.48 1560.93 1417.18 1558.83 1415.88 1556.72C1415.53 1556.15 1415.21 1555.56 1414.83 1555.01C1414.71 1554.83 1414.77 1554.81 1414.89 1554.72C1415.55 1554.21 1416.23 1553.73 1416.85 1553.17C1417.61 1552.48 1418.42 1551.83 1419.14 1551.09C1420.09 1550.1 1421.07 1549.13 1421.96 1548.08C1422.13 1547.88 1422.24 1547.86 1422.47 1548.03C1427.19 1551.6 1431.94 1555.14 1436.65 1558.72C1439.6 1560.96 1442.54 1563.21 1445.52 1565.41C1445.82 1565.63 1446.08 1565.89 1446.4 1566.08C1446.49 1566.13 1446.55 1566.21 1446.52 1566.39H1446.53Z" fill="#F69D29"/>
<path d="M1426.11 1503.34C1425.97 1503.35 1425.94 1503.24 1425.88 1503.14C1425.07 1501.75 1424.18 1500.41 1423.22 1499.13C1422.61 1498.32 1421.97 1497.52 1421.28 1496.77C1420.86 1496.32 1420.47 1495.85 1420.02 1495.43C1419.87 1495.29 1419.9 1495.2 1420.03 1495.08C1420.7 1494.49 1421.24 1493.77 1421.87 1493.14C1422.72 1492.28 1423.48 1491.34 1424.29 1490.44C1424.79 1489.89 1425.3 1489.35 1425.81 1488.8C1426.53 1488.02 1427.23 1487.22 1427.97 1486.45C1428.85 1485.55 1429.68 1484.6 1430.54 1483.68C1431.61 1482.53 1432.67 1481.38 1433.71 1480.22C1434.65 1479.17 1435.61 1478.15 1436.54 1477.1C1437.46 1476.06 1438.41 1475.05 1439.33 1474.02C1439.69 1473.62 1440.13 1473.32 1440.42 1472.85C1440.59 1472.58 1440.75 1472.79 1440.89 1472.93C1442 1474.1 1443.14 1475.24 1444.21 1476.45C1446.06 1478.53 1447.77 1480.73 1449.36 1483.03C1450.77 1485.06 1452.05 1487.18 1453.27 1489.33C1453.44 1489.62 1453.4 1489.75 1453.09 1489.91C1444.17 1494.34 1435.26 1498.79 1426.34 1503.23C1426.27 1503.27 1426.19 1503.3 1426.11 1503.34Z" fill="#299B49"/>
<path d="M1459.11 1514.35C1458.16 1514.51 1457.19 1514.53 1456.24 1514.61C1455.2 1514.7 1454.16 1514.81 1453.12 1514.89C1451.25 1515.05 1449.38 1515.23 1447.5 1515.41C1446.4 1515.52 1445.29 1515.61 1444.19 1515.72C1442.74 1515.86 1441.29 1516 1439.84 1516.17C1439.01 1516.27 1438.17 1516.3 1437.34 1516.38C1436.01 1516.51 1434.69 1516.69 1433.37 1516.77C1432.57 1516.82 1431.77 1516.93 1430.97 1516.98C1430.79 1516.99 1430.7 1516.97 1430.67 1516.73C1430.33 1514.32 1429.72 1511.98 1428.9 1509.69C1428.65 1508.98 1428.39 1508.26 1428.08 1507.58C1427.94 1507.27 1428.06 1507.22 1428.27 1507.11C1430.57 1505.97 1432.88 1504.82 1435.18 1503.67C1439.33 1501.6 1443.49 1499.52 1447.64 1497.44C1450.06 1496.23 1452.48 1495.03 1454.9 1493.81C1455.24 1493.64 1455.42 1493.65 1455.6 1494.05C1457.43 1498.08 1458.84 1502.25 1459.87 1506.54C1460.4 1508.74 1460.79 1510.96 1461.14 1513.19C1461.18 1513.43 1461.09 1513.67 1461.22 1513.91C1461.29 1514.03 1461.22 1514.12 1461.07 1514.13C1460.42 1514.2 1459.76 1514.27 1459.11 1514.34V1514.35Z" fill="#C32234"/>
<path d="M1407.57 1591.08C1407.29 1591.14 1407.29 1591.05 1407.26 1590.89C1406.95 1589.22 1406.62 1587.55 1406.3 1585.88C1406.03 1584.43 1405.78 1582.97 1405.5 1581.51C1405.25 1580.18 1404.97 1578.86 1404.72 1577.54C1404.42 1575.93 1404.14 1574.32 1403.84 1572.71C1403.59 1571.38 1403.31 1570.06 1403.06 1568.73C1402.79 1567.28 1402.54 1565.82 1402.27 1564.36C1402.09 1563.38 1401.89 1562.39 1401.7 1561.41C1401.64 1561.13 1401.68 1560.98 1402 1560.9C1404.96 1560.1 1407.79 1558.94 1410.5 1557.52C1411.08 1557.22 1411.06 1557.24 1411.41 1557.8C1412.65 1559.81 1413.91 1561.8 1415.15 1563.8C1417.06 1566.89 1418.96 1569.99 1420.87 1573.08C1422.39 1575.54 1423.92 1578 1425.44 1580.46C1425.94 1581.27 1426.42 1582.09 1426.94 1582.88C1427.15 1583.19 1427.04 1583.3 1426.78 1583.44C1425.38 1584.19 1424 1585 1422.58 1585.7C1420.47 1586.74 1418.31 1587.68 1416.1 1588.49C1413.33 1589.5 1410.52 1590.38 1407.65 1591.04C1407.59 1591.05 1407.53 1591.08 1407.56 1591.07L1407.57 1591.08Z" fill="#C32234"/>
<path d="M1375.6 1486.64C1375.58 1486.74 1375.49 1486.79 1375.38 1486.84C1372.56 1488.09 1369.95 1489.68 1367.51 1491.56C1367.23 1491.78 1367.05 1491.79 1366.81 1491.53C1365.63 1490.22 1364.46 1488.91 1363.27 1487.61C1362.75 1487.03 1362.18 1486.5 1361.67 1485.91C1360.82 1484.92 1359.88 1483.99 1358.99 1483.03C1357.98 1481.94 1356.99 1480.83 1355.99 1479.74C1354.97 1478.62 1353.94 1477.5 1352.92 1476.38C1351.92 1475.28 1350.92 1474.18 1349.92 1473.09C1348.9 1471.97 1347.87 1470.85 1346.85 1469.73C1346.41 1469.25 1346.44 1469.27 1346.99 1468.77C1348.22 1467.65 1349.57 1466.7 1350.91 1465.73C1354.12 1463.42 1357.5 1461.4 1361.07 1459.69C1362.1 1459.2 1363.14 1458.74 1364.18 1458.26C1364.55 1458.09 1364.63 1458.31 1364.74 1458.59C1365.86 1461.49 1366.98 1464.39 1368.11 1467.28C1369.69 1471.35 1371.27 1475.41 1372.85 1479.48C1373.73 1481.75 1374.6 1484.02 1375.47 1486.29C1375.52 1486.41 1375.55 1486.53 1375.6 1486.67V1486.64Z" fill="#0A7DBC"/>
<path d="M1394.17 1468.07C1394.17 1463.14 1394.17 1458.21 1394.17 1453.29C1394.17 1452.72 1394.22 1452.69 1394.79 1452.8C1395.43 1452.93 1396.08 1452.86 1396.73 1452.92C1398.55 1453.09 1400.36 1453.25 1402.17 1453.52C1406.4 1454.13 1410.52 1455.18 1414.56 1456.55C1414.95 1456.68 1414.92 1456.82 1414.8 1457.13C1413.29 1461.02 1411.79 1464.92 1410.29 1468.82C1408.45 1473.61 1406.6 1478.4 1404.76 1483.18C1404.53 1483.77 1404.31 1484.35 1404.1 1484.94C1404.01 1485.21 1403.89 1485.26 1403.6 1485.17C1401.95 1484.67 1400.29 1484.26 1398.59 1483.96C1397.33 1483.74 1396.08 1483.52 1394.8 1483.49C1394.34 1483.48 1394.15 1483.28 1394.15 1482.76C1394.18 1477.86 1394.17 1472.97 1394.17 1468.07Z" fill="#C32234"/>
<path d="M1461.78 1521.81C1461.81 1523.8 1461.75 1525.55 1461.63 1527.3C1461.35 1531.37 1460.78 1535.39 1459.79 1539.35C1459.7 1539.71 1459.57 1539.68 1459.31 1539.6C1457.7 1539.15 1456.11 1538.65 1454.5 1538.21C1452.52 1537.68 1450.57 1537.07 1448.6 1536.5C1447.05 1536.05 1445.48 1535.63 1443.93 1535.18C1442.13 1534.66 1440.34 1534.11 1438.55 1533.6C1436.81 1533.1 1435.07 1532.63 1433.33 1532.14C1432.39 1531.88 1431.46 1531.61 1430.53 1531.35C1430.2 1531.26 1430.26 1531 1430.31 1530.81C1430.67 1529.25 1430.86 1527.68 1431 1526.09C1431.12 1524.7 1431.23 1523.31 1431.15 1521.93C1431.12 1521.35 1431.36 1521.33 1431.77 1521.29C1433.34 1521.15 1434.91 1521 1436.49 1520.86C1437.45 1520.77 1438.42 1520.7 1439.38 1520.61C1440.58 1520.49 1441.78 1520.36 1442.98 1520.24C1443.86 1520.16 1444.75 1520.1 1445.63 1520.02C1446.72 1519.92 1447.81 1519.79 1448.9 1519.69C1450.27 1519.56 1451.63 1519.47 1453 1519.33C1454.2 1519.22 1455.4 1519.06 1456.6 1518.95C1457.77 1518.84 1458.95 1518.75 1460.12 1518.65C1460.54 1518.61 1460.95 1518.53 1461.38 1518.55C1461.59 1518.55 1461.66 1518.62 1461.66 1518.83C1461.65 1519.9 1461.84 1520.96 1461.8 1521.81H1461.78Z" fill="#C32234"/>
<path d="M1458.48 1544.04C1458.31 1544.57 1458.15 1545.08 1457.97 1545.59C1456.26 1550.5 1454.05 1555.17 1451.31 1559.59C1450.71 1560.56 1450.06 1561.5 1449.44 1562.46C1449.27 1562.73 1449.13 1562.58 1448.97 1562.46C1448.11 1561.81 1447.25 1561.16 1446.4 1560.52C1439.37 1555.22 1432.35 1549.92 1425.31 1544.64C1424.92 1544.35 1424.89 1544.17 1425.15 1543.76C1426.71 1541.32 1427.97 1538.73 1428.92 1536C1429.08 1535.54 1429.27 1535.5 1429.68 1535.62C1435.03 1537.17 1440.38 1538.71 1445.73 1540.24C1449.81 1541.41 1453.9 1542.58 1457.98 1543.76C1458.16 1543.81 1458.43 1543.76 1458.48 1544.04Z" fill="#0A7DBC"/>
</g>
<defs>
<clipPath id="clip0_2_3">
<rect width="2111.81" height="2111.81" fill="white"/>
</clipPath>
</defs>
</svg>
