<svg width="141" height="141" viewBox="0 0 141 141" fill="none" xmlns="http://www.w3.org/2000/svg">
<path d="M37.8397 92.1139C37.8197 92.3039 37.6697 92.364 37.5597 92.444C34.5997 94.694 31.6397 96.944 28.6697 99.194C25.2797 101.774 21.8897 104.344 18.4997 106.924C16.8997 108.134 15.2997 109.334 13.7097 110.564C13.4097 110.794 13.3397 110.564 13.2297 110.414C11.8197 108.424 10.5697 106.344 9.37974 104.224C7.14974 100.264 5.35965 96.114 3.91965 91.814C3.75965 91.344 3.89969 91.2239 4.32969 91.0939C13.8197 88.3839 23.3097 85.6639 32.7997 82.9339C33.1197 82.8439 33.2497 82.884 33.3697 83.204C34.4497 86.274 35.8997 89.1639 37.6997 91.8839C37.7497 91.9639 37.7997 92.0439 37.8497 92.1239L37.8397 92.1139Z" fill="#F69D29"/>
<path d="M35.79 130.934C36.38 130.234 36.6999 129.404 37.1899 128.674C37.9899 127.454 38.76 126.224 39.51 124.974C40.44 123.424 41.38 121.874 42.35 120.354C42.94 119.424 43.53 118.484 44.1 117.544C45.24 115.654 46.4199 113.784 47.5699 111.894C48.9099 109.674 50.28 107.474 51.65 105.274C51.78 105.064 51.9 104.864 52.25 105.054C55.03 106.634 58.04 107.624 61.12 108.414C61.55 108.524 61.67 108.624 61.58 109.114C60.38 115.354 59.21 121.604 58.04 127.854C57.4 131.274 56.76 134.694 56.13 138.114C56.06 138.504 55.96 138.644 55.51 138.544C52.36 137.824 49.26 136.944 46.23 135.814C45.36 135.494 44.49 135.184 43.64 134.824C40.99 133.684 38.39 132.464 35.89 131.034C35.85 131.014 35.81 130.974 35.79 130.954V130.934Z" fill="#E01584"/>
<path d="M31.1198 69.1839C30.9698 70.4239 31.1198 71.8539 31.1998 73.2739C31.2998 74.9039 31.5498 76.5339 31.9498 78.1339C32.0398 78.5039 31.9498 78.6338 31.5898 78.7338C26.1998 80.2638 20.8198 81.8138 15.4398 83.3538C11.2898 84.5438 7.14985 85.7239 2.99985 86.9239C2.64985 87.0239 2.5298 86.9738 2.4498 86.6138C1.9298 84.4938 1.5598 82.3439 1.1998 80.1839C0.949804 78.6339 0.859794 77.0739 0.689794 75.5139C0.379794 72.7739 0.529853 70.0239 0.499853 67.2839C0.499853 66.7839 0.579838 66.2839 0.609838 65.7939C0.619838 65.5239 0.789833 65.5239 0.979833 65.5439C1.85983 65.6239 2.73986 65.7239 3.62986 65.7739C4.52986 65.8139 5.42981 65.9539 6.32981 66.0339C7.67981 66.1639 9.01985 66.3339 10.3698 66.4039C11.2098 66.4539 12.0499 66.5439 12.8899 66.6239C14.2399 66.7439 15.5798 66.9238 16.9298 66.9938C17.7898 67.0438 18.6399 67.1338 19.4999 67.2138C20.8299 67.3338 22.1599 67.4939 23.4999 67.5839C24.3099 67.6439 25.1099 67.7139 25.9099 67.7939C27.3099 67.9339 28.6998 68.0539 30.0998 68.1839C30.1798 68.1839 30.2598 68.1839 30.3398 68.1839C30.8665 68.1906 31.1232 68.5239 31.1098 69.1839H31.1198Z" fill="#299B49"/>
<path d="M70.9696 140.164C67.3096 140.184 64.0196 139.934 60.7296 139.484C60.3996 139.434 60.3296 139.344 60.3996 139.024C62.0596 130.224 63.7196 121.424 65.3796 112.624C65.5696 111.634 65.7795 110.644 65.9395 109.644C65.9895 109.324 66.1196 109.294 66.3896 109.324C69.5296 109.694 72.6695 109.654 75.7995 109.214C76.2195 109.154 76.3796 109.244 76.4596 109.694C77.7296 116.534 79.0296 123.364 80.3196 130.194C80.8596 133.074 81.3896 135.954 81.9496 138.834C82.0196 139.194 81.9096 139.264 81.5996 139.314C79.1596 139.694 76.7196 139.944 74.2596 140.074C73.0496 140.144 71.8496 140.134 70.9796 140.154L70.9696 140.164Z" fill="#F69D29"/>
<path d="M1.08973 60.6639C1.33973 58.9739 1.59973 57.2939 1.96973 55.6239C2.29973 54.1139 2.63971 52.5939 3.06971 51.1139C3.52971 49.5439 3.98971 47.984 4.56971 46.454C5.10971 45.014 5.64979 43.5739 6.27979 42.1639C6.49979 41.6639 6.73971 41.1739 6.93971 40.6639C7.06971 40.3339 7.23973 40.4239 7.45972 40.5339C8.88972 41.2539 10.3198 41.954 11.7498 42.674C18.2498 45.914 24.7398 49.1639 31.2398 52.4039C32.1998 52.8839 33.1598 53.354 34.1398 53.804C34.4798 53.954 34.4997 54.114 34.3597 54.424C33.4398 56.484 32.7397 58.614 32.1997 60.804C31.9997 61.634 31.8398 62.474 31.6598 63.314C31.5398 63.884 31.4097 63.9739 30.8497 63.8539C29.8597 63.6439 28.8397 63.6339 27.8297 63.5339C26.9397 63.4439 26.0498 63.3539 25.1498 63.2739C24.2198 63.1939 23.2897 63.134 22.3597 63.054C21.5297 62.984 20.6998 62.904 19.8698 62.824C19.2598 62.764 18.6498 62.7139 18.0398 62.6539C17.1498 62.5739 16.2598 62.4839 15.3698 62.4039C14.4398 62.3239 13.5097 62.2539 12.5797 62.1639C11.6697 62.0839 10.7597 61.9939 9.84974 61.9039C8.94974 61.8239 8.0498 61.754 7.1598 61.674C6.2698 61.594 5.37974 61.494 4.47974 61.424C3.49974 61.344 2.5198 61.2739 1.5398 61.2139C1.1498 61.1939 1.06973 61.1239 1.08973 60.6639Z" fill="#0A7DBC"/>
<path d="M95.68 39.5539C95.41 39.3539 95.13 39.1639 94.87 38.9539C93.46 37.8239 91.9601 36.8239 90.3901 35.9339C89.3501 35.3439 88.32 34.7239 87.2 34.2839C87.01 34.2139 86.99 34.0839 87.06 33.8939C87.81 32.0139 88.5701 30.1439 89.2701 28.2539C89.9901 26.3339 90.73 24.4239 91.46 22.5039C92.04 20.9739 92.64 19.4539 93.24 17.9339C94.03 15.9139 94.7601 13.8738 95.5401 11.8538C96.2401 10.0438 96.95 8.24394 97.67 6.44394C98.02 5.56394 98.0501 5.55392 98.8801 5.92392C103.16 7.84392 107.23 10.1238 111.05 12.8438C112.79 14.0838 114.48 15.4039 116.12 16.7739C116.32 16.9439 116.33 17.0439 116.16 17.2339C114.95 18.5339 113.75 19.8339 112.55 21.1439C110.65 23.2239 108.76 25.3039 106.86 27.3839C105.61 28.7539 104.35 30.1138 103.09 31.4738C101.82 32.8438 100.53 34.194 99.2801 35.584C98.2301 36.754 97.19 37.9239 96.09 39.0439C95.93 39.2039 95.8901 39.4539 95.6601 39.5539H95.68Z" fill="#F69D29"/>
<path d="M22.1396 19.3939C22.2396 19.4839 22.3296 19.5539 22.3996 19.6339C23.9196 21.3039 25.4395 22.9839 26.9595 24.6539C28.0295 25.8339 29.1095 27.004 30.1895 28.184C32.1695 30.364 34.1496 32.5339 36.1396 34.7139C37.2696 35.9539 38.4096 37.1839 39.5396 38.4139C40.5696 39.5439 41.5896 40.6839 42.6396 41.7939C42.8696 42.0339 42.7295 42.1339 42.5695 42.2939C40.6195 44.2139 38.9295 46.3439 37.4395 48.6339C37.2095 48.9839 36.9696 49.334 36.7796 49.704C36.5996 50.044 36.4295 50.094 36.0595 49.924C31.2295 47.604 26.4695 45.1339 21.6695 42.7639C17.6095 40.7539 13.5696 38.724 9.5196 36.704C9.1796 36.534 9.07951 36.4239 9.29951 36.0439C10.4095 34.0939 11.5996 32.184 12.8696 30.334C13.9196 28.804 15.0195 27.3139 16.1895 25.8739C16.8795 25.0239 17.6095 24.2139 18.3295 23.3939C19.4695 22.1039 20.6696 20.8739 21.8796 19.6539C21.9596 19.5739 22.0396 19.5039 22.1396 19.4039V19.3939Z" fill="#299B49"/>
<path d="M48.1099 102.664C47.9699 102.914 47.8399 103.174 47.6899 103.414C45.2199 107.394 42.75 111.374 40.28 115.364C37.87 119.264 35.4599 123.164 33.0499 127.074C32.7899 127.504 32.51 127.914 32.27 128.354C32.14 128.584 32.03 128.674 31.79 128.494C30.31 127.454 28.84 126.404 27.41 125.294C26.35 124.474 25.3499 123.584 24.2999 122.744C23.9499 122.464 23.6299 122.134 23.2999 121.834C22.2999 120.914 21.2899 119.984 20.3599 118.994C19.0099 117.564 17.6699 116.124 16.4299 114.594C16.1999 114.314 16.1999 114.164 16.5499 113.884C17.7999 112.904 19.0799 111.964 20.3399 111.004C21.6599 110.004 22.9799 109.014 24.2999 108.024C29.5999 104.044 34.8699 100.024 40.1399 96.0039C40.4499 95.7639 40.61 95.724 40.9 96.054C42.98 98.434 45.2999 100.554 47.8799 102.384C47.9799 102.454 48.0999 102.534 48.1199 102.674L48.1099 102.664Z" fill="#F69D29"/>
<path d="M68.7798 15.3439C68.7798 20.2739 68.7798 25.2039 68.7898 30.1339C68.7898 30.5739 68.6598 30.664 68.2398 30.684C66.0598 30.794 63.8998 31.1239 61.7698 31.6039C60.8798 31.8039 59.9998 32.034 59.1398 32.324C58.8998 32.404 58.6798 32.3939 58.5398 32.0439C57.9698 30.5039 57.3598 28.984 56.7598 27.454C55.8498 25.124 54.9298 22.8039 54.0198 20.4739C53.2998 18.6139 52.5998 16.7439 51.8798 14.8839C51.1298 12.9539 50.3298 11.0339 49.6098 9.09388C48.9998 7.48388 48.4098 5.86393 47.7298 4.27393C47.6298 4.03393 47.5898 3.81395 47.9898 3.67395C50.9998 2.69395 54.0497 1.86392 57.1697 1.26392C59.0697 0.90392 60.9798 0.633925 62.8998 0.393925C64.1398 0.243925 65.3798 0.193876 66.6198 0.0938764C67.1698 0.0438764 67.7198 0.0439106 68.2698 0.00391063C68.6798 -0.0260894 68.7798 0.11392 68.7798 0.51392C68.7698 5.45392 68.7798 10.4039 68.7798 15.3439Z" fill="#0A7DBC"/>
<path d="M125.51 113.664C125.42 113.834 125.22 114.004 125.06 114.204C124.54 114.874 123.98 115.524 123.41 116.164C122.02 117.754 120.55 119.274 119.02 120.734C117.28 122.394 115.47 123.964 113.57 125.434C112.45 126.294 111.33 127.134 110.17 127.934C109.92 128.104 109.78 128.144 109.58 127.824C108.51 126.044 107.4 124.294 106.31 122.534C105.23 120.784 104.14 119.034 103.06 117.284C101.63 114.964 100.2 112.644 98.7596 110.314C97.4596 108.204 96.1596 106.104 94.8596 103.994C94.5096 103.424 94.1895 102.834 93.8095 102.284C93.6895 102.104 93.7496 102.084 93.8696 101.994C94.5296 101.484 95.2096 101.004 95.8296 100.444C96.5896 99.754 97.3996 99.1039 98.1196 98.3639C99.0696 97.3739 100.05 96.4039 100.94 95.3539C101.11 95.1539 101.22 95.134 101.45 95.304C106.17 98.874 110.92 102.414 115.63 105.994C118.58 108.234 121.52 110.484 124.5 112.684C124.8 112.904 125.06 113.164 125.38 113.354C125.47 113.404 125.53 113.484 125.5 113.664H125.51Z" fill="#F69D29"/>
<path d="M105.09 50.6139C104.95 50.6239 104.92 50.514 104.86 50.414C104.05 49.024 103.16 47.684 102.2 46.404C101.59 45.594 100.95 44.794 100.26 44.044C99.84 43.594 99.4499 43.124 98.9999 42.704C98.8499 42.564 98.88 42.4739 99.01 42.3539C99.68 41.7639 100.22 41.044 100.85 40.414C101.7 39.554 102.46 38.6139 103.27 37.7139C103.77 37.1639 104.28 36.624 104.79 36.074C105.51 35.294 106.21 34.4939 106.95 33.7239C107.83 32.8239 108.66 31.874 109.52 30.954C110.59 29.804 111.65 28.6539 112.69 27.4939C113.63 26.4439 114.59 25.424 115.52 24.374C116.44 23.334 117.39 22.324 118.31 21.294C118.67 20.894 119.11 20.594 119.4 20.124C119.57 19.854 119.73 20.064 119.87 20.204C120.98 21.374 122.12 22.5139 123.19 23.7239C125.04 25.8039 126.75 28.004 128.34 30.304C129.75 32.334 131.03 34.4539 132.25 36.6039C132.42 36.8939 132.38 37.024 132.07 37.184C123.15 41.614 114.24 46.064 105.32 50.504C105.25 50.544 105.17 50.5739 105.09 50.6139Z" fill="#299B49"/>
<path d="M138.09 61.6239C137.14 61.7839 136.17 61.8039 135.22 61.8839C134.18 61.9739 133.14 62.0839 132.1 62.1639C130.23 62.3239 128.36 62.5039 126.48 62.6839C125.38 62.7939 124.27 62.8839 123.17 62.9939C121.72 63.1339 120.27 63.2739 118.82 63.4439C117.99 63.5439 117.15 63.5739 116.32 63.6539C114.99 63.7839 113.67 63.9639 112.35 64.0439C111.55 64.0939 110.75 64.2039 109.95 64.2539C109.77 64.2639 109.68 64.2439 109.65 64.0039C109.31 61.5939 108.7 59.2538 107.88 56.9638C107.63 56.2538 107.37 55.5338 107.06 54.8538C106.92 54.5438 107.04 54.4939 107.25 54.3839C109.55 53.2439 111.86 52.0939 114.16 50.9439C118.31 48.8739 122.47 46.7938 126.62 44.7138C129.04 43.5038 131.46 42.3039 133.88 41.0839C134.22 40.9139 134.4 40.9239 134.58 41.3239C136.41 45.3539 137.82 49.5239 138.85 53.8139C139.38 56.0139 139.77 58.2338 140.12 60.4638C140.16 60.7038 140.07 60.9439 140.2 61.1839C140.27 61.3039 140.2 61.3939 140.05 61.4039C139.4 61.4739 138.74 61.5438 138.09 61.6138V61.6239Z" fill="#C32234"/>
<path d="M86.5497 138.354C86.2697 138.414 86.2697 138.324 86.2397 138.164C85.9297 136.494 85.5998 134.824 85.2798 133.154C85.0098 131.704 84.7597 130.244 84.4797 128.784C84.2297 127.454 83.9497 126.134 83.6997 124.814C83.3997 123.204 83.1197 121.594 82.8197 119.984C82.5697 118.654 82.2898 117.334 82.0398 116.004C81.7698 114.554 81.5198 113.094 81.2498 111.634C81.0698 110.654 80.8697 109.664 80.6797 108.684C80.6197 108.404 80.6597 108.254 80.9797 108.174C83.9397 107.374 86.7697 106.214 89.4797 104.794C90.0597 104.494 90.0398 104.514 90.3898 105.074C91.6298 107.084 92.8898 109.074 94.1298 111.074C96.0398 114.164 97.9397 117.264 99.8497 120.354C101.37 122.814 102.9 125.274 104.42 127.734C104.92 128.544 105.4 129.364 105.92 130.154C106.13 130.464 106.02 130.574 105.76 130.714C104.36 131.464 102.98 132.274 101.56 132.974C99.4497 134.014 97.2897 134.954 95.0797 135.764C92.3097 136.774 89.4998 137.654 86.6298 138.314C86.5698 138.324 86.5098 138.354 86.5398 138.344L86.5497 138.354Z" fill="#C32234"/>
<path d="M54.5799 33.914C54.5599 34.014 54.4699 34.0639 54.3599 34.1139C51.5399 35.3639 48.9299 36.954 46.4899 38.834C46.2099 39.054 46.0299 39.064 45.7899 38.804C44.6099 37.494 43.4399 36.1839 42.2499 34.8839C41.7299 34.3039 41.1599 33.774 40.6499 33.184C39.7999 32.194 38.8599 31.264 37.9699 30.304C36.9599 29.214 35.9699 28.1039 34.9699 27.0139C33.9499 25.8939 32.9199 24.7739 31.8999 23.6539C30.8999 22.5539 29.8999 21.4539 28.8999 20.3639C27.8799 19.2439 26.8499 18.1239 25.8299 17.0039C25.3899 16.5239 25.4199 16.544 25.9699 16.044C27.1999 14.924 28.5499 13.9739 29.8899 13.0039C33.0999 10.6939 36.4798 8.67388 40.0498 6.96388C41.0798 6.47388 42.1199 6.01395 43.1599 5.53395C43.5299 5.36395 43.6099 5.58391 43.7199 5.86391C44.8399 8.76391 45.9599 11.664 47.0899 14.554C48.6699 18.624 50.2499 22.6839 51.8299 26.7539C52.7099 29.0239 53.5799 31.294 54.4499 33.564C54.4999 33.684 54.5299 33.804 54.5799 33.944V33.914Z" fill="#0A7DBC"/>
<path d="M73.1499 15.3439C73.1499 10.4139 73.1499 5.484 73.1499 0.563999C73.1499 -0.00600111 73.1999 -0.0359913 73.7699 0.0740087C74.4099 0.204009 75.0598 0.134004 75.7098 0.194004C77.5298 0.364004 79.3399 0.523979 81.1499 0.793979C85.3799 1.40398 89.4999 2.45401 93.5399 3.82401C93.9299 3.95401 93.8999 4.09396 93.7799 4.40396C92.2699 8.29396 90.7699 12.1939 89.2699 16.0939C87.4299 20.8839 85.5799 25.674 83.7399 30.454C83.5099 31.044 83.2898 31.6239 83.0798 32.2139C82.9898 32.4839 82.8698 32.534 82.5798 32.444C80.9298 31.944 79.2698 31.5339 77.5698 31.2339C76.3098 31.0139 75.0599 30.794 73.7799 30.764C73.3199 30.754 73.1299 30.554 73.1299 30.034C73.1599 25.134 73.1499 20.2439 73.1499 15.3439Z" fill="#C32234"/>
<path d="M140.76 69.084C140.79 71.074 140.73 72.824 140.61 74.574C140.33 78.644 139.76 82.6639 138.77 86.6239C138.68 86.9839 138.55 86.9539 138.29 86.8739C136.68 86.4239 135.09 85.9239 133.48 85.4839C131.5 84.9539 129.55 84.3439 127.58 83.7739C126.03 83.3239 124.46 82.904 122.91 82.454C121.11 81.934 119.32 81.3839 117.53 80.8739C115.79 80.3739 114.05 79.9039 112.31 79.4139C111.37 79.1539 110.44 78.8839 109.51 78.6239C109.18 78.5339 109.24 78.274 109.29 78.084C109.65 76.524 109.84 74.9539 109.98 73.3639C110.1 71.9739 110.21 70.584 110.13 69.204C110.1 68.624 110.34 68.6039 110.75 68.5639C112.32 68.4239 113.89 68.2739 115.47 68.1339C116.43 68.0439 117.4 67.9739 118.36 67.8839C119.56 67.7639 120.76 67.6339 121.96 67.5139C122.84 67.4339 123.73 67.3739 124.61 67.2939C125.7 67.1939 126.79 67.0639 127.88 66.9639C129.25 66.8339 130.61 66.7439 131.98 66.6039C133.18 66.4939 134.38 66.3339 135.58 66.2239C136.75 66.1139 137.93 66.0239 139.1 65.9239C139.52 65.8839 139.93 65.804 140.36 65.824C140.57 65.824 140.64 65.8939 140.64 66.1039C140.63 67.1739 140.82 68.234 140.78 69.084H140.76Z" fill="#C32234"/>
<path d="M137.46 91.314C137.29 91.844 137.13 92.3539 136.95 92.8639C135.24 97.7739 133.03 102.444 130.29 106.864C129.69 107.834 129.04 108.774 128.42 109.734C128.25 110.004 128.11 109.854 127.95 109.734C127.09 109.084 126.23 108.434 125.38 107.794C118.35 102.494 111.33 97.194 104.29 91.914C103.9 91.624 103.87 91.444 104.13 91.034C105.69 88.594 106.95 86.004 107.9 83.274C108.06 82.814 108.25 82.774 108.66 82.894C114.01 84.444 119.36 85.984 124.71 87.514C128.79 88.684 132.88 89.854 136.96 91.034C137.14 91.084 137.41 91.034 137.46 91.314Z" fill="#0A7DBC"/>
</svg>
