<svg width="16" height="16" viewBox="0 0 16 16" fill="none" xmlns="http://www.w3.org/2000/svg">
<g clip-path="url(#clip0_193_4220)">
<path d="M8 16C3.58167 16 0 12.4183 0 8C0 3.58167 3.58167 0 8 0C12.4183 0 16 3.58167 16 8C15.9948 12.4161 12.4161 15.9948 8 16ZM8 1C4.13403 1 1 4.13403 1 8C1 11.866 4.13403 15 8 15C11.866 15 15 11.866 15 8C14.9958 4.13574 11.8643 1.00415 8 1Z" fill="#155A35"/>
<path d="M8.00005 9C6.55254 8.92615 5.43609 7.69788 5.50005 6.25C5.43609 4.80212 6.55254 3.57385 8.00005 3.5C9.44756 3.57385 10.564 4.80212 10.5001 6.25C10.564 7.69788 9.44756 8.92615 8.00005 9ZM8.00005 4.5C7.10577 4.5752 6.43755 5.35474 6.50005 6.25C6.43755 7.14526 7.10577 7.9248 8.00005 8C8.89434 7.9248 9.56255 7.14526 9.50005 6.25C9.56255 5.35474 8.89434 4.5752 8.00005 4.5Z" fill="#155A35"/>
<path d="M5 11.5C4.72388 11.5 4.5 11.2761 4.5 11C4.5 9.34546 6.06995 8 8 8C8.27612 8 8.5 8.22388 8.5 8.5C8.5 8.77612 8.27612 9 8 9C6.62146 9 5.5 9.89697 5.5 11C5.5 11.2761 5.27612 11.5 5 11.5Z" fill="#155A35"/>
<path d="M9.49996 12.5C9.36739 12.5 9.24019 12.4472 9.14644 12.3535L8.14644 11.3535C7.95699 11.1573 7.95967 10.8454 8.15255 10.6525C8.34542 10.4597 8.65731 10.457 8.85347 10.6464L9.49996 11.2929L12.1464 8.64644C12.3426 8.45699 12.6545 8.45967 12.8474 8.65255C13.0402 8.84542 13.0429 9.15731 12.8535 9.35347L9.85347 12.3535C9.75972 12.4472 9.63253 12.5 9.49996 12.5Z" fill="#155A35"/>
</g>
<defs>
<clipPath id="clip0_193_4220">
<rect width="16" height="16" fill="white"/>
</clipPath>
</defs>
</svg>
